<svg xmlns="http://www.w3.org/2000/svg" class="test"><symbol id="arrow-right" viewBox="0 0 268.832 268.832"><path d="M265.171 125.577l-80-80c-4.881-4.881-12.797-4.881-17.678 0-4.882 4.882-4.882 12.796 0 17.678l58.661 58.661H12.5c-6.903 0-12.5 5.597-12.5 12.5 0 6.902 5.597 12.5 12.5 12.5h213.654l-58.659 58.661c-4.882 4.882-4.882 12.796 0 17.678 2.44 2.439 5.64 3.661 8.839 3.661s6.398-1.222 8.839-3.661l79.998-80c4.882-4.882 4.882-12.796 0-17.678z"/></symbol><symbol id="logo-main" viewBox="0 0 448.574 51.709"><path d="M0 12.298c.195-.39.468-.586.82-.586.507 0 1.092.079 1.757.234a258.625 258.625 0 0 1 14.054-2.87c1.171-.195 1.913-.371 2.226-.527.78-.312 1.268-.468 1.464-.468.741 0 2.225.761 4.451 2.284 1.249.859 1.874 1.484 1.874 1.874 0 .313-.176.8-.527 1.464-.313.703-.468 1.581-.468 2.635v.761c.039 1.601.117 7.496.234 17.685 0 2.616-.04 4.295-.117 5.036-.117 1.679-.586 3.143-1.406 4.392-.508.742-.996 1.113-1.464 1.113-.898 0-1.64-.585-2.225-1.757l-2.05-4.041c-.079-.156-.449-.605-1.113-1.347h-.878c-.585-.038-.898-.059-.937-.059-.976 0-3.396.313-7.261.937a58.853 58.853 0 0 0-3.455.586c-.43 1.25-.996 1.874-1.698 1.874-.508 0-1.016-.332-1.522-.996-.391-.546-.742-1.289-1.054-2.226a9.13 9.13 0 0 1-.352-2.518c0-.585.039-1.444.117-2.577.039-.937.234-5.016.586-12.239l.058-4.861c0-1.132-.079-1.893-.234-2.284-.119-.386-.412-.894-.88-1.519zm4.509 1.112c.234.391.371.684.41.878.117.313.176.742.176 1.289l-.059 6.441v2.167c1.015 0 3.318-.624 6.91-1.874.741-.312 1.268-.507 1.581-.585.272-.078.624-.117 1.054-.117.78 0 1.483.117 2.108.351 1.015.352 1.522.899 1.522 1.64 0 .352-.254.625-.761.82-.468.234-2.069.586-4.802 1.054-2.811.469-4.529.703-5.153.703-.547 0-1.367-.234-2.459-.703 0 3.787.039 7.75.117 11.888.703-.078 2.577-.41 5.622-.995 3.708-.624 5.739-.937 6.09-.937 1.093 0 2.146.664 3.162 1.991l.469.234c.195-.312.292-.624.292-.937V32.033c0-7.534-.058-13.313-.175-17.334-.04-1.522-.04-2.303 0-2.342 0-.546-.079-.917-.234-1.113-.196-.234-.527-.352-.996-.352-1.874 0-5.935.723-12.181 2.167-.741.156-1.639.274-2.693.351zM56.394 37.713c.117-.741.176-1.385.176-1.933 0-1.561-.273-3.083-.82-4.567-.079-.195-.391-.781-.937-1.757-.196-.312-.293-.703-.293-1.171 0-.429.234-1.874.703-4.333-1.757 1.054-2.928 1.581-3.514 1.581-.625 0-1.543-.331-2.752-.996 1.209-.39 2.674-1.151 4.392-2.284.858-.624 1.444-1.132 1.757-1.522.468-.586.82-1.054 1.054-1.406.195-.272.429-.41.703-.41.351 0 1.112.449 2.284 1.347 1.405 1.094 2.108 1.796 2.108 2.108 0 .117-.138.332-.41.644-.859.937-2.362 2.655-4.509 5.153 1.21 1.367 2.069 2.401 2.577 3.104.586.82.878 1.582.878 2.284 0 1.016-.508 2.382-1.522 4.099 1.561.04 4.431.566 8.608 1.581A119.632 119.632 0 0 0 81.4 42.046c1.561.196 3.474.332 5.739.41 7.339.313 11.946.45 13.82.41v.352c-1.679.82-3.787 1.64-6.324 2.459a137.25 137.25 0 0 1-4.802 1.581c-1.64.508-2.85.761-3.631.761-.82 0-2.049-.273-3.689-.82-3.279-1.054-8.746-2.928-16.397-5.622-3.592-1.249-6.247-1.874-7.964-1.874-1.054 0-2.265.156-3.631.468-1.484.352-2.714.801-3.689 1.347-.313.156-.508.234-.586.234-.508 0-.995-.644-1.464-1.933-.039 0-.234-.527-.585-1.581 1.092 0 1.854-.019 2.284-.059 1.599-.115 3.57-.27 5.913-.466zM53.641 7.671a19.945 19.945 0 0 1 2.694-.176c1.523 0 2.811.137 3.865.41 1.092.273 1.933.898 2.518 1.874.272.43.41.917.41 1.464 0 .547-.156.957-.468 1.229-.196.196-.449.293-.761.293-1.016 0-2.44-.683-4.275-2.05-2.03-1.483-3.358-2.42-3.982-2.811v-.233zm17.042 7.086c.741.859 1.209 1.542 1.405 2.049.272.586.41 1.309.41 2.167l-.058 2.811c-.079 5.778-.157 9.819-.234 12.122 2.186-.39 4.509-.858 6.969-1.405l-.117-4.743c-.742.156-1.367.234-1.874.234-.742 0-1.367-.155-1.874-.468-.234-.117-.547-.352-.937-.703 1.952-.469 3.533-.878 4.744-1.23v-3.806c-.352.079-.586.117-.703.117-.625.079-1.054.117-1.289.117-.859 0-1.835-.331-2.928-.996 1.718-.507 3.338-.975 4.861-1.405v-4.216c-.469.079-.782.117-.937.117-1.016.196-1.64.293-1.874.293-.703 0-1.64-.352-2.811-1.054 2.03-.507 4.001-1.034 5.915-1.581.312-1.406.507-2.381.586-2.928.468-3.045.703-4.606.703-4.685 0-.703-.468-1.542-1.405-2.518.663-.703 1.209-1.054 1.64-1.054.39 0 1.249.488 2.577 1.464.82.585 1.464 1.229 1.932 1.933.156.196.234.391.234.585 0 .234-.098.489-.292.761l-1.171 1.522c-.157.196-.898 1.386-2.226 3.572-.079.157-.234.41-.468.761a41.26 41.26 0 0 0 3.279-1.054c.586-.234 1.015-.351 1.289-.351.585 0 1.268.234 2.049.703.624.352.937.742.937 1.171 0 .585-.605.898-1.815.937-.43 0-1.64.156-3.63.468a25.54 25.54 0 0 0-1.464.352c.352.508.546.976.586 1.405v2.167c.937-.273 1.522-.41 1.757-.41.468 0 .995.137 1.581.41.624.273.937.605.937.995 0 .352-.254.606-.762.761-.117.079-1.25.372-3.396.878-.079.04-.215.079-.41.117l-.059 3.338c.624-.234 1.132-.351 1.522-.351a3.55 3.55 0 0 1 2.05.644c.468.313.703.606.703.878 0 .508-.684.859-2.05 1.054l-2.342.468-.117 4.861a7.97 7.97 0 0 0 .761-.176c2.069-.429 3.28-.644 3.631-.644.429 0 1.113.175 2.05.527 1.444.468 2.167 1.035 2.167 1.698a.92.92 0 0 1-.322.703c-.215.196-.498.293-.849.293l-6.735-.234c-.196 0-.957.059-2.284.176-2.108.156-3.787.372-5.036.644-1.367.273-2.342.41-2.928.41-.039 0-.175-.02-.41-.059-.234 1.874-.82 2.811-1.757 2.811-.391 0-.801-.351-1.23-1.054-.625-1.054-.937-2.381-.937-3.982 0-.585.039-1.073.117-1.464l.703-4.041c.078-.234.195-2.069.352-5.505.078-1.132.117-2.186.117-3.162 0-.898-.156-1.757-.469-2.577-1.718 1.601-2.967 2.733-3.748 3.396a35.722 35.722 0 0 1-3.689 2.518l-.234-.176a37.822 37.822 0 0 0 2.752-3.514 131.726 131.726 0 0 0 4.568-6.969 67.05 67.05 0 0 0 2.635-4.626c.468-.858.703-1.62.703-2.284 0-.155-.079-.585-.234-1.288.586-.585 1.015-.878 1.289-.878.234 0 1.19.585 2.869 1.757.469.313.858.761 1.171 1.347.156.234.234.41.234.527 0 .351-.157.723-.469 1.112l-1.405 1.698c-2.504 3.048-4.104 4.962-4.806 5.742zM107.517 14.289c.468-.468.858-.703 1.171-.703.078 0 .272.059.585.176.234.079.585.196 1.054.351 3.045-2.146 5.66-4.333 7.847-6.559.897-.897 1.483-1.444 1.756-1.64.507-.468.762-.917.762-1.347 0-.469-.138-1.015-.41-1.64.429-.312.741-.469.937-.469.117 0 .917.293 2.401.878.352.117 1.132.527 2.342 1.23.664.43.996.82.996 1.171 0 .391-.41.782-1.229 1.171-.196.079-.606.313-1.23.703-3.865 2.187-8.219 4.49-13.059 6.91.741.391 1.269.723 1.582.996.312.313.487.82.527 1.522.117 1.289.253 2.459.41 3.514h.352c.507 0 1.23-.214 2.167-.644 2.42-1.093 4.041-2.05 4.861-2.87.507-.468.878-.761 1.113-.878.117-.039.312-.059.585-.059.78 0 1.62.157 2.518.469.858.313 1.288.703 1.288 1.171 0 .313-.215.586-.644.82-.079.04-1.269.527-3.572 1.464-2.499.976-3.923 1.522-4.275 1.64-.82.273-1.503.41-2.049.41-.508 0-1.23-.117-2.167-.351.273 1.953.448 3.241.527 3.865.351 2.499.604 4.178.761 5.036 3.318-1.678 5.777-2.986 7.378-3.923.546-.273 2.284-1.289 5.212-3.045l.059.117a43.08 43.08 0 0 1-3.455 4.333c-1.21 1.289-2.206 2.246-2.987 2.87a53.563 53.563 0 0 1-2.284 1.933c-.703.625-1.309 1.171-1.815 1.64-.156.156-.449.585-.878 1.288-.273.391-.605.585-.996.585-.625 0-1.405-.487-2.342-1.464-1.484-1.444-2.225-2.439-2.225-2.986 0-.078.038-.234.117-.469a5.528 5.528 0 0 0 .292-1.757c0-.897-.313-3.123-.937-6.676-.547-3.318-.957-5.367-1.229-6.149-.157-.507-.527-1.092-1.113-1.757a10.726 10.726 0 0 1-.704-.877zm22.136-.41c.429-.741.937-1.113 1.522-1.113.312 0 .957.234 1.933.703 2.108-.546 3.552-.937 4.333-1.171 1.991-.546 3.24-.878 3.748-.996 1.171-.273 2.029-.527 2.577-.761.429-.156.878-.39 1.347-.703.781-.507 1.327-.761 1.64-.761.312 0 .897.293 1.757.878.273.157 1.132.84 2.577 2.05.39.313.585.664.585 1.054 0 .234-.196.585-.585 1.054-.391.43-.644.84-.761 1.23-.156.469-.273 1.191-.352 2.167-.273 4.333-.761 7.691-1.464 10.072-.468 1.679-1.191 3.065-2.167 4.158-.547.585-.977.878-1.289.878-.313 0-.664-.214-1.054-.644-.313-.273-.957-.976-1.932-2.108-.82-.897-2.147-2.167-3.982-3.806v-.117c1.874.273 3.611.41 5.212.41.624 0 1.034-.136 1.23-.41.234-.39.488-1.718.761-3.982.195-1.444.351-3.63.468-6.559l.059-1.815a10.623 10.623 0 0 0-.234-.878 6.292 6.292 0 0 0-.645-.059c-1.016 0-4.295.742-9.838 2.226.468.43.703.84.703 1.229 0 .157-.02.352-.059.585a37.217 37.217 0 0 0-.293 4.509l.059 8.667c0 7.691-.059 12.162-.176 13.41-.351 2.89-.566 4.617-.644 5.183a8.841 8.841 0 0 1-.351 1.552c-.352 1.132-.801 1.698-1.347 1.698-.585 0-.976-.723-1.171-2.167-.43-2.732-.645-5.739-.645-9.018 0-1.132.039-3.104.117-5.915.117-6.325.176-10.775.176-13.352 0-2.811-.117-4.606-.352-5.388-.195-.545-.682-1.209-1.463-1.99zM161.51 40.992l-.059-.059c2.811-3.514 5.212-7.554 7.203-12.122 1.561-3.552 2.732-7.046 3.514-10.482.507-2.186.761-3.884.761-5.095 0-1.406-.449-2.752-1.347-4.041.507-.195.878-.292 1.112-.292s.546.059.937.175c5.973-1.561 9.682-2.752 11.126-3.572.703-.469 1.19-.703 1.464-.703.39 0 1.601.586 3.631 1.757.858.508 1.385.918 1.581 1.23.234.351.352.664.352.937s-.059.468-.176.585c-.196.234-.585.566-1.171.996-.469.352-.977.917-1.523 1.698-.313.468-.585.859-.82 1.171-.156.273-.313.527-.468.761.351.391.527.703.527.937 0 .313-.215.547-.644.703-.157.039-1.133.117-2.928.234-3.514.547-6.403 1.171-8.667 1.874a84.141 84.141 0 0 1-.937 3.572c-.352 1.21-.958 2.909-1.815 5.095.546.196.917.293 1.112.293.312 0 .741-.078 1.289-.234 1.757-.468 3.104-.82 4.041-1.054.039-1.171.059-2.127.059-2.869 0-.937-.039-1.718-.117-2.343-.079-.507-.254-1.092-.527-1.756.351-.234.624-.352.82-.352.195 0 .605.176 1.229.527.937.547 1.523 1.074 1.757 1.581.039.117.059.391.059.82 0 .742-.02 1.932-.059 3.572 1.406-.351 2.362-.663 2.87-.937.781-.468 1.23-.703 1.347-.703.741 0 1.795.41 3.163 1.23.897.508 1.347.917 1.347 1.229 0 .04-.039.157-.117.352-.156.468-.391 2.284-.703 5.446-.117 1.328-.205 2.147-.264 2.459a7.255 7.255 0 0 1-.322 1.112c-.43 1.171-.918 2.07-1.464 2.694-.313.352-.625.527-.937.527-.469 0-1.016-.488-1.64-1.464-.899-1.366-1.777-2.498-2.635-3.396v-.117c1.483-.117 2.361-.214 2.635-.292.39-.078.624-.312.703-.703.117-.39.214-1.425.292-3.104.039-.937.059-1.678.059-2.225 0-.937-.254-1.405-.761-1.405-.273 0-1.016.137-2.225.41-.508.117-.957.234-1.347.352v2.167l-.059 11.771.059 3.748c0 1.679-.02 2.674-.059 2.987a3.573 3.573 0 0 1-.292.995c-.196.429-.508.645-.937.645-.43 0-.898-.313-1.405-.937-.352-.469-.674-1.073-.966-1.815-.293-.741-.439-1.347-.439-1.815 0-.078.136-.839.41-2.284.078-.546.214-2.147.41-4.802.078-1.132.117-2.966.117-5.504l.059-3.455c0-.078-.02-.371-.059-.878-1.21.273-2.44.625-3.689 1.054.195.937.39 1.933.586 2.987.39 2.577.585 4.431.585 5.563 0 .547-.137.937-.41 1.171-.196.196-.41.293-.645.293-.703 0-1.25-.429-1.64-1.289a5.279 5.279 0 0 1-.351-1.112c-.04-.078-.313-1.971-.82-5.681-.117-.663-.352-1.366-.703-2.108a311.573 311.573 0 0 1-2.518 4.392c-2.227 3.628-5.077 6.595-8.551 8.898zm13.235-30.92c.624.665 1.034 1.191 1.229 1.581.352.625.527 1.23.527 1.815 0 .43-.117 1.191-.352 2.284a357.932 357.932 0 0 1 8.374-1.874c.312-.898.507-1.601.586-2.108.312-1.795.468-2.791.468-2.986a.732.732 0 0 0-.234-.527.732.732 0 0 0-.527-.234c-.352 0-2.342.468-5.973 1.405l-1.23.41c-.585.157-.976.234-1.171.234h-1.697zm18.68 5.271c.429-.468.78-.703 1.054-.703.39 0 1.113.468 2.167 1.405.664.547 1.073 1.035 1.23 1.464.078.196.117.468.117.82v.937c-.04.469-.079 1.621-.117 3.455-.079 2.772-.157 4.432-.234 4.978-.196 1.367-.664 2.049-1.405 2.049-.665 0-1.152-.351-1.464-1.054-.43-.975-.644-2.244-.644-3.806 0-.273.02-.761.059-1.464.078-1.757.117-3.201.117-4.333 0-.976-.137-1.854-.41-2.635l-.47-1.113zm8.316-11.302c.741-.585 1.308-.878 1.698-.878.469 0 1.308.372 2.518 1.113 1.327.859 2.147 1.445 2.46 1.757.312.352.468.664.468.937s-.098.684-.293 1.229c-.508 1.445-.761 4.412-.761 8.901 0 13.431.078 21.277.234 23.542.117 1.328.176 2.284.176 2.869 0 1.602-.372 3.163-1.113 4.685-.313.663-.684.996-1.113.996-.468 0-.898-.215-1.288-.645l-3.982-4.392c-.43-.468-1.308-1.307-2.635-2.518v-.059c1.678.234 3.181.352 4.509.352.507 0 .839-.078.996-.234.156-.155.234-.565.234-1.229l.176-7.847-.117-6.383.059-5.915c-.04-6.324-.059-9.838-.059-10.541-.079-1.991-.293-3.299-.644-3.924-.235-.469-.743-1.074-1.523-1.816zM221.476 36.015c2.849-3.24 5.231-6.325 7.144-9.252 2.303-3.475 3.845-6.07 4.626-7.789-4.256 1.601-6.657 2.401-7.203 2.401-.585 0-1.484-.234-2.694-.703-.468-.195-.976-.507-1.522-.937 1.991-.234 3.494-.469 4.509-.703a87.923 87.923 0 0 0 7.203-2.167v-5.387c.038-2.303.059-4.138.059-5.505 0-.507-.079-.917-.234-1.23-.196-.351-.605-.839-1.229-1.464.624-.82 1.19-1.229 1.698-1.229.272 0 1.092.391 2.459 1.171.741.469 1.347.996 1.815 1.581.155.234.234.449.234.645 0 .273-.138.742-.41 1.405-.273.703-.488 2.089-.644 4.158-.04.625-.117 2.167-.234 4.626 1.054-.546 1.795-.82 2.225-.82s.938.117 1.523.351c.546.234.819.508.819.82 0 .43-.586.782-1.757 1.054-.195.04-.723.176-1.581.41-.234.079-.684.196-1.347.351a736.936 736.936 0 0 1-.234 4.509c3.514.937 5.271 2.284 5.271 4.041 0 1.054-.372 1.581-1.112 1.581-.625 0-1.309-.429-2.05-1.288-.431-.469-1.152-1.366-2.167-2.694-.079 2.577-.196 6.345-.352 11.302-.039.859-.059 2.538-.059 5.036-.039 3.241-.117 5.134-.234 5.68-.078.508-.254.899-.526 1.171-.234.196-.469.293-.703.293-.664 0-1.27-.488-1.815-1.464a9.725 9.725 0 0 1-.819-2.108c-.196-.741-.293-1.289-.293-1.64 0-.586.176-1.776.526-3.572.195-1.015.449-3.318.762-6.91.155-1.561.272-3.689.352-6.383-3.396 4.998-7.32 8.608-11.771 10.834l-.235-.175zm17.1 3.338c2.186-1.6 4.606-3.845 7.262-6.734 1.443-1.601 2.498-2.87 3.162-3.807 1.443-1.952 2.342-3.259 2.693-3.923-2.108.468-3.924.917-5.446 1.347-.468.157-.878.234-1.229.234-.781 0-1.815-.488-3.104-1.464 2.029-.352 4.255-.781 6.676-1.289 1.64-.351 3.064-.644 4.275-.878.038-2.108.058-3.689.058-4.743v-1.522l-.937.175c-1.367.274-2.343.41-2.928.41-.391 0-.84-.078-1.347-.234l-.352-.117a11.547 11.547 0 0 0-.879-.292c-.937 1.093-1.854 1.972-2.752 2.635-.625.43-1.66 1.016-3.104 1.757l-.352-.234c1.405-1.561 2.537-3.104 3.396-4.626.741-1.288 1.326-2.401 1.757-3.338.39-.858.585-1.561.585-2.108 0-.507-.215-1.074-.644-1.698.429-.312.761-.469.995-.469.195 0 .879.196 2.05.585 1.366.508 2.05 1.113 2.05 1.815 0 .274-.293.84-.879 1.698-.819 1.211-1.542 2.167-2.166 2.87.272.04.468.059.585.059.195 0 1.308-.234 3.338-.703a12.364 12.364 0 0 0 1.64-.41V7.32c0-2.264-.039-3.552-.116-3.865-.157-.39-.665-1.093-1.523-2.108.703-.624 1.289-.937 1.757-.937.234 0 .723.176 1.465.527 1.092.508 1.951 1.074 2.576 1.698.469.468.703.878.703 1.229 0 .196-.117.566-.352 1.113-.273.625-.548 2.421-.82 5.388-.078.937-.156 1.933-.234 2.986l1.23-.41c1.288-.469 2.01-.761 2.166-.878.898-.39 1.503-.585 1.815-.585.352 0 1.093.175 2.226.527.78.273 1.171.684 1.171 1.23 0 .43-.371.781-1.112 1.054-.234.117-1.386.352-3.455.703-2.108.508-3.476.82-4.1.937a111.134 111.134 0 0 0-.175 6.442c2.731-.429 4.743-.897 6.031-1.405.78-.313 1.347-.469 1.698-.469.39 0 1.503.372 3.338 1.113 1.288.468 1.933 1.054 1.933 1.757a.94.94 0 0 1-.352.761 1.26 1.26 0 0 1-.702.234c-.313 0-1.698-.156-4.158-.469a28.107 28.107 0 0 0-2.05-.059c-2.108 0-4.021.117-5.738.352v2.108c3.396 3.007 5.563 4.861 6.5 5.563a31.234 31.234 0 0 0 5.563 3.572c.937.508 2.537 1.288 4.802 2.342 1.991.898 3.532 1.64 4.626 2.225v.293c-2.616.468-5.134.703-7.555.703-1.601 0-2.752-.195-3.455-.585-.898-.507-2.518-2.245-4.86-5.212a371.324 371.324 0 0 0-5.68-7.027c0 1.367.019 4.002.059 7.906.038 4.958.059 7.535.059 7.73 0 1.562-.274 3.124-.82 4.685-.43 1.093-.898 1.64-1.405 1.64-.431 0-.801-.196-1.113-.585l-2.459-3.104c-.625-.781-1.737-1.893-3.338-3.338l.059-.234c.702.117 1.132.176 1.288.176 1.132.156 2.108.234 2.928.234.469 0 .8-.097.996-.292.117-.156.176-.488.176-.996-.04-.624-.021-1.854.059-3.689.077-1.171.155-3.533.234-7.085V29.28c-1.602 2.108-2.968 3.709-4.1 4.802-2.577 2.538-5.915 4.354-10.014 5.446l-.175-.175zM282.906 42.983c3.162-.586 7.086-1.854 11.771-3.807.272-3.24.41-5.992.41-8.257 0-1.015-.117-1.854-.352-2.518-1.796.313-2.967.547-3.514.703-.702.156-1.229.234-1.581.234-.702 0-1.503-.214-2.4-.645-.431-.234-.977-.644-1.64-1.229.624-.117 1.736-.214 3.338-.293.585-.078 1.698-.331 3.338-.761 2.107-.546 3.845-1.132 5.212-1.757.468-.195 1.249-.585 2.342-1.171.624-.312 1.113-.469 1.464-.469.391 0 .976.137 1.757.41.938.351 1.406.8 1.406 1.347 0 .469-.469.84-1.406 1.113a373.086 373.086 0 0 0-4.802 1.522c.469 1.054.703 2.206.703 3.455 0 1.874-.138 4.139-.41 6.793 1.952-.703 3.24-1.19 3.865-1.464 3.669-1.444 6.07-2.343 7.203-2.694l.116.234a27.524 27.524 0 0 1-3.279 2.459 159.248 159.248 0 0 1-14.581 8.14 91.164 91.164 0 0 0-2.577 1.406c-.625.391-1.093.585-1.405.585-.156 0-.995-.331-2.518-.996a9.734 9.734 0 0 1-1.522-.82c-.665-.429-.996-.839-.996-1.23a1.71 1.71 0 0 1 .058-.29zM300.24 2.811c.469-1.015 1.015-1.523 1.64-1.523.272 0 .624.098 1.054.293.664.234 1.269.43 1.815.585 1.249.391 2.011.782 2.284 1.171.234.273.352.781.352 1.522-.079.937.234 3.495.937 7.671 3.046-.429 5.251-.897 6.617-1.405.624-.234 1.055-.352 1.289-.352s1.19.333 2.869.996c1.366.547 2.05 1.21 2.05 1.991 0 .547-.391.82-1.171.82-.509 0-1.309-.039-2.401-.117a39.024 39.024 0 0 0-2.986-.117c-1.563 0-3.495.137-5.798.41 1.483 7.964 4.118 14.836 7.905 20.613 2.069 3.202 4.255 5.739 6.56 7.613.937.781 1.561 1.171 1.874 1.171.312 0 .604-.272.878-.82 1.171-2.459 2.05-4.47 2.635-6.032h.234l.117 1.933c.313 6.676.469 10.189.469 10.541 0 1.171-.371 1.757-1.112 1.757-1.328 0-3.183-.937-5.563-2.811-4.178-3.279-7.887-8.12-11.127-14.523-2.655-5.192-4.821-11.497-6.5-18.915-5.7 1.25-9.721 2.226-12.063 2.928-.585.156-1.016.234-1.288.234-.703 0-1.815-.371-3.338-1.112-.547-.273-1.191-.683-1.933-1.23a957.23 957.23 0 0 0 5.036-.585c3.709-.469 8.022-1.23 12.942-2.284a423.252 423.252 0 0 0-1.23-5.212c-.313-1.21-.508-1.952-.585-2.226-.196-.897-.391-1.405-.586-1.522-.199-.233-.823-.721-1.876-1.463zm11.829.996h1.347c3.084 0 5.134.371 6.149 1.112 1.171.859 1.757 1.855 1.757 2.987 0 .313-.099.605-.293.878-.273.313-.586.468-.938.468-.781 0-1.932-.507-3.455-1.522-.624-.429-1.679-1.249-3.162-2.459A19.127 19.127 0 0 0 312.01 4.1l.059-.293zM336.665 32.208l-.176-.234c3.045-1.991 5.758-4.177 8.14-6.559 4.138-4.216 8.296-9.447 12.474-15.694 2.186-3.318 3.279-5.661 3.279-7.027 0-.429-.234-1.034-.702-1.815.467-.586.897-.879 1.287-.879.312 0 .897.196 1.757.585 1.326.665 2.244 1.152 2.752 1.464.586.391.879.723.879.995 0 .196-.157.469-.469.82-.43.547-.977 1.27-1.64 2.167.586.391.976.664 1.171.82.313.196 1.055.898 2.226 2.108s3.376 3.201 6.617 5.973c2.537 2.225 4.782 3.943 6.734 5.153 1.366.859 4.431 2.616 9.194 5.27 1.795.977 3.298 1.757 4.509 2.343v.41a90.89 90.89 0 0 1-3.924.41c-1.405.117-3.396.175-5.973.175-.938 0-1.669-.048-2.196-.146-.527-.097-.947-.283-1.259-.557-.664-.507-2.851-2.947-6.559-7.32-4.295-5.075-7.224-8.647-8.784-10.717-.742-1.015-1.288-1.659-1.64-1.932a25.654 25.654 0 0 0-.938-.645c-2.538 3.944-4.489 6.813-5.855 8.608-3.241 4.1-6.208 7.282-8.901 9.545a35.172 35.172 0 0 1-12.003 6.679zm8.549 2.226c.741-.078 2.167-.234 4.274-.469 1.249-.117 6.246-.917 14.992-2.401 2.889-.507 4.353-.741 4.392-.703 2.029-.312 3.396-.527 4.1-.644.585-.078 1.229-.253 1.933-.527.546-.155.916-.234 1.112-.234.586 0 1.619.468 3.104 1.405.663.43.996.878.996 1.347 0 .625-.431.937-1.289.937a29.94 29.94 0 0 1-2.283-.117 99.897 99.897 0 0 0-4.86-.117c-2.305 0-4.413.117-6.325.351-1.405.196-2.362.313-2.869.352 1.093.781 1.64 1.347 1.64 1.698 0 .156-.605.996-1.815 2.518l-1.698 2.049c-1.522 1.953-2.577 3.26-3.162 3.924 2.186-.273 6.559-.956 13.117-2.05-.469-.858-1.444-2.284-2.928-4.275l.234-.234c2.654.937 4.781 1.952 6.383 3.045 1.093.781 1.912 1.64 2.46 2.577.585 1.016.878 2.05.878 3.104 0 .665-.176 1.25-.527 1.757-.391.546-.858.82-1.405.82-.859 0-1.62-.663-2.283-1.991-.859-1.757-1.465-2.889-1.815-3.396-2.07.742-3.28 1.152-3.631 1.229l-11.888 3.514a38.67 38.67 0 0 0-2.284.761c-.547.234-.995.352-1.347.352-.625 0-1.347-.644-2.167-1.933a22 22 0 0 0-.995-1.522c-.196-.273-.293-.488-.293-.644 0-.078.077-.234.234-.469 1.366-.039 2.811-.097 4.333-.176.663-.703 1.103-1.19 1.317-1.464.215-.272.576-.839 1.084-1.698 1.288-2.108 2.107-3.514 2.459-4.216s.527-1.249.527-1.64c0-.195-.039-.469-.117-.82a79.433 79.433 0 0 0-8.257 1.815c-.625.156-1.113.234-1.464.234-.586 0-1.367-.312-2.343-.937-.314-.195-.821-.566-1.524-1.112zm8.257-8.902c2.615-.351 4.978-.82 7.086-1.405 1.757-.469 3.123-.956 4.1-1.464.351-.156.956-.469 1.815-.937.585-.312 1.033-.469 1.347-.469.194 0 .976.254 2.342.761 1.055.43 1.581.898 1.581 1.406 0 .391-.391.723-1.171.995-.234.079-1.229.274-2.986.586-2.772.508-5.974 1.191-9.604 2.049-.548.157-1.017.234-1.406.234-.585 0-1.191-.214-1.815-.644-.157-.155-.586-.526-1.289-1.112zM396.103 38.591c1.64-1.289 3.006-2.518 4.1-3.689 2.577-2.771 5.056-6.07 7.438-9.896 1.209-1.952 2.205-3.728 2.986-5.329-.977.43-3.514 1.679-7.613 3.748-.468.234-.84.351-1.112.351-.195 0-.664-.155-1.405-.468a7.792 7.792 0 0 1-2.167-1.23c-.195-.195-.293-.351-.293-.468 0-.078.039-.195.117-.352l.703-.059c1.326-.117 2.342-.272 3.045-.468.352-.078 2.186-.683 5.505-1.815 2.186-.703 3.338-1.171 3.455-1.405.194-.156.604-.645 1.229-1.464.352-.507.645-.761.879-.761.117 0 .331.117.644.352.352.234.897.585 1.64 1.054 1.366.899 2.05 1.582 2.05 2.05 0 .157-.098.313-.293.469l-1.347.995c-.234.079-.664.586-1.288 1.523a444.2 444.2 0 0 1-3.104 4.275c1.482.117 2.869.351 4.157.703.507.156.858.391 1.055.703.429.585.644 1.21.644 1.874 0 .937-.352 1.405-1.054 1.405a2.024 2.024 0 0 1-1.405-.527c-1.289-1.21-2.226-2.03-2.812-2.459l-.059 2.752c-.117 9.214-.215 14.387-.293 15.519-.195 2.108-.761 3.163-1.698 3.163-.702 0-1.308-.723-1.815-2.167-.43-1.132-.644-2.069-.644-2.811 0-.312.097-.917.293-1.815.312-1.289.546-2.772.702-4.451.156-1.483.273-4.333.352-8.55-2.069 2.811-4.45 5.115-7.145 6.91-1.991 1.288-3.768 2.108-5.329 2.459l-.118-.121zm11.244-32.442l.059-.41.819-.117c1.015-.117 1.718-.175 2.108-.175.78 0 1.815.098 3.104.292 1.249.157 2.245.684 2.987 1.581.663.782.995 1.602.995 2.46 0 .351-.098.683-.293.995-.352.547-.801.82-1.347.82-.391 0-.781-.117-1.171-.351a42.562 42.562 0 0 1-1.874-1.347c-1.211-.975-2.323-1.776-3.338-2.401-.937-.624-1.62-1.074-2.049-1.347zm7.086 35.371c1.288-.273 6.148-.957 14.581-2.05a501.67 501.67 0 0 1-.176-13.059c-2.459.391-4.08.585-4.86.585-1.679 0-2.89-.703-3.631-2.108h1.172c1.874 0 4.274-.352 7.202-1.054.039-1.522.137-4.997.293-10.424v-1.932c0-1.289-.117-2.226-.352-2.811-.273-.703-.898-1.444-1.873-2.226.468-.858 1.033-1.288 1.698-1.288.546 0 1.288.254 2.225.761 1.172.625 2.011 1.152 2.519 1.581.585.508.878 1.016.878 1.522 0 .234-.098.586-.293 1.054-.351.898-.547 1.757-.585 2.577-.04.234-.108 1.591-.205 4.07-.098 2.48-.146 3.817-.146 4.012v1.757c1.21-.312 2.284-.703 3.221-1.171.741-.351 1.308-.527 1.698-.527.39 0 1.073.196 2.05.585 1.093.43 1.64 1.016 1.64 1.757 0 .547-.566.918-1.698 1.113-1.679.351-3.963.859-6.852 1.522-.039 3.162-.079 5.251-.117 6.266-.039 1.133-.215 3.534-.527 7.203 1.835-.117 3.416-.272 4.744-.468 2.107-.312 3.513-.605 4.216-.878.78-.312 1.269-.469 1.464-.469.313 0 1.503.508 3.572 1.523 1.522.742 2.284 1.503 2.284 2.284 0 .273-.098.489-.293.644a1.401 1.401 0 0 1-.937.352c-.782 0-1.777-.117-2.987-.352-2.03-.429-4.685-.644-7.964-.644-5.7 0-11.264.664-16.689 1.991-.548.156-.957.234-1.23.234-.742 0-1.659-.331-2.752-.996-.392-.195-.822-.507-1.29-.936z"/></symbol><symbol id="logo-vertical" viewBox="0 0 58.326 450.973"><path d="M14.874 4.216c.195-.39.469-.586.82-.586.507 0 1.092.079 1.757.234A258.82 258.82 0 0 1 31.505.994c1.172-.195 1.913-.371 2.227-.527C34.511.156 34.999 0 35.194 0c.742 0 2.226.761 4.451 2.284 1.249.859 1.874 1.484 1.874 1.874 0 .313-.176.8-.527 1.464-.313.703-.468 1.581-.468 2.635v.761c.038 1.601.117 7.496.234 17.685 0 2.616-.04 4.295-.117 5.036-.117 1.679-.586 3.143-1.406 4.392-.508.742-.996 1.113-1.464 1.113-.898 0-1.64-.585-2.226-1.757l-2.049-4.041c-.079-.156-.449-.605-1.113-1.347h-.879c-.585-.038-.898-.059-.937-.059-.976 0-3.396.313-7.261.937a58.853 58.853 0 0 0-3.455.586c-.431 1.25-.996 1.874-1.699 1.874-.508 0-1.016-.332-1.521-.996-.391-.546-.742-1.289-1.055-2.226a9.13 9.13 0 0 1-.352-2.518c0-.585.039-1.444.117-2.577.039-.937.234-5.016.586-12.239l.059-4.861c0-1.132-.079-1.893-.234-2.284-.116-.387-.409-.895-.878-1.52zm4.51 1.113c.234.391.37.684.41.878.117.313.176.742.176 1.289l-.059 6.441v2.167c1.014 0 3.317-.624 6.91-1.874.74-.312 1.268-.507 1.58-.585.273-.078.625-.117 1.055-.117.78 0 1.482.117 2.107.351 1.016.352 1.523.899 1.523 1.64 0 .352-.254.625-.762.82-.469.234-2.069.586-4.802 1.054-2.812.469-4.529.703-5.153.703-.547 0-1.367-.234-2.459-.703 0 3.787.038 7.75.117 11.888.702-.078 2.576-.41 5.621-.995 3.709-.624 5.738-.937 6.09-.937 1.094 0 2.146.664 3.162 1.991l.469.234c.195-.312.293-.624.293-.937V23.952c0-7.534-.059-13.313-.176-17.334-.039-1.522-.039-2.303 0-2.342 0-.546-.078-.917-.234-1.113-.195-.234-.526-.352-.995-.352-1.874 0-5.935.723-12.181 2.167-.741.156-1.638.273-2.692.351zM12.708 88.191c.117-.741.176-1.385.176-1.933 0-1.561-.273-3.083-.82-4.567-.078-.195-.391-.781-.938-1.757-.195-.312-.293-.703-.293-1.171 0-.429.234-1.874.703-4.333-1.756 1.054-2.928 1.581-3.514 1.581-.625 0-1.543-.331-2.752-.996 1.209-.39 2.674-1.151 4.393-2.284.857-.624 1.443-1.132 1.756-1.522.469-.586.82-1.054 1.055-1.406.195-.272.429-.41.703-.41.351 0 1.111.449 2.283 1.347 1.405 1.094 2.108 1.796 2.108 2.108 0 .117-.138.332-.41.644-.859.937-2.362 2.655-4.509 5.153 1.209 1.367 2.068 2.401 2.576 3.104.586.82.879 1.582.879 2.284 0 1.016-.508 2.382-1.523 4.099 1.562.04 4.432.566 8.609 1.581a119.578 119.578 0 0 0 14.522 2.811c1.562.196 3.474.332 5.739.41 7.339.313 11.945.45 13.82.41v.352c-1.68.82-3.787 1.64-6.324 2.459a137.31 137.31 0 0 1-4.803 1.581c-1.64.508-2.85.761-3.631.761-.82 0-2.049-.273-3.689-.82-3.279-1.054-8.745-2.928-16.396-5.622-3.592-1.249-6.246-1.874-7.965-1.874-1.054 0-2.264.156-3.631.468-1.483.352-2.713.801-3.688 1.347-.313.156-.508.234-.586.234-.508 0-.995-.644-1.464-1.933-.039 0-.234-.527-.586-1.581 1.093 0 1.854-.019 2.284-.059 1.602-.114 3.573-.27 5.916-.466zM9.955 58.15a19.945 19.945 0 0 1 2.694-.176c1.522 0 2.811.137 3.865.41 1.092.273 1.932.898 2.518 1.874.272.43.41.917.41 1.464 0 .547-.156.957-.469 1.229-.195.196-.449.293-.762.293-1.016 0-2.439-.683-4.274-2.05-2.03-1.483-3.358-2.42-3.982-2.811v-.233zm17.042 7.086c.74.859 1.209 1.542 1.404 2.049.273.586.41 1.309.41 2.167l-.059 2.811c-.078 5.778-.156 9.819-.234 12.122 2.187-.39 4.51-.858 6.969-1.405l-.117-4.743c-.742.156-1.367.234-1.873.234-.742 0-1.367-.155-1.875-.468-.234-.117-.547-.352-.937-.703 1.952-.469 3.533-.878 4.743-1.23v-3.806c-.352.079-.586.117-.702.117-.625.079-1.054.117-1.288.117-.859 0-1.836-.331-2.929-.996 1.718-.507 3.339-.975 4.86-1.405V65.88c-.469.079-.781.117-.937.117-1.016.196-1.64.293-1.874.293-.703 0-1.64-.352-2.811-1.054a182.075 182.075 0 0 0 5.914-1.581c.313-1.406.508-2.381.586-2.928.469-3.045.703-4.606.703-4.685 0-.703-.469-1.542-1.406-2.518.664-.703 1.21-1.054 1.641-1.054.389 0 1.248.488 2.576 1.464.82.585 1.464 1.229 1.932 1.933.156.196.234.391.234.585 0 .234-.098.489-.292.761l-1.171 1.522c-.157.196-.898 1.386-2.227 3.572-.078.157-.233.41-.468.761a41.127 41.127 0 0 0 3.279-1.054c.586-.234 1.015-.351 1.288-.351.586 0 1.269.234 2.05.703.624.352.937.742.937 1.171 0 .585-.605.898-1.814.937-.43 0-1.641.156-3.631.468-.391.079-.879.196-1.465.352.352.508.547.976.586 1.405v2.167c.938-.273 1.523-.41 1.758-.41.468 0 .994.137 1.58.41.625.273.938.605.938.995 0 .352-.254.606-.762.761-.117.079-1.25.372-3.396.878-.078.04-.215.079-.41.117l-.059 3.338c.625-.234 1.133-.351 1.523-.351.74 0 1.424.215 2.049.644.469.313.703.606.703.878 0 .508-.684.859-2.05 1.054-1.366.273-2.147.43-2.343.468l-.117 4.861c.391-.078.645-.137.762-.176 2.068-.429 3.279-.644 3.631-.644.43 0 1.113.175 2.05.527 1.444.468 2.167 1.035 2.167 1.698a.92.92 0 0 1-.322.703c-.215.196-.498.293-.85.293l-6.734-.234c-.195 0-.957.059-2.283.176-2.108.156-3.787.372-5.037.644-1.367.273-2.342.41-2.928.41-.039 0-.176-.02-.41-.059-.234 1.874-.819 2.811-1.756 2.811-.391 0-.801-.351-1.23-1.054-.625-1.054-.938-2.381-.938-3.982 0-.585.039-1.073.117-1.464l.703-4.041c.078-.234.195-2.069.352-5.505.078-1.132.117-2.186.117-3.162 0-.898-.156-1.757-.469-2.577-1.719 1.601-2.967 2.733-3.748 3.396a35.614 35.614 0 0 1-3.689 2.518l-.234-.176a37.826 37.826 0 0 0 2.753-3.514 131.073 131.073 0 0 0 4.567-6.969 66.674 66.674 0 0 0 2.636-4.626c.468-.858.702-1.62.702-2.284 0-.155-.078-.585-.234-1.288.586-.585 1.016-.878 1.289-.878.234 0 1.19.585 2.869 1.757.469.313.858.761 1.172 1.347.155.234.234.41.234.527 0 .351-.157.723-.469 1.112l-1.406 1.698c-2.497 3.049-4.098 4.962-4.8 5.743zM5.271 123.328c.469-.468.858-.703 1.172-.703.077 0 .271.059.585.176.234.079.585.196 1.054.351 3.045-2.146 5.66-4.333 7.848-6.559.897-.897 1.482-1.444 1.756-1.64.508-.468.762-.917.762-1.347 0-.469-.137-1.015-.41-1.64.43-.312.742-.469.938-.469.117 0 .917.293 2.4.878.352.117 1.133.527 2.343 1.23.663.43.995.82.995 1.171 0 .391-.409.782-1.229 1.171-.196.079-.606.313-1.23.703-3.865 2.187-8.219 4.49-13.059 6.91.74.391 1.268.723 1.581.996.312.313.487.819.526 1.522.117 1.289.254 2.459.41 3.514h.352c.507 0 1.23-.215 2.166-.645 2.421-1.092 4.041-2.049 4.861-2.869.507-.469.879-.762 1.113-.879.116-.038.312-.059.585-.059.78 0 1.62.157 2.519.469.857.313 1.287.703 1.287 1.172 0 .313-.215.586-.644.819-.079.04-1.269.527-3.572 1.464-2.499.977-3.923 1.523-4.274 1.641-.82.273-1.504.409-2.05.409-.508 0-1.229-.117-2.167-.351.273 1.952.448 3.24.527 3.864.352 2.499.604 4.178.762 5.036 3.317-1.678 5.777-2.986 7.378-3.924.546-.272 2.284-1.288 5.212-3.045l.059.117a43.236 43.236 0 0 1-3.455 4.334c-1.211 1.288-2.206 2.245-2.986 2.869a54.191 54.191 0 0 1-2.284 1.933c-.702.624-1.309 1.171-1.815 1.64-.156.156-.449.586-.879 1.288-.273.391-.605.585-.995.585-.624 0-1.405-.486-2.343-1.463-1.483-1.444-2.225-2.439-2.225-2.986 0-.078.038-.234.117-.469a5.54 5.54 0 0 0 .293-1.758c0-.896-.313-3.122-.938-6.676-.547-3.317-.957-5.367-1.229-6.148-.157-.507-.527-1.092-1.112-1.757-.276-.309-.51-.601-.705-.875zm22.135-.41c.429-.741.937-1.113 1.522-1.113.313 0 .957.234 1.933.703 2.108-.546 3.552-.937 4.333-1.171 1.992-.546 3.24-.878 3.748-.996 1.172-.273 2.029-.527 2.577-.761.429-.156.878-.39 1.347-.703.781-.507 1.326-.761 1.64-.761.312 0 .897.293 1.757.878.273.157 1.132.84 2.576 2.05.391.313.586.664.586 1.054 0 .234-.195.585-.586 1.054-.391.43-.644.84-.761 1.23-.156.469-.273 1.191-.352 2.167-.273 4.333-.761 7.691-1.464 10.072-.469 1.679-1.191 3.064-2.166 4.158-.548.585-.977.878-1.289.878s-.664-.214-1.055-.644c-.313-.273-.957-.977-1.932-2.109-.82-.896-2.147-2.166-3.982-3.806v-.117c1.874.273 3.611.409 5.212.409.624 0 1.034-.136 1.229-.409.234-.39.488-1.718.762-3.982.195-1.444.352-3.63.469-6.559l.059-1.815a10.623 10.623 0 0 0-.234-.878 6.292 6.292 0 0 0-.645-.059c-1.016 0-4.295.742-9.838 2.226.469.43.703.84.703 1.229 0 .157-.021.352-.059.586a37.22 37.22 0 0 0-.293 4.51l.059 8.666c0 7.691-.059 12.162-.176 13.41a503.39 503.39 0 0 1-.645 5.184 8.597 8.597 0 0 1-.352 1.552c-.352 1.132-.801 1.698-1.347 1.698-.585 0-.976-.723-1.171-2.167-.43-2.731-.645-5.739-.645-9.019 0-1.131.039-3.104.117-5.914.117-6.324.176-10.775.176-13.352 0-2.812-.117-4.606-.352-5.389-.192-.545-.68-1.209-1.461-1.99zM.702 208.593l-.059-.059c2.812-3.514 5.213-7.554 7.203-12.122 1.562-3.552 2.732-7.047 3.514-10.482.508-2.186.762-3.884.762-5.094 0-1.406-.449-2.753-1.347-4.041.507-.195.878-.293 1.112-.293s.547.059.938.176c5.973-1.562 9.682-2.752 11.126-3.572.702-.469 1.19-.703 1.464-.703.391 0 1.601.586 3.631 1.757.858.508 1.385.918 1.581 1.229.234.352.352.664.352.938s-.059.469-.176.586c-.196.234-.585.566-1.171.995-.469.352-.977.917-1.523 1.698-.313.469-.585.859-.819 1.172-.156.273-.313.526-.468.761.351.391.526.702.526.937 0 .313-.215.547-.644.703-.157.039-1.133.117-2.929.234-3.514.547-6.403 1.171-8.667 1.873a85.275 85.275 0 0 1-.937 3.572c-.352 1.211-.958 2.909-1.815 5.096.546.195.916.293 1.112.293.312 0 .741-.078 1.288-.234 1.758-.469 3.104-.82 4.041-1.055.039-1.171.059-2.127.059-2.869 0-.938-.039-1.718-.117-2.343-.078-.507-.254-1.093-.527-1.757.352-.234.625-.352.82-.352s.605.176 1.229.527c.937.547 1.522 1.074 1.757 1.581.039.117.059.392.059.82 0 .741-.02 1.933-.059 3.571 1.406-.351 2.361-.662 2.869-.937.781-.468 1.23-.702 1.348-.702.74 0 1.795.41 3.162 1.229.897.508 1.347.917 1.347 1.229 0 .039-.039.156-.117.352-.156.469-.391 2.283-.702 5.446-.117 1.327-.205 2.147-.264 2.46s-.167.684-.322 1.111c-.43 1.172-.918 2.07-1.464 2.694-.313.352-.625.527-.937.527-.469 0-1.016-.488-1.641-1.465-.898-1.365-1.777-2.497-2.635-3.396v-.117c1.482-.117 2.361-.215 2.635-.293.391-.078.625-.313.703-.703.117-.39.214-1.424.293-3.104.038-.938.059-1.678.059-2.225 0-.938-.255-1.406-.762-1.406-.273 0-1.016.138-2.225.41-.508.117-.957.234-1.348.352v2.166l-.059 11.771.059 3.747c0 1.68-.02 2.675-.059 2.987s-.137.644-.293.995c-.195.43-.508.645-.937.645-.431 0-.898-.313-1.405-.938-.352-.468-.674-1.073-.967-1.815-.293-.741-.439-1.347-.439-1.815 0-.077.137-.839.41-2.283.078-.547.215-2.146.41-4.803.078-1.132.117-2.966.117-5.504l.059-3.455c0-.078-.02-.37-.059-.878-1.211.273-2.44.625-3.689 1.053.195.938.391 1.934.586 2.987.39 2.577.586 4.431.586 5.563 0 .548-.138.938-.41 1.172-.196.196-.41.293-.645.293-.703 0-1.25-.43-1.64-1.289a5.279 5.279 0 0 1-.351-1.112c-.04-.078-.313-1.971-.82-5.68-.117-.664-.352-1.367-.703-2.108a322.202 322.202 0 0 1-2.518 4.392c-2.223 3.633-5.073 6.601-8.548 8.904zm13.236-30.92c.624.665 1.034 1.191 1.229 1.581.352.625.527 1.23.527 1.815 0 .431-.117 1.191-.352 2.284a357.932 357.932 0 0 1 8.374-1.874c.312-.897.507-1.601.586-2.108.312-1.795.468-2.791.468-2.986s-.078-.371-.234-.527a.732.732 0 0 0-.526-.234c-.352 0-2.343.469-5.974 1.406l-1.229.409c-.585.157-.976.234-1.171.234h-1.698zm18.68 5.27c.43-.469.78-.703 1.055-.703.389 0 1.112.469 2.166 1.406.664.547 1.073 1.035 1.23 1.464.077.196.117.468.117.819v.938c-.04.469-.079 1.62-.117 3.455-.079 2.771-.157 4.432-.234 4.978-.196 1.366-.664 2.05-1.406 2.05-.664 0-1.152-.352-1.464-1.055-.43-.975-.644-2.244-.644-3.807 0-.272.02-.761.059-1.463.077-1.758.117-3.201.117-4.334 0-.976-.138-1.854-.41-2.635l-.469-1.113zm8.316-11.302c.741-.585 1.308-.878 1.698-.878.469 0 1.308.372 2.518 1.112 1.328.859 2.147 1.445 2.461 1.758.312.352.468.664.468.937s-.099.684-.293 1.229c-.508 1.445-.761 4.412-.761 8.901 0 13.431.077 21.277.234 23.541.117 1.328.176 2.284.176 2.87 0 1.601-.372 3.162-1.113 4.685-.313.663-.684.995-1.113.995-.468 0-.898-.215-1.287-.644l-3.982-4.393c-.43-.469-1.309-1.308-2.635-2.518v-.059c1.678.234 3.181.352 4.508.352.508 0 .84-.078.996-.234s.234-.565.234-1.23l.176-7.847-.117-6.383.059-5.915c-.039-6.324-.059-9.838-.059-10.54-.078-1.992-.293-3.299-.645-3.924-.235-.468-.743-1.073-1.523-1.815zM2.108 262.174c2.85-3.24 5.23-6.324 7.145-9.253 2.303-3.474 3.845-6.069 4.626-7.788-4.256 1.602-6.657 2.401-7.203 2.401-.585 0-1.483-.234-2.694-.703-.468-.195-.976-.507-1.521-.938 1.99-.233 3.493-.468 4.509-.702a87.923 87.923 0 0 0 7.203-2.167v-5.388c.038-2.303.058-4.138.058-5.505 0-.507-.078-.916-.233-1.229-.196-.352-.606-.839-1.229-1.464.623-.819 1.189-1.229 1.697-1.229.273 0 1.094.391 2.46 1.171.741.469 1.347.996 1.815 1.581.156.234.234.449.234.645 0 .273-.137.742-.41 1.405-.273.703-.488 2.089-.645 4.158a440.42 440.42 0 0 0-.234 4.626c1.055-.547 1.796-.82 2.227-.82.429 0 .937.117 1.521.352.547.234.82.508.82.82 0 .43-.586.781-1.757 1.054a35.44 35.44 0 0 0-1.581.41 19.07 19.07 0 0 1-1.347.352 831.806 831.806 0 0 1-.234 4.509c3.514.937 5.271 2.284 5.271 4.041 0 1.054-.371 1.581-1.113 1.581-.625 0-1.309-.43-2.049-1.289-.43-.468-1.152-1.365-2.167-2.693-.079 2.577-.196 6.345-.352 11.302-.039.859-.059 2.539-.059 5.036-.039 3.241-.116 5.135-.233 5.681-.079.508-.255.898-.527 1.171-.234.196-.469.293-.703.293-.664 0-1.27-.487-1.815-1.464a9.777 9.777 0 0 1-.819-2.108c-.196-.741-.293-1.288-.293-1.64 0-.585.176-1.775.527-3.572.194-1.015.447-3.317.761-6.91.155-1.561.272-3.688.352-6.383-3.396 4.998-7.32 8.608-11.771 10.834l-.237-.178zm17.1 3.338c2.186-1.601 4.605-3.845 7.262-6.734 1.443-1.601 2.498-2.869 3.162-3.807 1.443-1.951 2.342-3.259 2.693-3.924-2.107.469-3.924.918-5.445 1.348-.469.156-.879.234-1.23.234-.781 0-1.815-.488-3.104-1.465 2.029-.351 4.255-.78 6.676-1.288a215.57 215.57 0 0 1 4.275-.878c.038-2.108.059-3.689.059-4.744v-1.522l-.938.176c-1.367.273-2.342.41-2.928.41-.391 0-.84-.078-1.348-.234l-.352-.117a11.704 11.704 0 0 0-.878-.293c-.937 1.094-1.854 1.973-2.752 2.636-.625.43-1.66 1.016-3.104 1.757l-.351-.234c1.405-1.562 2.537-3.104 3.396-4.626.741-1.289 1.327-2.401 1.757-3.338.39-.858.586-1.562.586-2.108 0-.507-.215-1.073-.645-1.698.43-.313.762-.469.996-.469.194 0 .878.196 2.049.586 1.366.508 2.05 1.112 2.05 1.815 0 .273-.293.84-.878 1.698-.82 1.21-1.543 2.166-2.168 2.869.273.039.469.059.586.059.195 0 1.309-.234 3.338-.703a12.354 12.354 0 0 0 1.641-.409V233.481c0-2.264-.04-3.553-.117-3.865-.156-.39-.664-1.093-1.523-2.108.703-.624 1.289-.937 1.758-.937.233 0 .721.176 1.463.526 1.093.508 1.952 1.074 2.577 1.698.468.469.702.879.702 1.23 0 .195-.117.566-.351 1.112-.274.625-.548 2.421-.819 5.388-.08.937-.157 1.933-.234 2.986l1.229-.41c1.289-.468 2.011-.761 2.168-.878.896-.39 1.502-.586 1.814-.586.352 0 1.093.176 2.226.527.78.273 1.171.684 1.171 1.229 0 .431-.371.781-1.112 1.055-.234.117-1.386.351-3.455.702-2.108.508-3.476.82-4.099.938a110.197 110.197 0 0 0-.176 6.441c2.732-.43 4.743-.897 6.031-1.405.781-.313 1.347-.469 1.698-.469.39 0 1.503.371 3.338 1.112 1.288.469 1.933 1.055 1.933 1.757a.944.944 0 0 1-.352.762 1.261 1.261 0 0 1-.703.234c-.313 0-1.697-.156-4.157-.469a28.69 28.69 0 0 0-2.05-.059c-2.107 0-4.021.117-5.738.352v2.108c3.396 3.007 5.563 4.86 6.5 5.563a31.087 31.087 0 0 0 5.563 3.572c.938.508 2.537 1.289 4.803 2.343 1.99.898 3.533 1.64 4.626 2.226v.292c-2.616.469-5.134.703-7.554.703-1.602 0-2.753-.195-3.455-.586-.898-.507-2.519-2.244-4.861-5.212a367.669 367.669 0 0 0-5.68-7.026c0 1.366.02 4.002.059 7.905.038 4.958.059 7.535.059 7.729 0 1.563-.273 3.124-.82 4.686-.43 1.092-.898 1.64-1.405 1.64-.431 0-.801-.196-1.112-.586l-2.46-3.104c-.625-.78-1.737-1.894-3.338-3.338l.059-.234c.702.117 1.132.176 1.288.176 1.132.156 2.108.234 2.928.234.469 0 .801-.098.996-.293.117-.155.176-.487.176-.996-.039-.624-.021-1.854.059-3.688.078-1.172.155-3.533.234-7.086v-1.933c-1.602 2.108-2.968 3.709-4.1 4.802-2.576 2.538-5.914 4.354-10.014 5.446l-.178-.175zM4.978 327.703c3.162-.586 7.086-1.854 11.771-3.807.271-3.24.409-5.992.409-8.257 0-1.015-.117-1.854-.352-2.519-1.796.313-2.968.548-3.513.703-.703.156-1.23.234-1.582.234-.703 0-1.503-.214-2.4-.645-.431-.234-.977-.644-1.641-1.229.625-.117 1.737-.214 3.338-.293.586-.078 1.699-.331 3.338-.761 2.109-.547 3.846-1.132 5.213-1.757.469-.195 1.248-.586 2.342-1.172.625-.312 1.113-.468 1.465-.468.389 0 .975.137 1.756.409.938.352 1.406.801 1.406 1.348 0 .468-.469.84-1.406 1.112a373.086 373.086 0 0 0-4.802 1.522c.469 1.054.703 2.206.703 3.455 0 1.874-.138 4.139-.41 6.793 1.952-.703 3.24-1.19 3.865-1.464 3.669-1.444 6.069-2.343 7.202-2.694l.117.234a27.528 27.528 0 0 1-3.279 2.46 159.115 159.115 0 0 1-14.581 8.14 91.934 91.934 0 0 0-2.577 1.405c-.625.391-1.094.586-1.405.586-.156 0-.995-.331-2.519-.995a9.858 9.858 0 0 1-1.521-.82c-.664-.429-.996-.839-.996-1.229 0-.037.019-.135.059-.291zm17.334-40.173c.469-1.015 1.015-1.522 1.64-1.522.272 0 .624.098 1.054.293.664.234 1.269.43 1.816.586 1.248.391 2.01.781 2.283 1.171.234.273.352.781.352 1.522-.078.938.234 3.494.938 7.672 3.045-.43 5.25-.897 6.617-1.406.623-.233 1.054-.351 1.287-.351.234 0 1.191.332 2.87.995 1.366.547 2.05 1.211 2.05 1.991 0 .547-.391.819-1.172.819-.508 0-1.309-.038-2.4-.116a39.024 39.024 0 0 0-2.986-.117c-1.563 0-3.494.137-5.798.409 1.483 7.965 4.118 14.836 7.905 20.613 2.069 3.202 4.256 5.739 6.559 7.613.938.781 1.562 1.171 1.875 1.171.312 0 .604-.272.878-.819 1.171-2.46 2.05-4.47 2.636-6.032h.234l.117 1.933c.312 6.676.468 10.189.468 10.541 0 1.171-.372 1.757-1.112 1.757-1.328 0-3.183-.938-5.563-2.811-4.179-3.28-7.887-8.12-11.126-14.523-2.656-5.191-4.822-11.497-6.501-18.915-5.7 1.25-9.721 2.226-12.063 2.928-.586.157-1.016.234-1.288.234-.702 0-1.815-.37-3.338-1.112-.548-.272-1.191-.683-1.933-1.229.703-.078 2.381-.273 5.036-.586 3.708-.469 8.022-1.229 12.942-2.284a427.994 427.994 0 0 0-1.23-5.212 146.172 146.172 0 0 0-.586-2.225c-.195-.898-.391-1.406-.585-1.523-.199-.234-.822-.723-1.876-1.465zm11.829.996h1.347c3.084 0 5.133.371 6.149 1.112 1.171.859 1.757 1.854 1.757 2.986 0 .313-.098.606-.293.879-.273.313-.586.469-.938.469-.781 0-1.932-.507-3.455-1.523-.625-.429-1.679-1.248-3.162-2.459a19.127 19.127 0 0 0-1.464-1.171l.059-.293zM.176 375.488L0 375.254c3.046-1.991 5.759-4.177 8.14-6.559 4.139-4.216 8.296-9.447 12.474-15.694 2.187-3.317 3.279-5.66 3.279-7.027 0-.429-.234-1.033-.702-1.815.468-.585.896-.878 1.288-.878.312 0 .897.195 1.757.586 1.326.664 2.244 1.151 2.752 1.464.586.391.879.723.879.995 0 .196-.156.469-.469.82-.43.547-.977 1.269-1.64 2.166.585.392.976.665 1.171.82.313.195 1.055.898 2.226 2.108s3.376 3.201 6.617 5.973c2.537 2.226 4.782 3.944 6.734 5.153 1.366.859 4.431 2.616 9.194 5.271 1.795.977 3.299 1.757 4.509 2.343v.41a90.623 90.623 0 0 1-3.923.409c-1.406.117-3.396.176-5.974.176-.937 0-1.669-.048-2.196-.146-.527-.097-.947-.282-1.259-.556-.665-.507-2.851-2.947-6.56-7.32-4.295-5.074-7.223-8.646-8.783-10.717-.742-1.015-1.289-1.659-1.64-1.933a27.73 27.73 0 0 0-.937-.644c-2.539 3.943-4.49 6.813-5.857 8.608-3.24 4.099-6.207 7.281-8.9 9.545a35.212 35.212 0 0 1-12.004 6.676zm8.55 2.226a844.59 844.59 0 0 0 4.275-.469c1.248-.117 6.245-.917 14.99-2.4 2.889-.508 4.354-.741 4.393-.703 2.029-.313 3.396-.527 4.1-.645.586-.077 1.229-.253 1.932-.526.547-.156.918-.234 1.113-.234.586 0 1.619.469 3.104 1.405.664.43.996.878.996 1.347 0 .625-.431.938-1.289.938-.547 0-1.309-.039-2.283-.117a99.908 99.908 0 0 0-4.861-.117c-2.304 0-4.412.117-6.324.352-1.405.195-2.362.313-2.869.351 1.092.782 1.64 1.348 1.64 1.698 0 .157-.606.996-1.815 2.519l-1.698 2.05c-1.522 1.952-2.577 3.26-3.162 3.923 2.186-.272 6.559-.956 13.117-2.049-.468-.858-1.444-2.284-2.928-4.275l.233-.234c2.655.938 4.783 1.953 6.384 3.045 1.093.782 1.913 1.641 2.46 2.577.585 1.016.878 2.05.878 3.104 0 .664-.176 1.25-.526 1.757-.391.547-.859.82-1.406.82-.859 0-1.62-.664-2.283-1.991-.859-1.757-1.465-2.889-1.816-3.396-2.069.742-3.279 1.151-3.631 1.229l-11.887 3.514a37.18 37.18 0 0 0-2.284.762c-.548.233-.995.351-1.347.351-.625 0-1.348-.644-2.167-1.932-.431-.703-.761-1.21-.995-1.523-.196-.272-.293-.487-.293-.644 0-.078.078-.234.234-.469 1.365-.038 2.811-.097 4.333-.176.663-.702 1.103-1.19 1.317-1.464.215-.272.576-.839 1.084-1.698 1.288-2.108 2.107-3.514 2.459-4.217.352-.702.527-1.249.527-1.64 0-.194-.039-.468-.117-.819a79.376 79.376 0 0 0-8.257 1.815c-.625.156-1.112.234-1.464.234-.586 0-1.367-.313-2.343-.938-.315-.197-.821-.568-1.524-1.115zm8.256-8.901c2.615-.352 4.978-.819 7.086-1.405 1.757-.469 3.123-.956 4.099-1.464.352-.156.957-.469 1.816-.938.585-.312 1.033-.468 1.347-.468.194 0 .976.254 2.343.761 1.054.431 1.58.898 1.58 1.405 0 .391-.391.724-1.171.996-.233.078-1.229.273-2.986.585-2.772.508-5.974 1.191-9.604 2.05-.547.156-1.016.234-1.404.234-.586 0-1.191-.214-1.816-.645-.158-.154-.587-.526-1.29-1.111zM1.054 440.432c1.641-1.288 3.006-2.518 4.1-3.688 2.576-2.771 5.056-6.07 7.438-9.897 1.209-1.951 2.205-3.728 2.986-5.328-.977.43-3.514 1.679-7.613 3.747-.469.234-.84.352-1.112.352-.196 0-.664-.155-1.405-.469a7.814 7.814 0 0 1-2.167-1.229c-.196-.194-.292-.352-.292-.469 0-.077.037-.194.116-.351l.703-.059c1.327-.117 2.343-.273 3.045-.469.352-.078 2.187-.683 5.505-1.815 2.186-.703 3.338-1.171 3.455-1.405.195-.156.604-.645 1.229-1.464.352-.507.644-.762.878-.762.117 0 .332.117.645.352.352.234.898.586 1.641 1.054 1.365.898 2.049 1.581 2.049 2.05 0 .156-.098.313-.293.469l-1.347.995c-.234.079-.664.586-1.288 1.522a449.084 449.084 0 0 1-3.104 4.275 22.64 22.64 0 0 1 4.157.702c.507.157.858.391 1.054.703.43.586.645 1.211.645 1.874 0 .937-.352 1.405-1.054 1.405A2.022 2.022 0 0 1 19.62 432c-1.289-1.209-2.226-2.029-2.812-2.459l-.058 2.752c-.117 9.214-.216 14.387-.293 15.519-.196 2.108-.762 3.162-1.699 3.162-.702 0-1.309-.723-1.814-2.166-.431-1.132-.645-2.069-.645-2.812 0-.312.097-.917.293-1.815.312-1.288.546-2.771.703-4.45.154-1.483.271-4.334.351-8.55-2.069 2.811-4.45 5.115-7.144 6.91-1.992 1.288-3.769 2.108-5.33 2.459l-.118-.118zm11.244-32.443l.059-.409.82-.117c1.014-.117 1.717-.176 2.107-.176.781 0 1.815.098 3.104.293 1.25.156 2.244.684 2.986 1.581.664.781.996 1.601.996 2.459 0 .352-.098.684-.293.996-.352.547-.801.819-1.347.819-.391 0-.781-.117-1.171-.352a43.093 43.093 0 0 1-1.875-1.347c-1.21-.976-2.322-1.775-3.338-2.4a152.19 152.19 0 0 0-2.048-1.347zm7.086 35.371c1.288-.272 6.148-.956 14.581-2.05a506.04 506.04 0 0 1-.175-13.059c-2.46.391-4.08.585-4.861.585-1.679 0-2.89-.702-3.631-2.108h1.172c1.873 0 4.274-.351 7.203-1.054.038-1.522.136-4.997.292-10.424v-1.933c0-1.288-.116-2.225-.351-2.811-.273-.703-.898-1.444-1.875-2.226.469-.858 1.035-1.288 1.699-1.288.546 0 1.288.254 2.225.762 1.172.624 2.011 1.151 2.519 1.581.585.508.878 1.016.878 1.522 0 .234-.098.585-.293 1.054-.352.898-.547 1.757-.585 2.577-.04.233-.108 1.591-.205 4.069a276.16 276.16 0 0 0-.146 4.012v1.757c1.21-.313 2.284-.703 3.221-1.171.741-.352 1.308-.527 1.698-.527.39 0 1.073.195 2.05.586 1.093.43 1.64 1.016 1.64 1.756 0 .548-.566.918-1.698 1.113-1.679.352-3.963.859-6.852 1.522-.04 3.162-.079 5.251-.117 6.266-.04 1.133-.215 3.534-.526 7.203 1.834-.117 3.415-.272 4.742-.469 2.109-.312 3.514-.604 4.217-.878.781-.313 1.268-.469 1.464-.469.312 0 1.503.508 3.572 1.522 1.522.742 2.284 1.504 2.284 2.284a.784.784 0 0 1-.293.645 1.406 1.406 0 0 1-.938.351c-.781 0-1.776-.117-2.986-.351-2.03-.43-4.685-.645-7.964-.645-5.7 0-11.264.664-16.69 1.991-.547.156-.957.234-1.229.234-.742 0-1.66-.332-2.753-.996-.392-.19-.82-.503-1.289-.933z"/></symbol></svg>