<svg xmlns="http://www.w3.org/2000/svg">
    <defs>
        <rect id="search-SVGID_1_" x="0.1" width="15.9" height="16" />
    </defs>
    <symbol viewBox="0 0 232.8 43.2" id="charcoal-logo-nor">
        <path d="M20.2,34.5c-6.1,0-9.9-5.5-9.9-13c0-7.5,3.2-13,9.8-13c4.4,0,7.2,2.8,7.8,6.5h10.2 c-0.5-4.6-2.6-8.6-6.1-11.3C29,1.4,25,0,20.2,0C8,0,0,9.2,0,21.5c0,12.3,8.2,21.3,20.3,21.3c5.8,0,10-1.6,13.2-4.7 c2.8-2.7,4.7-6.4,4.9-10.5H28.2C27.7,31.6,24.8,34.5,20.2,34.5z" />
        <path d="M59.4,11.6c-4.1,0-6.6,1.7-8.7,4.5h-0.2V0.8h-9.4v41.1h9.4V25.6c0-3.6,2.1-6.2,5.2-6.2c3,0,4.6,2.1,4.6,5.2 v17.2h9.4V22.7C69.6,16.2,65.8,11.6,59.4,11.6z" />
        <path d="M99.5,37.3V22.5c0-3.7-1.2-6.5-3.7-8.4c-2.1-1.6-5.1-2.4-9.5-2.4c-8.9,0-13.1,4.7-13.3,10.1h8.6 c0.3-2.5,1.8-3.8,4.8-3.8c2.8,0,4,1.3,4,3.2c0,2-2,2.6-7.5,3.3c-6.1,0.8-11.3,2.8-11.3,9.2c0,5.8,4.2,9,10,9c4.4,0,7-1.6,8.7-4h0.1 c0.2,1.5,0.5,2.6,1,3.3h9.1v-0.4C99.7,40.9,99.5,39.6,99.5,37.3z M90.6,31.4c0,3.2-2.4,5.3-5.9,5.3c-2.3,0-4-0.9-4-3.3 c0-2.2,1.5-3.2,5.1-4c1.9-0.5,3.6-0.9,4.8-1.6V31.4z" />
        <path d="M112.9,17.1h-0.2v-4.6h-9v29.4h9.4V28.7c0-6.4,3.7-9.2,9.4-8.4h0.2v-8c-0.4-0.2-1-0.2-1.8-0.2 C117.4,12,115,13.6,112.9,17.1z" />
        <path d="M138.7,35.8c-4,0-6-3.3-6-8.6c0-5.3,2-8.7,6-8.7c2.6,0,4.2,1.7,4.8,4.4h9c-0.9-6.6-6-11.3-14-11.3 c-9.3,0-15.4,6.7-15.4,15.6c0,8.8,6.1,15.6,15.6,15.6c8.3,0,13.7-5.3,14-12.1h-9C143.4,34.1,141.6,35.8,138.7,35.8z" />
        <path d="M215.3,37.3V22.5c0-3.7-1.2-6.5-3.7-8.4c-2.1-1.6-5.1-2.4-9.5-2.4c-8.9,0-13.1,4.7-13.3,10.1h8.6 c0.3-2.5,1.8-3.8,4.8-3.8c2.8,0,4,1.3,4,3.2c0,2-2,2.6-7.5,3.3c-6.1,0.8-11.3,2.8-11.3,9.2c0,5.8,4.2,9,10,9c4.4,0,7-1.6,8.7-4h0.1 c0.2,1.5,0.5,2.6,1,3.3h9.1v-0.4C215.6,40.9,215.3,39.6,215.3,37.3z M206.4,31.4c0,3.2-2.4,5.3-5.9,5.3c-2.3,0-4-0.9-4-3.3 c0-2.2,1.5-3.2,5.1-4c1.9-0.5,3.6-0.9,4.8-1.6V31.4z" />
        <path d="M228.6,33.4V0.8h-9.3v29.5c0,2.3,0,4,0.1,5.6c0.2,4.6,3.1,6.3,7.6,6.3c2.1,0,3.9-0.1,5.7-0.3v-6.4 C229.7,35.8,228.8,35.2,228.6,33.4z" />
        <path d="M172.1,0.8c-7.1,5.8-4.4,12.8-4.2,13.4c0.2,0.4,0.3,0.9,0.3,1.4c0,2.3-1.9,4.2-4.2,4.2 c-2,0-3.7-1.4-4.1-3.3c-3.2,2.8-5.2,6.9-5.2,11.4c0,8.4,6.8,15.2,15.2,15.2c8.4,0,15.2-6.8,15.2-15.2c0-1.1-0.1-2.2-0.3-3.2 C183.4,15.8,169.4,5.6,172.1,0.8z M175.2,31.8c-0.9,3-4,4.8-7,3.9c-3-0.9-4.8-4-3.9-7c0.1-0.5,0.3-1,0.5-1.4c0.6-1.1,1.6-1.8,3-2.7 c3.9-2.4,5.1-4.8,4.6-6.2C174.8,21.9,176.2,27.8,175.2,31.8z" />
    </symbol>
    <symbol viewBox="0 0 238.9 43.2" id="charcoal-logo">
        <path d="M20.2,34.5c-6.1,0-9.9-5.5-9.9-13c0-7.5,3.2-13,9.8-13c4.4,0,7.2,2.8,7.8,6.5h10.2 c-0.5-4.6-2.6-8.6-6.1-11.3C29,1.4,25,0,20.2,0C8,0,0,9.2,0,21.5c0,12.3,8.2,21.3,20.3,21.3c5.8,0,10-1.6,13.2-4.7 c2.8-2.7,4.7-6.4,4.9-10.5H28.2C27.7,31.6,24.8,34.5,20.2,34.5z" />
        <path d="M59.4,11.6c-4.1,0-6.6,1.7-8.7,4.5h-0.2V0.8h-9.4v41.1h9.4V25.6c0-3.6,2.1-6.2,5.2-6.2c3,0,4.6,2.1,4.6,5.2 v17.2h9.4V22.7C69.6,16.2,65.8,11.6,59.4,11.6z" />
        <path d="M99.5,37.3V22.5c0-3.7-1.2-6.5-3.7-8.4c-2.1-1.6-5.1-2.4-9.5-2.4c-8.9,0-13.1,4.7-13.3,10.1h8.6 c0.3-2.5,1.8-3.8,4.8-3.8c2.8,0,4,1.3,4,3.2c0,2-2,2.6-7.5,3.3c-6.1,0.8-11.3,2.8-11.3,9.2c0,5.8,4.2,9,10,9c4.4,0,7-1.6,8.7-4h0.1 c0.2,1.5,0.5,2.6,1,3.3h9.1v-0.4C99.7,40.9,99.5,39.6,99.5,37.3z M90.6,31.4c0,3.2-2.4,5.3-5.9,5.3c-2.3,0-4-0.9-4-3.3 c0-2.2,1.5-3.2,5.1-4c1.9-0.5,3.6-0.9,4.8-1.6V31.4z" />
        <path d="M112.9,17.1h-0.2v-4.6h-9v29.4h9.4V28.7c0-6.4,3.7-9.2,9.4-8.4h0.2v-8c-0.4-0.2-1-0.2-1.8-0.2 C117.4,12,115,13.6,112.9,17.1z" />
        <path d="M138.7,35.8c-4,0-6-3.3-6-8.6c0-5.3,2-8.7,6-8.7c2.6,0,4.2,1.7,4.8,4.4h9c-0.9-6.6-6-11.3-14-11.3 c-9.3,0-15.4,6.7-15.4,15.6c0,8.8,6.1,15.6,15.6,15.6c8.3,0,13.7-5.3,14-12.1h-9C143.4,34.1,141.6,35.8,138.7,35.8z" />
        <path d="M215.3,37.3V22.5c0-3.7-1.2-6.5-3.7-8.4c-2.1-1.6-5.1-2.4-9.5-2.4c-8.9,0-13.1,4.7-13.3,10.1h8.6 c0.3-2.5,1.8-3.8,4.8-3.8c2.8,0,4,1.3,4,3.2c0,2-2,2.6-7.5,3.3c-6.1,0.8-11.3,2.8-11.3,9.2c0,5.8,4.2,9,10,9c4.4,0,7-1.6,8.7-4h0.1 c0.2,1.5,0.5,2.6,1,3.3h9.1v-0.4C215.6,40.9,215.3,39.6,215.3,37.3z M206.4,31.4c0,3.2-2.4,5.3-5.9,5.3c-2.3,0-4-0.9-4-3.3 c0-2.2,1.5-3.2,5.1-4c1.9-0.5,3.6-0.9,4.8-1.6V31.4z" />
        <path d="M228.6,33.4V0.8h-9.3v29.5c0,2.3,0,4,0.1,5.6c0.2,4.6,3.1,6.3,7.6,6.3c2.1,0,3.9-0.1,5.7-0.3v-6.4 C229.7,35.8,228.8,35.2,228.6,33.4z" />
        <path d="M172.1,0.8c-7.1,5.8-4.4,12.8-4.2,13.4c0.2,0.4,0.3,0.9,0.3,1.4c0,2.3-1.9,4.2-4.2,4.2 c-2,0-3.7-1.4-4.1-3.3c-3.2,2.8-5.2,6.9-5.2,11.4c0,8.4,6.8,15.2,15.2,15.2c8.4,0,15.2-6.8,15.2-15.2c0-1.1-0.1-2.2-0.3-3.2 C183.4,15.8,169.4,5.6,172.1,0.8z M175.2,31.8c-0.9,3-4,4.8-7,3.9c-3-0.9-4.8-4-3.9-7c0.1-0.5,0.3-1,0.5-1.4c0.6-1.1,1.6-1.8,3-2.7 c3.9-2.4,5.1-4.8,4.6-6.2C174.8,21.9,176.2,27.8,175.2,31.8z" />
        <path d="M236.8,4L236.8,4c0.4-0.2,0.5-0.4,0.5-0.8c0-0.6-0.6-1-1.2-1h-1.6v3.2h1V4.3h0.4c0.3,0,0.4,0.1,0.5,0.4 c0.1,0.3,0.1,0.7,0.1,0.7h0.9V5.4c-0.1-0.1-0.1-0.5-0.2-0.8C237.2,4.2,237.1,4,236.8,4z M236,3.6h-0.5V3h0.5c0.3,0,0.4,0.1,0.4,0.3 C236.4,3.5,236.2,3.6,236,3.6z" />
        <path d="M235.9,0.8c-1.7,0-3,1.3-3,3c0,1.7,1.3,3,3,3c1.7,0,3-1.3,3-3C238.9,2.1,237.5,0.8,235.9,0.8z M235.9,6.4 c-1.4,0-2.4-1.1-2.4-2.6c0-1.5,1-2.5,2.4-2.5c1.4,0,2.4,1.1,2.4,2.5C238.3,5.3,237.2,6.4,235.9,6.4z" />
    </symbol>
    <symbol viewBox="0 0 80 80" id="icon-canada">
        <style>
        .st0 {
            fill-rule: evenodd;
            clip-rule: evenodd;
            fill: #ed2224
        }
        </style>
        <path class="st0" d="M41.8,80c-0.5-7.8-0.7-12.8-0.9-17.7c-0.1-2.1,1.7-1.9,3.1-1.7c11.2,1.7,16.5,2.5,16.5,2.5 c-5.8-11,8.8-16.3,16.3-22.7c-5.8-2-5-1.2-1.3-15.2C63.4,29.1,64.4,28,61.8,22c0,0-0.9,1.1-8.6,9.7c-1.1,1.2-2.9,0.4-2.5-1.5 c4-19.6,4.2-20.4,4.2-20.4c-7.7,4.7-7.4,4.9-8.7,2.5C42,4.1,40,0,40,0s-2,4.1-6.2,12.3c-1.2,2.4-0.9,2.1-8.7-2.5 c0,0,0.2,0.8,4.2,20.4c0.4,1.9-1.4,2.7-2.5,1.5c-7.6-8.6-8.5-9.7-8.5-9.7c-2.6,6-1.6,7.2-13.7,3.3c3.7,14,4.5,13.3-1.3,15.2 c7.5,6.4,22.1,11.7,16.3,22.7c0,0,5.3-0.8,16.5-2.5c1.3-0.2,3.2-0.4,3.1,1.7c-0.2,4.9-0.4,9.9-0.9,17.7H41.8z" />
    </symbol>
    <symbol viewBox="0 0 80 80" id="icon-montreal">
        <style>
        .st0 {
            fill: #ef3e33
        }
        </style>
        <path class="st0" d="M40.1,6.2C37.5,2.4,33.3,0,29,0c-7.4,0-13.1,5.8-13.1,13.3c0,0.7,0.2,1.7,0.4,3c-0.7-0.1-1.9-0.4-3-0.4 C5.8,15.9,0,21.6,0,29c0,4.3,2.4,8.5,6.3,11.1C2.4,42.7,0,46.8,0,51c0,7.2,6,13.1,13.3,13.1c0.9,0,2-0.2,2.9-0.4 c-0.3,1.2-0.4,2.2-0.4,2.9C15.9,74.1,21.6,80,29,80c4.4,0,8.4-2.3,11-6.1c2.5,3.6,6.9,6.1,11.1,6.1c7.3,0,13.1-5.8,13.1-13.3 c0-1-0.2-2.1-0.4-2.9c1.2,0.3,2.2,0.4,3,0.4C74,64.2,80,58.3,80,51c0-4.3-2.3-8.5-6.1-11c3.8-2.5,6.1-6.7,6.1-11 c0-7.2-6-13.1-13.4-13.1c-0.9,0-2,0.2-2.9,0.4c0.1-0.7,0.4-2,0.4-3C64.1,5.9,58.4,0,51.1,0C46.8,0,42.6,2.4,40.1,6.2 M22.8,19.6 L22.8,19.6c-0.6-0.6-2.7-2.8-2.7-6.4v0c0-5.5,4.6-8.9,8.9-8.9c2.4,0,4.6,0.9,6.3,2.6c1.7,1.7,2.6,3.9,2.6,6.3v20.6 c0,2.5-2.3,4-3.9,4H13.3c-2.3,0-4.7-0.9-6.3-2.6C5.8,34,4.4,32,4.4,28.9c0-2.4,1-4.7,2.6-6.3c1.6-1.6,3.8-2.6,6.2-2.6 c3.1,0,5.2,1.5,6.4,2.7c0,0,0.8,0.8,1,1c-0.2,0.5-0.4,1.1-0.4,1.9c0,3,2.4,5.4,5.4,5.4c1.4,0,2.7-0.5,3.7-1.5c1-1,1.6-2.5,1.6-3.9 c0-1.4-0.6-2.9-1.6-3.9c-1-1-2.3-1.5-3.8-1.5c-0.8,0-1.5,0.2-1.8,0.4C23.7,20.4,22.8,19.6,22.8,19.6 M42.2,13.2 c0-2.3,0.9-4.7,2.6-6.3C46,5.7,48,4.3,51,4.3c2.4,0,4.7,1,6.3,2.6c1.6,1.6,2.6,3.8,2.6,6.2v0c0,3.1-1.4,5.2-2.7,6.4c0,0-0.8,0.8-1,1 c-0.5-0.2-1.1-0.3-1.9-0.3c-2.9,0-5.4,2.4-5.4,5.4c0,1.4,0.5,2.7,1.5,3.7c1,1,2.5,1.6,3.9,1.6h0c1.4,0,2.9-0.6,3.9-1.6 c1-1,1.5-2.3,1.5-3.7v0c0-0.8-0.2-1.5-0.3-1.8c0.2-0.2,1-1.1,1-1.1c0.6-0.6,2.8-2.7,6.4-2.7c5.5,0,8.9,4.6,8.9,8.9 c0,2.4-0.9,4.6-2.6,6.3c-1.7,1.7-3.9,2.6-6.3,2.6H46.2c-2.5,0-3.9-2.3-3.9-3.9V13.2z M7,57.5c-1.7-1.7-2.7-4-2.7-6.3 c0-2.4,0.9-4.6,2.6-6.3c1.7-1.7,3.9-2.6,6.3-2.6h20.6c2.5,0,4,2.3,4,3.9v20.7c0,2.3-1,4.7-2.7,6.3c-1.2,1.2-3.2,2.5-6.2,2.5 c-4.9,0-8.9-3.9-8.9-8.8v0c0-3.1,1.5-5.2,2.7-6.4c0,0,0.8-0.8,1-1c0.5,0.2,1.1,0.3,1.9,0.3c3,0,5.4-2.4,5.4-5.4 c0-1.4-0.5-2.7-1.5-3.7c-1-1-2.5-1.6-3.9-1.6c-1.4,0-2.9,0.6-3.9,1.6c-1,1-1.5,2.3-1.5,3.8v0c0,0.8,0.2,1.5,0.4,1.8 c-0.2,0.2-1,1.1-1,1.1C19,57.9,16.7,60,13.2,60C10.8,60,8.6,59.1,7,57.5 M44.9,73.1c-1.7-1.7-2.7-3.9-2.7-6.3V46.1 c0-2.5,2.3-3.9,3.9-3.9h20.7c4.3,0,8.9,3.4,8.9,8.8c0,4.9-3.9,8.9-8.8,8.9c-3.1,0-5.2-1.5-6.4-2.7c0,0-0.8-0.8-1-1 c0.2-0.5,0.3-1.1,0.3-1.9v0c0-3-2.4-5.4-5.4-5.4c-1.4,0-2.7,0.5-3.7,1.5c-1,1-1.6,2.5-1.6,3.9c0,1.4,0.6,2.9,1.6,3.9 c1,1,2.3,1.5,3.8,1.5c0.8,0,1.5-0.2,1.8-0.4c0.2,0.2,1.1,1,1.1,1c0.6,0.6,2.7,2.8,2.7,6.4v0c0,5.5-4.6,8.9-8.9,8.9 C48.8,75.7,46.6,74.7,44.9,73.1" />
    </symbol>
    <symbol viewBox="0 0 80 80" id="icon-quebec">
        <path d="M40,80c0,0,3-0.8,3-7.1c3.4-0.2,5.3-2.1,5.9-4c-3.1-2.3-5.8-4.1-5.8-7.8c5,0,12.4,0,12.4,0v-6.9l-5.9,0 c-0.4-8.1,11.4-12.6,10.8,0c12.1,0,13.1-21.7-1-21.7c-9.6,0-13.9,11.3-13.9,21.8c-1.6,0-3.3,0-3.3,0C42.1,41.5,50,28,50,20.9 C50,11,42.2,0,40,0c-2.2,0-10,11-10,20.9c0,7.1,7.8,20.6,7.8,33.4c0,0-1.8,0-3.3,0c0-10.4-4.3-21.8-13.9-21.8 c-14.1,0-13.2,21.7-1,21.7c-0.6-12.6,11.2-8.1,10.8,0l-5.9,0v6.9c0,0,7.4,0,12.4,0c0,3.6-2.7,5.5-5.8,7.8c0.6,2,2.5,3.8,5.9,4 C37,79.2,40,80,40,80z" />
    </symbol>
    <symbol viewBox="0 0 131.4 60" id="logo">
        <path d="M131.4,2.6V0.2h-7.1v4.6h-5.1l0.2-4.6h-3l-0.2,4.6h-3L113,0.2h-3l0.2,4.6h-5.6V0.2h-2.9v4.6h-6.9V2.6h2.9 V0.2h-8.6v2.4H92v2.2H85V3.6c0-1-0.5-1.8-1.3-2.5c-0.8-0.7-1.8-1-3-1c-1.2,0-2.2,0.4-3,1.1c-0.8,0.7-1.2,1.5-1.2,2.5v1.2h-6.7 l-0.1-4.6h-2.1l-0.4,4.6h-7.7L59,0.2h-2.1l-0.1,4.6H50V3.6c0-1-0.5-1.8-1.3-2.5c-0.8-0.7-1.8-1-3-1c-1.2,0-2.2,0.4-3,1.1 c-0.8,0.7-1.2,1.5-1.2,2.5v1.2H36V3.6c0-1-0.5-1.8-1.3-2.5c-0.8-0.7-1.8-1-3-1c-1.2,0-2.2,0.4-3,1.1c-0.8,0.7-1.2,1.5-1.2,2.5v1.2 h-6.4V3.6c-0.1-1-0.5-1.8-1.3-2.5c-0.8-0.7-1.8-1-3-1c-1.2,0-2.2,0.4-3,1.1c-0.8,0.7-1.3,1.5-1.3,2.5v1.2H4.9V0.2H2v4.6H0v2.4h2 v45.5H0V55h2v4.8h7.1v-2.4H4.9V55h7.6v1.4c0,1,0.5,1.8,1.3,2.5c0.8,0.7,1.8,1,3,1c1.2,0,2.2-0.4,3-1.1c0.8-0.7,1.2-1.5,1.2-2.5V55 h6.4v1.4c0,1,0.5,1.8,1.3,2.5c0.8,0.7,1.8,1,3,1c1.2,0,2.2-0.4,3-1.1c0.8-0.7,1.2-1.5,1.2-2.5v-1.4h-2.9v1.4 c0,0.3-0.1,0.6-0.4,0.8c-0.3,0.2-0.6,0.4-1,0.4c-0.4,0-0.7-0.1-1-0.4c-0.3-0.2-0.4-0.5-0.4-0.8V55h11.1v1.4c0,1,0.5,1.8,1.3,2.5 c0.8,0.7,1.8,1,3,1c1.2,0,2.2-0.4,3-1.1c0.8-0.7,1.2-1.5,1.2-2.5V55h6.2l-0.1,4.8H59L58.9,55h2.8l0.6,5h1.9l0.5-5h2.9l0,4.8h2.9 L70.4,55h6.1v1.4c0,1,0.5,1.8,1.3,2.5c0.8,0.7,1.8,1,3,1c1.2,0,2.2-0.4,3-1.1c0.8-0.7,1.2-1.5,1.2-2.5V55H92v4.8h2.9V55h6.9v4.8 h2.9V55h8.2l0.3,4.8h3.1l0.2-4.8h7.7v4.8h7.1v-2.4h-4.3V55h2.8v-2.4h-2.8V31.2h2.9v-2.4h-2.9V7.1h2.8V4.8h-2.8V2.6H131.4z M116.1,7.1l-1.4,33.7l-1.4-33.7H116.1z M79.3,3.6c0-0.3,0.1-0.6,0.4-0.8c0.3-0.2,0.6-0.4,1-0.4c0.4,0,0.7,0.1,1,0.4 C82,3,82.1,3.3,82.1,3.6v1.2h-2.9V3.6z M82.1,7.1v45.5h-2.9V7.1H82.1z M66.9,7.1l-3.6,39.7L59.6,7.1H66.9z M44.3,3.6 c0-0.3,0.1-0.6,0.4-0.8c0.3-0.2,0.6-0.4,1-0.4c0.4,0,0.7,0.1,1,0.4C47,3,47.1,3.3,47.1,3.6v1.2h-2.9V3.6z M47.1,7.1v45.5h-2.9V7.1 H47.1z M30.3,3.6c0-0.3,0.1-0.6,0.4-0.8c0.3-0.2,0.6-0.4,1-0.4c0.4,0,0.7,0.1,1,0.4C33,3,33.2,3.3,33.2,3.6v1.2h-2.9V3.6z M15.4,3.6c0-0.3,0.1-0.6,0.4-0.8c0.3-0.2,0.6-0.4,1-0.4c0.4,0,0.7,0.1,1,0.4c0.3,0.2,0.4,0.5,0.4,0.8v1.2h-2.9V3.6z M18.2,7.1 v45.5h-2.9V7.1H18.2z M4.9,52.6V7.1h7.6v45.5H4.9z M18.2,56.4c0,0.3-0.1,0.6-0.4,0.8c-0.3,0.2-0.6,0.4-1,0.4c-0.4,0-0.7-0.1-1-0.4 c-0.3-0.2-0.4-0.5-0.4-0.8V55h2.9V56.4z M21.1,52.6V7.1h6.4v45.5H21.1z M30.3,52.6V7.1h11.1v45.5H30.3z M47.1,56.4 c0,0.3-0.1,0.6-0.4,0.8c-0.3,0.2-0.6,0.4-1,0.4c-0.4,0-0.7-0.1-1-0.4c-0.3-0.2-0.4-0.5-0.4-0.8V55h2.9V56.4z M50,52.6V7.1h6.8 l-0.5,45.5H50z M58.9,52.6l-0.4-26.5l3,26.5H58.9z M65,52.6l2.8-26.5l-0.2,26.5H65z M70.3,52.6L69.8,7.1h6.6v45.5H70.3z M82.1,56.4c0,0.3-0.1,0.6-0.4,0.8c-0.3,0.2-0.6,0.4-1,0.4c-0.4,0-0.7-0.1-1-0.4c-0.3-0.2-0.4-0.5-0.4-0.8V55h2.9V56.4z M85,52.6 V7.1H92v45.5H85z M94.9,52.6V7.1h6.9v45.5H94.9z M104.7,52.6V7.1h5.7l2.4,45.5H104.7z M124.2,52.6h-7.6L119,7.1h5.2V52.6z" />
    </symbol>
    <symbol viewBox="0 0 45.9 15.2" id="arrow-back">
        <path d="M39.8,0H28.2v2h11.6c2.3,0,4.1,1.9,4.1,4.1s-1.9,4.1-4.1,4.1H6.4V7.4L0,11.3l6.4,3.9v-2.9v0h33.4c3.4,0,6.1-2.8,6.1-6.1 S43.2,0,39.8,0z" />
    </symbol>
    <symbol viewBox="-27.4 42 10.8 18" id="arrow-big_left">
        <style>
        .st0 {
            fill: none
        }
        </style>
        <rect x="-28.4" y="46.1" transform="matrix(0.7071 -0.7071 0.7071 0.7071 -39.9707 -1.6916)" width="12.7" height="2.5" />
        <rect x="-28.4" y="53.3" transform="matrix(0.7071 0.7071 -0.7071 0.7071 32.1589 31.5652)" width="12.7" height="2.5" />
        <path class="st0" d="M-330,424h24v24h-24V424z" />
    </symbol>
    <symbol viewBox="-285 393.2 40 7.8" id="arrow-short_left">
        <polygon points="-278.6,401 -278.6,398.1 -245,398.1 -245,396.2 -278.6,396.2 -278.6,393.2 -285,397.1" />
    </symbol>
    <symbol viewBox="0 0 40 7.8" id="arrow-short_right">
        <polygon points="40,3.9 33.6,0 33.6,3 0,3 0,4.9 33.6,4.9 33.6,7.8" />
    </symbol>
    <symbol viewBox="-273 389.1 16 16" id="arrow-tiny_left">
        <polygon points="-266.6,401 -266.6,398.1 -257,398.1 -257,396.2 -266.6,396.2 -266.6,393.2 -273,397.1" />
    </symbol>
    <symbol viewBox="0 0 60 7.8" id="arrow">
        <path d="M3.8,3.9L0,0.1h2.8l3.8,3.8L2.9,7.7H0L3.8,3.9z M4.4,7.7h2.9l2.8-2.8h43.5v3L60,3.9L53.6,0v3H10.1L7.3,0.1 H4.4l3.8,3.8L4.4,7.7z" />
    </symbol>
    <symbol viewBox="0 0 360 360" id="award-cda">
        <style>
        .st0 {
            fill: #4d84f1
        }
        </style>
        <polygon class="st0" points="199.8,65.2 144.9,119.9 199.7,174.7 172,202.3 90.3,120.6 145.4,65.2" />
        <polygon class="st0" points="155.5,229.3 210.4,174.5 155.6,119.8 183.3,92.2 265,173.9 209.9,229.3" />
        <g>
            <path class="st0" d="M130.5,270.7c-0.7,0.6-1.4,0.9-2.5,0.9c-1.4,0-2.3-0.6-2.9-1.3c-0.9-1.1-1-2.7-1-6.3c0-3.5,0.1-5,1-6.3 c0.6-0.7,1.5-1.3,2.9-1.3c1.1,0,1.9,0.3,2.6,0.9c0.7,0.7,1.1,1.8,1.1,3.1h-2.3c0-0.6-0.1-1-0.3-1.4c-0.2-0.3-0.6-0.6-1.1-0.6 c-0.6,0-0.9,0.2-1.1,0.6c-0.5,0.7-0.6,2.2-0.6,4.8s0.1,4.1,0.6,4.8c0.2,0.3,0.6,0.6,1.1,0.6c0.6,0,0.9-0.2,1.1-0.6 c0.2-0.3,0.3-0.9,0.3-1.5h2.3C131.7,268.8,131.2,270,130.5,270.7z" />
            <path class="st0" d="M142.9,270.6c-0.6,0.6-1.6,0.9-2.9,0.9s-2.2-0.3-2.9-0.9c-0.7-0.7-0.9-1.6-0.9-3.2h2.3c0,0.8,0.1,1.3,0.5,1.6 c0.2,0.2,0.6,0.3,1,0.3c0.6,0,0.9-0.1,1.1-0.5c0.3-0.3,0.3-0.8,0.3-1.6c0-1.6-0.2-1.9-1.4-2.4l-1.7-0.7c-1.5-0.6-2.1-1.4-2.1-3.7 c0-1.4,0.3-2.4,1.1-3.1c0.7-0.6,1.5-0.9,2.5-0.9c1.1,0,2.1,0.3,2.6,0.9c0.8,0.7,1,1.8,1,3.2h-2.3c0-0.7,0-1.1-0.3-1.6 c-0.2-0.2-0.6-0.5-1-0.5s-0.8,0.1-1,0.5c-0.2,0.3-0.3,0.8-0.3,1.5c0,1.1,0.2,1.6,1.3,1.9l1.7,0.7c1.7,0.7,2.2,1.6,2.2,4.1 C143.8,268.8,143.6,269.9,142.9,270.6z" />
            <path class="st0" d="M155,270.6c-0.6,0.6-1.6,0.9-2.9,0.9s-2.2-0.3-2.9-0.9c-0.7-0.7-0.9-1.6-0.9-3.2h2.3c0,0.8,0.1,1.3,0.5,1.6 c0.2,0.2,0.6,0.3,1,0.3c0.6,0,0.9-0.1,1.1-0.5c0.3-0.3,0.3-0.8,0.3-1.6c0-1.6-0.2-1.9-1.4-2.4l-1.7-0.7c-1.5-0.6-2.1-1.4-2.1-3.7 c0-1.4,0.3-2.4,1.1-3.1c0.7-0.6,1.5-0.9,2.5-0.9c1.1,0,2.1,0.3,2.6,0.9c0.8,0.7,1,1.8,1,3.2h-2.3c0-0.7,0-1.1-0.3-1.6 c-0.2-0.2-0.6-0.5-1-0.5s-0.8,0.1-1,0.5c-0.2,0.3-0.3,0.8-0.3,1.5c0,1.1,0.2,1.6,1.3,1.9l1.7,0.7c1.7,0.7,2.2,1.6,2.2,4.1 C156.1,268.8,155.8,269.9,155,270.6z" />
            <path class="st0" d="M174.5,270.2c-0.6,0.7-1.5,1.3-2.9,1.3h-3.8v-14.7h3.8c1.4,0,2.3,0.6,2.9,1.3c1,1.1,1,2.7,1,6.1 C175.5,267.5,175.5,269.1,174.5,270.2z M172.8,259.5c-0.2-0.3-0.6-0.6-1.1-0.6h-1.4v10.5h1.4c0.6,0,0.9-0.2,1.1-0.6 c0.5-0.7,0.5-2.2,0.5-4.7C173.2,261.6,173.2,260.1,172.8,259.5z" />
            <path class="st0" d="M180.8,271.5v-14.7h6.2v2.1h-3.9v4.1h3.3v2.1h-3.3v4.2h3.9v2.1h-6.2V271.5z" />
            <path class="st0" d="M198.2,270.6c-0.6,0.6-1.6,0.9-2.9,0.9s-2.2-0.3-2.9-0.9c-0.7-0.7-0.9-1.6-0.9-3.2h2.3c0,0.8,0.1,1.3,0.5,1.6 c0.2,0.2,0.6,0.3,1,0.3c0.6,0,0.9-0.1,1.1-0.5c0.3-0.3,0.3-0.8,0.3-1.6c0-1.6-0.2-1.9-1.4-2.4l-1.7-0.7c-1.5-0.6-2.1-1.4-2.1-3.7 c0-1.4,0.3-2.4,1.1-3.1c0.7-0.6,1.5-0.9,2.5-0.9c1.1,0,2.1,0.3,2.6,0.9c0.8,0.7,1,1.8,1,3.2h-2.3c0-0.7,0-1.1-0.3-1.6 c-0.2-0.2-0.6-0.5-1-0.5s-0.8,0.1-1,0.5c-0.2,0.3-0.3,0.8-0.3,1.5c0,1.1,0.2,1.6,1.3,1.9l1.7,0.7c1.7,0.7,2.2,1.6,2.2,4.1 C199.1,268.8,198.9,269.9,198.2,270.6z" />
            <path class="st0" d="M204.1,271.5v-14.7h2.3v14.7H204.1z" />
            <path class="st0" d="M215.6,271.6c-1.4,0-2.3-0.6-2.9-1.3c-0.9-1.1-1-2.7-1-6.3c0-3.5,0.1-5,1-6.3c0.6-0.7,1.5-1.3,2.9-1.3 c1.1,0,1.9,0.3,2.6,1c0.7,0.7,1.1,1.8,1.1,3.1h-2.3c0-0.8-0.2-1.9-1.5-1.9c-0.6,0-0.9,0.2-1.1,0.6c-0.5,0.7-0.6,2.2-0.6,4.8 s0.1,4.1,0.6,4.8c0.2,0.3,0.6,0.6,1.1,0.6c1,0,1.5-0.9,1.5-1.8v-2.3h-1.5v-1.9h3.8v4C219.4,270.2,217.8,271.6,215.6,271.6z" />
            <path class="st0" d="M230.2,271.5l-3.4-8.7v8.7h-2.3v-14.7h2.1l3.4,8.7v-8.7h2.3v14.7H230.2z" />
            <path class="st0" d="M146.7,297.8l-0.6-2.9h-3.4l-0.6,2.9h-2.4l3.7-14.7h2.3l3.5,14.7H146.7z M144.4,286.6l-1.3,6.2h2.5 L144.4,286.6z" />
            <path class="st0" d="M164,297.8h-2.4l-2.1-11.1l-2.1,11.1H155l-2.7-14.7h2.5l1.5,11.1l2.1-11.1h2.5l2.1,11.1l1.4-11.1h2.5 L164,297.8z" />
            <path class="st0" d="M176.8,297.8l-0.6-2.9h-3.4l-0.6,2.9h-2.4l3.7-14.7h2.3l3.5,14.7H176.8z M174.5,286.6l-1.3,6.2h2.5 L174.5,286.6z" />
            <path class="st0" d="M189.2,297.8l-1.9-6.1h-1.3v6.1h-2.3v-14.7h3.7c2.6,0,3.8,1.3,3.8,4.3c0,1.8-0.3,3.1-1.7,3.8l2.2,6.5H189.2z M187.3,285.2h-1.4v4.5h1.4c1.3,0,1.4-1,1.4-2.3C188.8,286.2,188.6,285.2,187.3,285.2z" />
            <path class="st0" d="M203.1,296.5c-0.6,0.7-1.5,1.3-2.9,1.3h-3.8v-14.7h3.8c1.4,0,2.3,0.6,2.9,1.3c1,1.1,1,2.7,1,6.1 S204.1,295.4,203.1,296.5z M201.4,285.8c-0.2-0.3-0.6-0.6-1.1-0.6h-1.4v10.5h1.4c0.6,0,0.9-0.2,1.1-0.6c0.5-0.7,0.5-2.2,0.5-4.7 C201.9,288,201.9,286.5,201.4,285.8z" />
            <path class="st0" d="M215.5,296.9c-0.6,0.6-1.6,0.9-2.9,0.9s-2.2-0.3-2.9-0.9c-0.7-0.7-0.9-1.6-0.9-3.2h2.3c0,0.8,0.1,1.3,0.5,1.6 c0.2,0.2,0.6,0.3,1,0.3c0.6,0,0.9-0.1,1.1-0.5c0.3-0.3,0.3-0.8,0.3-1.6c0-1.6-0.2-1.9-1.4-2.4l-1.7-0.7c-1.5-0.6-2.1-1.4-2.1-3.7 c0-1.4,0.3-2.4,1.1-3.1c0.7-0.6,1.5-0.9,2.5-0.9c1.1,0,2.1,0.3,2.6,0.9c0.8,0.7,1,1.8,1,3.2H214c0-0.7,0-1.1-0.3-1.6 c-0.2-0.2-0.6-0.5-1-0.5s-0.8,0.1-1,0.5c-0.2,0.3-0.3,0.8-0.3,1.5c0,1.1,0.2,1.6,1.3,1.9l1.7,0.7c1.7,0.7,2.2,1.6,2.2,4.1 C216.5,295.2,216.3,296.2,215.5,296.9z" />
        </g>
    </symbol>
    <symbol viewBox="0 0 360 360" id="award-designlicks">
        <style>
        .st0 {
            fill: #4d84f1
        }
        </style>
        <path class="st0" d="M253.8,235.3c0,0,37.9-19.1,49.2-85.1c7-41-10.9-72.7-19.5-82.4c-15-16.7-41.8-15-44.8,9.2 C232.8,130.8,310.2,124.1,253.8,235.3z" />
        <path class="st0" d="M59,293.2c0,0-21.2-47.1,39.5-90.6c22.8-16,25.2-26.8,28.2-35.5c11,13.2,4.7,33-6.8,47.8 c0,0,80.3-19.8,73.1-72.5c-2.6-19.5-30.4-21.8-31.3-21.5c35.3-24.9,88,2.7,91,49.8c3,46.4-25.9,71.4-25.2,76.1 c0,6.5,27.8,5.8,39.3,32.9c-25.2-10.8-70.7-13.5-99-0.8c-46.7,20.9-110.2,24.2-110.2,24.2s4-7.5,14.2-15.3 c19.2-13.5,82.3-32.5,97.3-42.8c15-10.3,29.2-24.3,33.7-34.2c4.4-9.8,4.2-12.2,3.8-13c-0.3-0.8-1-1.8-2.2-0.8 c-1.2,1.1-6.7,13.2-28,26.5c-15.4,9.7-46.4,21.7-58,26.7C102.6,257.1,80.5,268.5,59,293.2z" />
    </symbol>
    <symbol viewBox="0 0 360 360" id="award-dev">
        <style>
        .st0 {
            fill: #4d84f1
        }
        </style>
        <polygon class="st0" points="91.7,124.9 89.1,121.2 93.7,118 92.2,115.9 87.6,119.1 85.1,115.6 90.8,111.6 89.3,109.4 81.2,115.2 90.7,128.8 99.2,122.8 97.7,120.7" />
        <path class="st0" d="M103.9,102.4l0.9,11.4c0.1,1,0.4,2.5,0.4,2.5l0,0c0,0-0.9-1.2-1.5-2l-7.7-8.5l-3,1.3l12.2,12.9l2.8-1.2 l-1-17.7L103.9,102.4z" />
        <polygon class="st0" points="124.2,111.7 117,113.2 116.1,108.8 121.6,107.7 121.1,105.1 115.6,106.3 114.7,102 121.5,100.6 120.9,98 111.2,100.1 114.6,116.4 124.7,114.3" />
        <polygon class="st0" points="131.3,111.4 131.2,97.4 128.2,97.4 128.3,114 138.5,114 138.5,111.4" />
        <path class="st0" d="M151.6,99.2c-4.8-1.1-9.2,1.7-10.3,6.3c-1.1,4.8,1.6,9.3,6.4,10.4c4.8,1.1,9.3-1.8,10.4-6.5 C159.2,104.8,156.4,100.3,151.6,99.2z M155.1,108.7c-0.8,3.3-3.7,5.3-6.7,4.6c-3-0.7-4.8-3.7-4-7c0.7-3.2,3.7-5,6.6-4.3 C154,102.6,155.8,105.5,155.1,108.7z" />
        <path class="st0" d="M173.9,114.2c1.5-2.9,0.5-5.8-2.3-7.2l-5.7-2.9l-7.6,14.8l2.7,1.4l2.6-5.1l3,1.5 C169.4,118.1,172.4,117.1,173.9,114.2z M171.1,112.8c-0.8,1.5-2.2,2.1-3.8,1.3l-2.5-1.3l2.6-5.1l2.6,1.3 C171.5,109.9,171.9,111.3,171.1,112.8z" />
        <polygon class="st0" points="176.5,121.3 180.9,124.8 182.5,122.7 178.1,119.3 180.7,115.8 186.2,120.1 187.8,118 179.9,111.9 169.8,125.1 177.9,131.4 179.5,129.4 173.7,124.9" />
        <path class="st0" d="M196.4,127l-3.4-4.1l-12.8,10.7l1.9,2.3l4.8-4l1.9,2.2l-2.7,6.5l2.2,2.6l2.6-6.6c0.2-0.6,0.3-1,0.3-1l0,0 c1.7,0.9,3.8,0.5,5.3-0.8c1.7-1.4,2.2-3.2,1.7-5C198,129.1,197.5,128.4,196.4,127z M194.3,132.6c-1.3,1.1-2.7,0.9-3.7-0.3l-1.7-2.1 l4-3.3l1.5,1.8C195.9,130.4,195.5,131.6,194.3,132.6z" />
        <polygon class="st0" points="148.1,131.3 145.2,132.9 142.3,131.3 142.8,134.6 140.5,136.9 143.7,137.4 145.2,140.3 146.7,137.4 149.9,136.9 147.6,134.6" />
        <polygon class="st0" points="135.5,128.8 132.6,130.3 129.7,128.7 130.2,132 127.8,134.3 131.1,134.8 132.6,137.7 134,134.8 137.3,134.3 134.9,132" />
        <polygon class="st0" points="123.5,131.6 120.5,133.1 117.6,131.6 118.2,134.8 115.8,137.1 119.1,137.6 120.5,140.6 122,137.6 125.2,137.1 122.9,134.8" />
        <path class="st0" d="M321.9,97.7c-5.8-6-13.1-10-20.6-11.2c-8.6-1.3-17.4,0.9-25.4,6.6c-5.4,3.8-10.7,8.5-13.5,11.1 c-0.4,0.3-0.7,0.6-1,0.9c-3.5-6.3-8.7-11.7-15.4-15.7c-7.4-4.4-16-7-24.9-7.4l-0.6-14l-26.3,0l-1.9-40.4l-35-16.2l-52.2,22 L92.9,67.9l-49,0l-4.3,94.3l-23.2,0v51.3h0l0,0l20.2,12.5L36,239.2l0,0.9l11.1,6.8c-4.4,5.2-7.2,11.3-8.1,17.9 c-1.3,10.4,2.6,20.1,10.6,26.7c13.7,11.3,43.9,10.8,66.1,10.5c7.3-0.1,13.6-0.2,18,0.1c18.1,1.5,21.4,8.1,22.3,15.1 c0.5,4.4-0.6,8.4-3.4,11.4c-3.1,3.4-8,5.4-13,5.2c-5.9-0.2-8.3-3.2-9.1-5c-1.2-2.6-1-5.6,0.6-7.8c2-2.6,4.2-2.7,6.5-2.8 c0.4,0,0.8,0,1.1-0.1c2.4-0.2,4.5-0.6,5.2-4.2c0.6-2.9-1.6-5.4-5.3-6.2c-5.1-1.1-12.4-0.8-18.4,6.6c-3.3,4-4.7,9.5-4,15.1 c0.8,5.9,4,11.1,9,14.6c4.4,3.1,9.3,4.6,14.5,4.6c4.3,0,8.8-1.1,13.1-3.2c10.8-5.3,18-16,18.4-27c0.5-14-8.4-25.3-22.7-29.7 l24.7-15.1c0,1.3,0,2.6,0.1,3.8c0.1,5.4,0.1,11,0.6,16.4c0.9,11,5.7,19.8,13.8,25.5c5.9,4.2,13.2,6.4,20.9,6.4 c3.5,0,7.2-0.4,10.8-1.4c9.9-2.5,18-9.6,21.7-18.9c3.3-8.5,2.4-17.4-2.7-25.1c-5.8-8.8-16.9-13-27.1-10.2 c-6.4,1.8-10.7,4.8-13.6,9.7c-1.6,2.7-2.2,5.6-1.5,8c0.4,1.4,1.1,2.4,2.1,2.9c1.4,0.8,2.8,0.9,4.3,0.5c1.7-0.5,3.3-1.9,4.4-4 c1.8-3.4,5.3-5.2,9.3-4.9c4.5,0.3,8.3,3.2,9.7,7.2c1.4,3.8,1.1,7.7-0.7,11.1c-2.1,3.9-6.1,6.8-10.9,8c-8,2-16.3-0.8-20.2-6.7 c-3.2-4.9-3.3-15.2-3.3-23.4c0-1.7,0-3.3,0-4.8c-0.1-3.7-0.1-7.3-0.2-11l32.4-19.8c1,8.4,4.5,16.2,10.5,22.4 c7.3,7.6,18,11.8,29.1,11.8c3.7,0,7.5-0.5,11.1-1.4c13.5-3.5,23.5-13.1,26.7-25.6c2.1-8.2,0.9-16.3-3.5-22.8 c-4.4-6.4-11.4-10.7-19.3-11.6c-16.7-2-25.7,9.2-26.9,13.3c-0.8,2.6-0.2,4.7,1.7,6.2c2,1.6,5,1.6,7.4,0c0.6-0.4,1.3-0.9,1.9-1.4 c2.7-2.1,5.9-4.4,10.9-4c4.6,0.3,8.5,3.3,10.1,7.7c1.8,5.1,0.2,10.7-4.2,15c-4.4,4.2-11.1,6.4-17.6,5.9c-5.7-0.5-10.6-3.2-13.8-7.5 c-7.7-10.4-4.9-22.6,8.2-36.3c12.3-12.7,34.5-35.7,47.7-49.4c6.2-6.4,10.6-10.9,11.2-11.5c0.4-0.5,1-1,1.6-1.6 c2.7-2.7,6.9-6.9,11.8-13.3C337.6,126.3,332.3,108.6,321.9,97.7z M138.4,309.4C138.4,309.4,138.4,309.4,138.4,309.4 c2.4,0.5,4.6,2,4.1,4.3c-0.5,2.4-1.6,2.8-3.8,2.9c-0.1,0-0.2,0-0.3,0V309.4z M132.6,309.1c1.8-0.2,3.5-0.1,5,0.2v7.5c0,0,0,0,0,0 c-1.6,0.1-3.3,0.1-5,1V309.1z M120.3,336.4c-1.2-2.2-2.1-4.6-2.4-7.1c-0.6-4.4,0.3-8.7,2.4-12.2V336.4z M126,342.7 c-2-1.4-3.6-3.1-4.9-5V316c0.1-0.2,0.3-0.4,0.4-0.5c1.4-1.8,2.9-3.1,4.5-4V342.7z M131.8,345.8c-1.7-0.6-3.4-1.5-5-2.5v-32.3 c1.7-0.9,3.4-1.5,5-1.7v9c-0.7,0.5-1.3,1.1-1.9,1.9c-2,2.6-2.3,6.3-0.8,9.4c0.6,1.3,1.6,2.5,2.7,3.4V345.8z M264,116.4 c3.5,16.2-4.5,31-15.3,45.7l-23.8,0l-0.2-4.4c2.4-3.3,4.8-6.7,7.1-10.1c5.8-8.6,11.3-18.8,3.8-30.3c-3.2-4.9-7.9-7.7-13.1-8.8 l-1.2-25.1C240.2,84.5,259.5,95.3,264,116.4z M265.9,129.7c0.1,0,0.1-0.1,0.2-0.1c0.1-0.1,13.2-12.6,17.2-15.8 c7-5.6,13.9-5.5,19.5,0.1c4.3,4.3,7.7,11.4-0.4,20.3c-3.2,3.5-7.2,7.7-12,12.3c-3.5,3.4-24.1,24.8-40.5,43v-26.4 C256.9,153.7,264.1,142.1,265.9,129.7z M201.1,184.1c0-3.1,2.7-5.5,6.3-5.5c3.7,0,5.6,2,5.6,2l-1.5,2.8c0,0-1.8-1.7-4.2-1.7 c-1.6,0-2.8,0.9-2.8,2.3c0,3.4,8.9,2.6,8.9,8.6c0,3-2.3,5.5-6.2,5.5c-4.2,0-6.5-2.6-6.5-2.6l1.9-2.6c0,0,2,2,4.7,2 c1.4,0,2.7-0.7,2.7-2.3C210,189.4,201.1,189.9,201.1,184.1z M48.9,162.2L53,77.4h158.4l4.2,84.8L48.9,162.2z M196.4,188.4 c0,6-3.8,9.5-9.7,9.4l-6.4,0l0.1-18.9l6.4,0C192.7,178.9,196.4,182.4,196.4,188.4z M170.6,190.7l3.9,7.1l-3.8,0l-3.7-7.1l-3.3,0 l0,7l-3.4,0l0.1-18.9l6.1,0c2,0,3,0.2,3.8,0.5c1.9,0.9,3.1,2.7,3.1,5.2c0,2.3-1.2,4.3-3.2,5.2v0C170,189.8,170.3,190,170.6,190.7z M155.1,197.7l-3.5,0l-1.6-4.8l-6.6,0l-1.6,4.8l-3.5,0l6.7-18.9l3.6,0L155.1,197.7z M95.1,181.9l2.2,9.8c0.2,1.1,0.3,2,0.3,2h0.1 c0,0,0.1-0.9,0.4-2l3.4-13.1l3,0l3.3,13.1c0.3,1.1,0.3,2,0.3,2h0c0,0,0.1-0.9,0.3-2l3.2-13.1l3.5,0l-4.9,18.9l-4,0l-2.9-11.2 c-0.3-1.2-0.5-2.5-0.5-2.5h0c0,0-0.2,1.3-0.5,2.5l-2.9,11.2l-4,0l-2.1-8.5L95.1,181.9z M88.9,197.5l-4,0l-2.9-11.2 c-0.3-1.2-0.5-2.5-0.5-2.5l0,0c0,0-0.2,1.3-0.5,2.5l-2.9,11.2l-4,0l-4.7-18.9l3.5,0l2.9,13.1c0.2,1.1,0.3,2,0.3,2h0.1 c0,0,0.1-0.9,0.3-2l3.4-13.1l3,0l3.3,13.1c0.3,1.1,0.3,2,0.3,2l0,0c0,0,0.1-0.9,0.3-2l3.2-13.1l3.5,0L88.9,197.5z M116.4,181.9 l2.2,9.8c0.2,1.1,0.3,2,0.3,2l0,0c0,0,0.1-0.9,0.4-2l3.5-13.1l3,0l3.3,13.1c0.3,1.1,0.3,2,0.3,2l0.1,0c0,0,0.1-0.9,0.3-2l3.1-13.1 l3.5,0l-4.9,18.9l-4,0l-2.9-11.2c-0.3-1.2-0.5-2.5-0.5-2.5l-0.1,0c0,0-0.2,1.2-0.5,2.5l-2.9,11.2l-4,0l-2.1-8.5L116.4,181.9z M67.7,197.4l-3.5,0l-1.6-4.8l-6.6,0l-1.6,4.8l-3.5,0l6.7-18.9l3.6,0L67.7,197.4z M218.2,213.7l1.1,21.8L132.6,288l-87.3-52.5 l1.1-21.9L218.2,213.7z M217.7,182.3c0-1.8,1.4-3.3,3.2-3.3c1.8,0,3.2,1.5,3.2,3.3c0,1.8-1.4,3.3-3.2,3.3 C219.1,185.6,217.7,184.1,217.7,182.3z M222.5,110.2c4.7,1.2,8.8,3.7,11.7,8.1c6.3,9.7,3.3,18.1-3.8,28.6c-1.9,2.8-3.9,5.6-5.9,8.4 L222.5,110.2z M157.9,13.2l32.9,15.3l1.8,39.4l-39.7,0l-11.7-30.3L157.9,13.2z M151.3,67.8l-5.4,0v-14L151.3,67.8z M145.2,51.9v16 l-4.9,0V39.2L145.2,51.9z M155.8,13.6l-15.7,22.9l-30.6-3.4L155.8,13.6z M139.5,38v29.8l-4.9,0V37.5L139.5,38z M133.8,37.4v30.4 l-4.9,0v-31L133.8,37.4z M128.1,36.8v31.1l-4.9,0V36.2L128.1,36.8z M122.4,36.1v31.7l-4.9,0V35.6L122.4,36.1z M116.8,35.5v32.3 l-4.9,0V35L116.8,35.5z M106.4,34.4l0.1-0.1l4.6,0.5v33l-4.9,0l0-32.8L106.4,34.4z M100.5,51.1l4.9-13.9v30.6l-4.9,0V51.1z M99.7,53.4v14.5l-5.1,0L99.7,53.4z M46.9,71l87-0.1l83.6,0.1l4.2,91.1l-4.5,0L213,76.5l0-0.7H51.6l-4.2,86.4l-4.6,0L46.9,71z M43.1,280.8c-2.3-4.8-3.2-10.2-2.5-15.9c0.4-3.1,1.3-6.1,2.5-9V280.8z M48.5,288.4c-1.8-1.8-3.3-3.9-4.6-6v-27.9 c1.2-2.4,2.8-4.6,4.6-6.7l0,0V288.4z M50.6,290.3c-0.5-0.4-0.9-0.8-1.3-1.2v-40.9l4.7,2.9l0,41.6C52.7,291.9,51.6,291.2,50.6,290.3 z M59.2,295.2c-1.6-0.6-3.1-1.3-4.5-2.1v-41.6l4.5,2.7v4.5c-1.2,2.1-2,4.4-2.2,6.9c-0.3,3.4,0.5,6.7,2.2,9.5V295.2z M64.9,297.1 c-1.7-0.5-3.4-1-5-1.6v-19.2c1.2,1.6,2.7,3,4.4,3.9c0.2,0.1,0.4,0.2,0.6,0.3V297.1z M58.5,265.7c0.3-3.4,1.8-6.6,4.3-9.2l46.7,28.5 c-1.5-0.1-3-0.1-4.4-0.2c-9.3-0.3-18.2-0.7-24.4-1.4c-7.2-0.8-11-2-15.7-4.6C60.7,276.4,58.1,271.1,58.5,265.7z M59.9,257.5v-2.8 l1.5,0.9C60.9,256.2,60.4,256.9,59.9,257.5z M70.5,298.3c-1.6-0.3-3.2-0.7-4.8-1v-16.3c1.6,0.8,3.1,1.5,4.8,2V298.3z M76.2,299.2 c-1.7-0.2-3.3-0.5-4.9-0.7v-15.2c1.5,0.4,3.1,0.8,4.9,1.1V299.2z M81.7,299.8c-1.6-0.1-3.1-0.3-4.7-0.5v-14.8 c1.1,0.2,2.3,0.3,3.6,0.5c0.4,0,0.7,0.1,1.1,0.1V299.8z M87.1,300.2c-1.6-0.1-3.1-0.2-4.7-0.3v-14.7c1.5,0.1,3,0.3,4.7,0.4V300.2z M92.8,300.4c-1.6-0.1-3.3-0.1-4.9-0.2v-14.6c1.6,0.1,3.2,0.2,4.9,0.3V300.4z M98.5,300.5c-1.6,0-3.3,0-4.9-0.1v-14.5 c1.6,0.1,3.2,0.1,4.9,0.2V300.5z M104.2,300.6c-1.6,0-3.3,0-4.9,0v-14.4c1.6,0.1,3.2,0.1,4.9,0.2V300.6z M109.8,300.5 c-1.6,0-3.2,0-4.9,0v-14.2c0,0,0.1,0,0.1,0c1.6,0.1,3.2,0.1,4.8,0.2V300.5z M115.5,300.4c-1.6,0-3.2,0.1-4.9,0.1v-13.9 c0.5,0,1.1,0,1.6,0.1l3.3,2V300.4z M120.3,300.3c-1.3,0-2.6,0-4,0.1v-11.3l4,2.5V300.3z M126,300.3c-1.5,0-3.2,0-4.9,0v-8.3l4.9,3 V300.3z M131.8,300.4c-1.5-0.1-3.2-0.1-5-0.1v-4.8l5,3.1V300.4z M137.6,301c-1.2-0.2-2.5-0.3-3.8-0.4c-0.4,0-0.8-0.1-1.2-0.1v-1.8 l5-3.1V301z M143.4,302.1c-1.5-0.4-3.2-0.8-5-1v-6l5-3.1V302.1z M137.6,347.1c-1.7-0.2-3.4-0.5-5-1v-12.6c1.4,0.9,3.1,1.5,5,1.8 V347.1z M143.4,346.9c-1.7,0.2-3.4,0.3-5,0.2v-11.8c0.4,0,0.8,0.1,1.2,0.1c1.3,0,2.6-0.1,3.8-0.3V346.9z M149.2,345.5 c-1.7,0.6-3.3,1.1-5,1.4V335c1.8-0.4,3.5-1,5-1.8V345.5z M155,342.6c-0.9,0.5-1.8,1.1-2.7,1.5c-0.8,0.4-1.5,0.7-2.3,1v-12.4 c1.4-0.8,2.7-1.9,3.8-3.1c0.5-0.5,0.9-1,1.2-1.6V342.6z M167.3,305.8c1.8,3.8,2.6,8,2.5,12.6c-0.1,3.5-1,7-2.5,10.2V305.8z M161.5,297.8c2,1.9,3.7,4.1,5,6.5v26c-1.3,2.5-3,4.9-5,7V297.8z M155.7,293.5c1.8,1,3.5,2.2,5,3.6v41c-1.5,1.5-3.2,2.8-5,4v-15.3 c1.6-2.8,2.2-6.2,1.7-9.8c-0.3-2.3-0.8-4.3-1.7-6.1V293.5z M149.9,290.8c1.8,0.6,3.4,1.4,5,2.2v16.5c-1.2-1.9-2.9-3.5-5-4.8V290.8z M149.2,290.6v13.7c-1.5-0.8-3.1-1.5-5-2v-10.7l2.7-1.7C147.6,290.1,148.4,290.3,149.2,290.6z M193,303.2 c4.2,6.4,13.2,9.4,21.8,7.3c5.2-1.3,9.5-4.5,11.9-8.8c2-3.8,2.3-8.2,0.8-12.4c-1.7-4.6-6-7.9-11.1-8.3c-4.6-0.3-8.6,1.8-10.8,5.8 c-0.9,1.7-2.1,2.8-3.5,3.2c-1,0.3-2.1,0.2-3.1-0.4c-0.6-0.3-1-1-1.3-2c-0.5-2,0-4.5,1.4-6.8c2.8-4.6,6.7-7.4,12.7-9 c9.6-2.6,20,1.3,25.4,9.6c4.8,7.2,5.6,15.6,2.5,23.6c-3.4,8.7-11.3,15.6-20.6,18c-11.2,2.8-22.3,1.1-30.5-4.8 c-7.7-5.5-12.2-13.9-13.1-24.4c-0.5-5.4-0.5-10.9-0.6-16.3c0-1.6,0-3.2-0.1-4.8l14.3-8.7c0,3.3,0.1,6.7,0.1,10.1c0,1.5,0,3.1,0,4.8 C189.4,287.8,189.5,297.9,193,303.2z M132.2,295.2l-93-56.8l1.1-22.9l-8.8-1l-0.1-0.9l13.4-0.1l-1.1,22.3l0,0.5l88.9,53.4 l87.8-53.2l0.4-0.2l-1.1-22.7l13.1,0.1l-0.1,0.9l-8.6,1l1,22.7L132.2,295.2z M326.5,138.2c-4.9,6.4-9,10.5-11.7,13.2 c-0.6,0.6-1.1,1.1-1.6,1.6c-0.6,0.6-4.9,5.1-11.2,11.5c-13.3,13.7-35.5,36.7-47.7,49.4c-13.8,14.3-16.6,27.1-8.3,38.3 c3.5,4.7,8.8,7.6,14.9,8.1c6.9,0.6,14.1-1.8,18.8-6.3c4.9-4.7,6.7-10.9,4.6-16.6c-1.8-5-6.2-8.4-11.4-8.8 c-5.6-0.4-9.1,2.2-11.9,4.3c-0.6,0.5-1.2,0.9-1.8,1.3c-1.9,1.3-4.1,1.3-5.6,0.1c-1.4-1.1-1.8-2.6-1.2-4.6 c1.3-4.3,10.4-14,25.2-12.2c7.5,0.9,14.1,4.9,18.2,10.9c4.2,6.1,5.3,13.7,3.3,21.5c-3.2,12.1-12.5,21.1-25.6,24.5 c-14.1,3.7-29.3-0.2-38.7-9.9c-5.9-6.1-9.3-13.9-10.1-22.2l3.8-2.3l-0.6-12.3l22.1-14.1l-0.1-0.1v-21.7 c16.6-18.4,38-40.7,41.6-44.2c4.8-4.7,8.9-8.8,12.1-12.4c6.9-7.7,7-15.7,0.3-22.5c-6.1-6.2-14-6.3-21.6-0.3 c-3.4,2.7-12.8,11.6-16.1,14.8c0.3-3.7,0.2-7.4-0.7-11.2c-0.7-3.4-1.9-6.6-3.4-9.6c0.3-0.3,0.8-0.7,1.2-1.1 c2.8-2.5,8-7.2,13.3-10.9c17.5-12.3,34.2-5.8,44,4.4C330.7,109.2,335.9,126,326.5,138.2z" />
        <path class="st0" d="M82.4,124.7c-3.9-3.5-8.4-3.1-11.9,0.7l-3.8,4.2l12.4,11.1l3.8-4.2C86.3,132.7,86.3,128.2,82.4,124.7z M80.9,134.9l-1.7,1.8l-8.5-7.7l1.7-1.8c2.2-2.5,5.2-2.8,7.9-0.3C83.1,129.5,83.1,132.4,80.9,134.9z" />
        <path class="st0" d="M149.1,190l-1.7-5.1c-0.3-1.1-0.7-2.9-0.7-2.9l0,0c0,0-0.4,1.9-0.8,2.9l-1.7,5L149.1,190z" />
        <path class="st0" d="M183.8,181.9l0,13l2.8,0c3.8,0,6.3-2.2,6.3-6.5c0-4.2-2.5-6.5-6.2-6.5L183.8,181.9z" />
        <path class="st0" d="M166.3,181.8l-2.6,0l0,5.9l3.1,0c1.8,0,3-1.1,3-3C169.7,182.9,168.9,181.8,166.3,181.8z" />
        <path class="st0" d="M223.7,182.3c0-1.6-1.2-2.9-2.8-2.9c-1.6,0-2.8,1.3-2.8,2.9c0,1.7,1.2,2.9,2.8,2.9 C222.5,185.2,223.7,183.9,223.7,182.3z M221.8,184.1l-0.8-1.5h-0.8l0,1.5h-0.4l0-3.6l1.2,0c0.6,0,1.1,0.4,1.1,1.1 c0,0.5-0.3,0.9-0.7,1l0,0c0,0,0,0.1,0.1,0.2l0.7,1.4H221.8z" />
        <path class="st0" d="M221.7,181.5c0-0.4-0.3-0.7-0.7-0.7l-0.8,0l0,1.4l0.8,0C221.4,182.2,221.7,182,221.7,181.5z" />
        <path class="st0" d="M61.8,189.7l-1.7-5.1c-0.3-1.1-0.7-2.9-0.7-2.9h-0.1c0,0-0.4,1.9-0.8,2.9l-1.7,5L61.8,189.7z" />
        <path class="st0" d="M91.3,241.7h2.1l0.3,1.2h1.5l-2-6.9h-1.7l-2,6.9h1.5L91.3,241.7z M92.3,237.4l0.8,3h-1.6L92.3,237.4z" />
        <polygon class="st0" points="99,242.9 99.9,238.3 100.8,242.9 102.2,242.9 103.8,236 102.3,236 101.4,240.8 100.4,236 99.3,236 98.4,240.8 97.5,236 96,236 97.6,242.9" />
        <polygon class="st0" points="107.9,242.9 108.8,238.3 109.7,242.9 111.1,242.9 112.7,236 111.2,236 110.4,240.8 109.4,236 108.3,236 107.3,240.8 106.4,236 104.9,236 106.5,242.9" />
        <polygon class="st0" points="116.9,242.9 117.8,238.3 118.6,242.9 120.1,242.9 121.7,236 120.2,236 119.3,240.8 118.3,236 117.2,236 116.2,240.8 115.4,236 113.9,236 115.4,242.9" />
        <path class="st0" d="M124.3,241.7h2.1l0.3,1.2h1.5l-2-6.9h-1.7l-2,6.9h1.5L124.3,241.7z M125.3,237.4l0.8,3h-1.6L125.3,237.4z" />
        <path class="st0" d="M131.2,240.4h0.7l1.1,2.5h1.5l-1.2-2.7c0.6-0.2,1.2-0.8,1.2-2c0-1.3-0.8-2.2-2.1-2.2h-2.6v6.9h1.4V240.4z M131.2,237.2h1c0.5,0,0.9,0.4,0.9,1c0,0.6-0.4,1-0.9,1h-1V237.2z" />
        <path class="st0" d="M141.7,239.4c0-2-1.1-3.4-3-3.4h-2.2v6.9h2.2C140.7,242.9,141.7,241.5,141.7,239.4z M137.9,237.2h0.8 c1,0,1.6,0.9,1.6,2.2c0,1.3-0.6,2.2-1.6,2.2h-0.8V237.2z" />
        <path class="st0" d="M145.6,241.8c-0.7,0-1.3-0.3-1.7-0.7l-0.7,1.1c0.5,0.5,1.3,0.9,2.4,0.9c1.5,0,2.3-0.9,2.3-2.1 c0-2.3-3.1-2-3.1-3.1c0-0.4,0.3-0.7,0.8-0.7c0.5,0,1.1,0.2,1.5,0.6l0.7-1c-0.5-0.5-1.2-0.8-2.1-0.8c-1.4,0-2.3,0.9-2.3,2 c0,2.3,3.1,1.9,3.1,3.1C146.6,241.4,146.2,241.8,145.6,241.8z" />
        <path class="st0" d="M150.6,243c0.4,0,0.8-0.4,0.8-0.8c0-0.4-0.4-0.8-0.8-0.8c-0.4,0-0.8,0.4-0.8,0.8 C149.8,242.6,150.2,243,150.6,243z" />
        <path class="st0" d="M156.2,243c1.3,0,2-0.9,2.3-1.7l-1.1-0.5c-0.2,0.6-0.6,1-1.2,1c-0.9,0-1.5-1-1.5-2.3c0-1.4,0.6-2.3,1.5-2.3 c0.5,0,0.9,0.4,1.2,0.9l1.1-0.5c-0.4-0.8-1-1.6-2.3-1.6c-1.8,0-2.9,1.5-2.9,3.6C153.2,241.5,154.4,243,156.2,243z" />
        <path class="st0" d="M162.9,243c1.8,0,2.9-1.5,2.9-3.6c0-2-1.1-3.6-2.9-3.6c-1.8,0-2.9,1.5-2.9,3.6C160,241.5,161.1,243,162.9,243z M162.9,237.1c0.9,0,1.5,1,1.5,2.3c0,1.3-0.5,2.3-1.5,2.3c-0.9,0-1.4-1-1.4-2.3C161.5,238.1,162,237.1,162.9,237.1z" />
        <polygon class="st0" points="169.1,238.4 170.7,242.9 171.2,242.9 172.7,238.4 172.7,242.9 174.1,242.9 174.1,236 172.3,236 170.9,239.8 169.6,236 167.8,236 167.8,242.9 169.1,242.9" />
    </symbol>
    <symbol viewBox="0 0 360 360" id="award-fdi">
        <style>
        .st0 {
            fill: #4d84f1
        }
        </style>
        <path class="st0" d="M147.2,133c0.4,0,0.8,0,1.1,0c12.2,0,24.4-0.1,36.6,0c8.8,0.1,17.3,1.5,25.4,5.1c5.1,2.3,9.7,5.2,13.6,9.1 c5.8,5.8,9.6,12.7,11.3,20.7c2,8.9,1.8,17.7-0.9,26.5c-3.4,11-10.1,19.3-20.1,25.1c-5.9,3.4-12.3,5.5-19,6.6c-4.2,0.7-8.4,1-12.7,1 c-11.4,0-22.9,0-34.3,0c-0.4,0-0.8,0-1.2,0C147.2,195.7,147.2,164.4,147.2,133z M173.3,203.9c0.4,0,0.7,0,1.1,0c2.9,0,5.8,0,8.7,0 c1.7,0,3.4-0.1,5.2-0.2c3.5-0.3,6.8-1.2,10-2.9c5.7-3,9.5-7.6,10.9-14c0.9-4,1-8,0.3-12c-1-6.1-4.1-10.9-9.3-14.3 c-4.5-2.9-9.4-4.1-14.7-4.3c-3.8-0.1-7.5,0-11.3-0.1c-0.3,0-0.6,0-0.9,0C173.3,172.1,173.3,187.9,173.3,203.9z" />
        <path class="st0" d="M130.6,171.6c0,7.3,0,14.5,0,21.8c-14.8,0-29.6,0-44.4,0c0,11.2,0,22.4,0,33.5c-8.7,0-17.4,0-26.1,0 c0-31.3,0-62.6,0-94c25.1,0,50.1,0,75.1,0c0.2,0.7,0.2,21.7,0,22.8c-16.3,0-32.6,0-49,0c0,5.3,0,10.5,0,15.8 C101,171.6,115.7,171.6,130.6,171.6z" />
        <path class="st0" d="M254.9,227c-6.9,0-13.7,0-20.5,0c0-0.1-0.1-0.1-0.1-0.1c0,0,0-0.1,0-0.1c0.1-0.2,0.2-0.5,0.3-0.7 c14.8-31,29.7-62.1,44.6-93.1c6.9,0,13.8,0,20.8,0C284.9,164.4,269.9,195.7,254.9,227z" />
    </symbol>
    <symbol viewBox="0 0 360 360" id="award-hm">
        <style>
        .st0 {
            fill: #4d84f1
        }
        </style>
        <path class="st0" d="M359.6,0.9L359.4,0l-32.1,21.4c1.4-4.8,0-9.2-0.1-9.4l-0.3-0.9l-24.6,20.8c0.1-2.3,0.4-7.1,1.1-16 c0.6-7.7-4.9-8.5-5-8.5l-0.6-0.1l-8.5,35.6l-19.7,16.6l-19.7-16.6l-8.5-35.6l-0.6,0.1c-0.1,0-5.6,0.8-5,8.5 c0.7,8.9,0.9,13.7,1.1,16L212.3,11L212,12c-0.1,0.3-1.5,4.6-0.1,9.4L179.8,0l-0.2,0.9c0,0.1-2.3,8.8,5.2,14.7 c16,12.6,66,47.3,70.7,50.6l-6.2,2.9l-20.4-14.6l-0.3,0.8c-0.2,0.5-4.3,12.2,1.9,17.4c4.6,3.8,12,9.4,13.2,10.4l1.8,12.3l-0.2,0 l-1,48.2l-51,12.1l4-34.9l-29.4,8.8l-58.5-31.8L51,129.7l-29.4-8.8l7.3,63.6l-16.3,0v44.5H13l-0.1,0.2l22.8,12.7l1.7,14.3 l72.2,43.9l9.3-5.6l-3.7,57.8l7.6,3.9l4.2-2.1l-0.1-4.8l12.7-49l12.1-25.4l12.8-7.6c-4.4,6.5-9.1,10.6-9.2,10.6l-0.3,0.3l15.2,70.7 l8.4,2.6l3.8-2.5l-1.6-4.7l-3.6-56.9c3.3-2.2,29.6-20.4,36.7-42.5l6,43.5l5.8,67.5l0,0.3l6.1,3.7l6.5-3.7l4-67.9l4.8-45.6h16.5 l4.2,45.5l2.6,59.4l6.4,3.6l5.9-3.6l4.9-59.3l8.4-62.6l0.2-0.2L295,166l-0.1-22.8l-0.2,0.2L294,95.5l-0.1,0l1.8-12.3 c1.5-1.1,8.7-6.6,13.2-10.3c6.2-5.2,2.1-16.9,1.9-17.4l-0.3-0.8L290,69.2l-6.2-2.9c5-3.4,54.7-38.1,70.7-50.6 C362,9.7,359.7,1,359.6,0.9z M298.8,8.8c1.2,0.4,3.6,1.9,3.2,6.9c-0.8,11-1.1,15.8-1.1,17.3l-9.9,8.4L298.8,8.8z M269.5,61.1 L269.5,61.1L269.5,61.1L269.5,61.1l0.2,0l0,0l0,0h0.1l10.1,4.8c0,0,0,0,0,0.1l0,0l-0.2,1.8c-1,4.6-5.1,8.1-10.1,8.1 c-4.6,0-8.5-3-9.8-7.2l-0.3-2.7l-0.2,0c0,0,0-0.1,0-0.1L269.5,61.1L269.5,61.1z M269.7,108.6l-5.1,7.1l-4.4-43.4 c2.1,2.9,5.6,4.9,9.4,4.9c4,0,7.5-2,9.6-5.1l-4.6,43.5L269.7,108.6z M274,117l-4.3,3.1l-4.4-3.1l4.4-6.1L274,117z M240.4,8.8 l7.8,32.6l-9.9-8.4c-0.1-1.5-0.3-6.3-1.1-17.3C236.8,10.7,239.2,9.2,240.4,8.8z M185.6,14.6c-5.5-4.3-5.2-10.1-4.9-12.4l31.9,21.3 l0.1-0.1c0.6,1.2,1.4,2.4,2.5,3.6c8.6,8.8,28.7,27.6,37.3,35.5C239.4,53.4,199.5,25.5,185.6,14.6z M216.1,26 c-4.3-4.5-3.6-10.3-3.1-12.6l55.3,46.8L257,65.5l0.3-0.3C257,64.9,227.1,37.3,216.1,26z M231.3,71.8c-4.6-3.8-2.6-12.3-1.8-15 l18.3,13.1l-5.8,2.7l1.3,8.7C240.8,79.4,235.1,75,231.3,71.8z M240.4,146l4.2-1v94.9l-4.2-3.4V146z M235.5,147.2l4.2-1v89.8 l-4.2-3.4V147.2z M230.6,148.3l4.2-1V232l-4.2-3.4V148.3z M225.6,149.5l4.2-1v80l-4.2,3.3V149.5z M220.7,150.7l4.2-1v82.7l-4.2,3.3 V150.7z M215.8,151.8l4.2-1v85.4l-4.2,3.3V151.8z M205.9,154.2l4.2-1v88.1l-4.2-0.3V154.2z M201,155.3l4.2-1v30.1l-4.2,0V155.3z M201,231.9l4.2-2.4v11.4l-4.2-0.3V231.9z M196.1,156.5l4.2-1v29l-4.2,0V156.5z M200.4,232.3v8.3l-4.2-0.3v-5.6L200.4,232.3z M195.4,156.7v27.8l-5.5,0l3.1-27.2L195.4,156.7z M195.4,235v5.2l-4.2-0.3l-0.1-2.4L195.4,235z M190.5,239.8l-3.2-0.2l3.1-1.7 L190.5,239.8z M25.5,125.5l25.8,7.7l58.1-31.6l58.1,31.6l25.8-7.7l-6.8,58.9l-4,0l6.2-53.7l-21.6,6.6l-57.5-31.2l-0.3-0.2 l-57.9,31.8l-21.4-6.6l6.2,53.3l-4,0L25.5,125.5z M176.1,229.2l-2.6,22.6l-64,38.9L45.4,251l-2.5-22L176.1,229.2z M42.5,210.5 l-1.4,4.2l-3.1,0l5.8-16.3l3.1,0l5.7,16.4l-3.1,0l-1.4-4.2L42.5,210.5z M89.5,214.8l-3.4,0l-2.5-9.7c-0.3-1.1-0.4-2.1-0.4-2.1h0 c0,0-0.1,1.1-0.4,2.1l-2.5,9.7l-3.4,0l-1.8-7.3l1.5-6.2l1.9,8.5c0.2,0.9,0.3,1.7,0.3,1.7h0c0,0,0.1-0.8,0.3-1.7l3-11.3l2.6,0 l2.9,11.3c0.2,0.9,0.3,1.7,0.3,1.7h0c0,0,0.1-0.8,0.3-1.7l2.7-11.3l3.1,0L89.5,214.8z M94.8,201.3l1.9,8.5c0.2,0.9,0.3,1.7,0.3,1.7 l0,0c0,0,0.1-0.8,0.3-1.7l3-11.3l2.6,0l2.9,11.3c0.2,0.9,0.3,1.7,0.3,1.7l0.1,0c0,0,0.1-0.8,0.3-1.7l2.7-11.3l3.1,0l-4.3,16.3 l-3.4,0l-2.5-9.7c-0.3-1.1-0.4-2.1-0.4-2.1l0,0c0,0-0.1,1.1-0.4,2.1l-2.5,9.7l-3.4,0l-1.8-7.4L94.8,201.3z M71,214.7l-3.4,0 l-2.5-9.7c-0.3-1.1-0.4-2.1-0.4-2.1l0,0c0,0-0.1,1.1-0.4,2.1l-2.5,9.7l-3.4,0l-4-16.4l3.1,0l2.5,11.3c0.2,0.9,0.3,1.7,0.3,1.7h0.1 c0,0,0-0.8,0.3-1.7l3-11.3l2.6,0l2.9,11.3c0.3,0.9,0.3,1.7,0.3,1.7l0,0c0,0,0.1-0.8,0.3-1.7l2.7-11.3l3.1,0L71,214.7z M113.7,214.9 l5.8-16.3l3.1,0l5.7,16.4l-3.1,0l-1.4-4.2l-5.7,0l-1.4,4.2L113.7,214.9z M141.7,208.9l3.3,6.1l-3.3,0l-3.2-6.1l-2.9,0l0,6.1l-3,0 l0.1-16.3l5.3,0c1.8,0,2.6,0.1,3.3,0.5c1.6,0.7,2.7,2.3,2.7,4.5c0,2-1,3.8-2.8,4.5v0C141.2,208.1,141.4,208.3,141.7,208.9z M150.1,215l0.1-16.3l5.6,0c5,0,8.3,3,8.3,8.2c0,5.2-3.3,8.2-8.4,8.2L150.1,215z M173.4,215.4c-3.6,0-5.6-2.3-5.6-2.3l1.6-2.2 c0,0,1.8,1.7,4.1,1.7c1.2,0,2.4-0.6,2.4-2c0-2.9-7.7-2.4-7.7-7.5c0-2.7,2.4-4.7,5.5-4.7c3.2,0,4.9,1.8,4.9,1.8l-1.3,2.4 c0,0-1.6-1.4-3.6-1.4c-1.4,0-2.5,0.8-2.5,2c0,2.9,7.7,2.2,7.7,7.4C178.8,213.2,176.8,215.4,173.4,215.4z M37.6,184.5l-6-51.4 l20,6.2l57.7-31.7l57.4,31.2l0.3,0.1l20.1-6.2l-6,51.8L37.6,184.5z M138.2,299.9L138.2,299.9l-12.8,49.3l0,0.1l0.1,4.1l-2.8,1.4 l-6.2-3.2l3.7-57.8l29.2-17.5L138.2,299.9z M109.5,296.3l-69.1-42l-2.7-22.6l-8.4-1.2l-0.1-1.3h8.3l0,0l4,0l2.6,22.8l65,40.2 l0.4,0.2l65.3-39.7l2.7-23.4l4,0l0,0h7.4l-0.1,1.4l-7.6,1.7l-2.8,22.7L109.5,296.3z M175.8,286.5l-0.3,0.2l3.6,57.8l1.4,4l-2.4,1.6 l-7-2.2l-14.9-69.1c1.3-1.2,6.3-5.9,10.5-12.9l14.8-8.8l1.8-15.3l1.8-1l27.7,2.1C206.4,266.6,176.1,286.3,175.8,286.5z M213.3,241.5l-2.5-0.2V153l4.2-1v88.1L213.3,241.5z M240.6,288.3l-3.9,67.2l-5.2,2.9l-4.8-2.9l-5.8-67.2l-6.3-46l15.6-12.3 l15.3,12.3L240.6,288.3z M246.7,241.5l-1.4-1.1v-95.1l4.2,3.4v92.8H246.7z M254.5,241.5h-4.2v-92.2l4.2,3.4V241.5z M259.4,241.5 h-4.2v-88.3l4.2,3.4V241.5z M264.3,241.5h-4.2v-84.3l4.2,3.4V241.5z M259.4,154.8l-2.6-2l-11.2-9l0.9-45l12.9,26.4h20.4L292.7,99 l0.6,45.1l-17.1,13.7l-1.3,1l-5,3.9l-0.6-0.5l-4.9-3.8L259.4,154.8z M288.9,149.4v81.7l-4.2,4.5v-82.8L288.9,149.4z M284,153.3v83 l-4.2,4.5v-84.1L284,153.3z M279.1,157.3v84.2h-4.2v-80.8L279.1,157.3z M274.2,161.2v80.3h-4.2v-76.9L274.2,161.2z M269.3,164.5v77 H265v-80.4L269.3,164.5z M285.9,288.3l-4.8,58.6l-4.7,2.8l-5.1-2.8l-2.5-58.6l-4.2-45.5h15l13.7-14.6l0.6-0.7L285.9,288.3z M294.5,225.2l-4.9,5.2v-81.5l3.7-3L294.5,225.2z M309.7,56.8c0.8,2.7,2.8,11.2-1.8,15c-3.7,3.1-9.4,7.5-12,9.5l1.3-8.7l-5.8-2.8 L309.7,56.8z M295.7,73.4l-3.4,23.3L279,123.9h-18.7L247,96.7l-3.4-23.3l14.5-6.9c0.1,0.8,0.2,1.6,0.4,2.3l4.9,48.6l0.1,0l6.2,4.3 l6.1-4.3l0.1,0L281,68c0.1-0.5,0.2-1,0.2-1.5L295.7,73.4z M282.1,65.5l-11.2-5.3l55.3-46.7c0.5,2.3,1.2,8.1-3.1,12.6 c-11,11.3-40.9,38.9-41.2,39.2L282.1,65.5z M353.6,14.6c-13.9,10.9-53.8,38.8-66.8,47.9c8.6-8,28.7-26.7,37.3-35.5 c1.1-1.1,1.9-2.4,2.5-3.6l0.1,0.1l31.9-21.3C358.8,4.5,359,10.3,353.6,14.6z" />
        <polygon class="st0" points="178.4,159.1 176.2,160.9 173.4,160 174.4,162.7 172.8,165 175.7,164.9 177.4,167.2 178.1,164.4 180.8,163.5 178.5,161.9" />
        <polygon class="st0" points="177,170.6 174.7,172.4 172,171.6 173,174.3 171.4,176.6 174.2,176.5 175.9,178.8 176.7,176 179.4,175.1 177,173.5" />
        <polygon class="st0" points="41.1,167.2 42.8,164.9 45.7,165 44.1,162.7 45.1,160 42.3,160.9 40.1,159.1 40,161.9 37.7,163.5 40.4,164.4" />
        <polygon class="st0" points="46.5,171.6 43.8,172.4 41.5,170.6 41.5,173.5 39.1,175.1 41.8,176 42.6,178.8 44.3,176.5 47.1,176.6 45.5,174.3" />
        <polygon class="st0" points="67.1,144 67.8,148.5 62.9,149.3 62.2,144.8 60.3,145.1 62,155.8 63.9,155.5 63.2,151 68.1,150.2 68.8,154.7 70.8,154.4 69.1,143.7" />
        <path class="st0" d="M78.6,153.6c3.2-0.3,5.3-3.1,5-6.3c-0.3-3.1-3-5.2-6.2-4.9c-3.2,0.3-5.3,3-5,6.1 C72.8,151.8,75.4,154,78.6,153.6z M77.6,144.3c2-0.2,3.7,1.2,4,3.3c0.2,2.2-1.2,4-3.1,4.2c-2,0.2-3.7-1.3-4-3.5 C74.2,146.3,75.6,144.5,77.6,144.3z" />
        <path class="st0" d="M92.6,141.4l0.4,6.3c0,0.6,0.2,1.7,0.2,1.7l0,0c0,0-0.6-1-1-1.6l-4.5-6l-2,0.1l0.7,10.8l2-0.1l-0.4-6.2 c0-0.6-0.2-1.7-0.2-1.7l0,0c0,0,0.6,1,1,1.6l4.5,6l2-0.1l-0.7-10.8L92.6,141.4z" />
        <path class="st0" d="M103.1,152.1c3.2-0.1,5.6-2.6,5.5-5.8c-0.1-3.1-2.5-5.5-5.7-5.4c-3.2,0.1-5.6,2.5-5.5,5.6 C97.5,149.7,100,152.2,103.1,152.1z M103,142.7c2,0,3.6,1.5,3.6,3.7c0,2.2-1.5,3.9-3.5,4c-2,0-3.6-1.6-3.7-3.8 C99.4,144.3,101,142.7,103,142.7z" />
        <path class="st0" d="M117.1,147.9c-0.2-0.4-0.4-0.5-0.4-0.5l0,0c1.2-0.4,1.9-1.6,1.9-2.9c0-1.4-0.6-2.5-1.7-3 c-0.5-0.2-1-0.3-2.2-0.4l-3.5-0.1l-0.2,10.8l2,0l0.1-4l1.9,0l2.1,4.1l2.2,0L117.1,147.9z M114.9,146.1l-1.8,0l0.1-3.4l1.5,0 c1.5,0,2,0.7,2,1.7C116.6,145.6,115.9,146.2,114.9,146.1z" />
        <path class="st0" d="M126.9,149.6l0.8,2.8l2,0.1l-3.2-11l-2.1-0.1L120,152l2,0.1l1.1-2.7L126.9,149.6z M124.8,145 c0.2-0.6,0.6-1.7,0.6-1.7l0,0c0,0,0.2,1.1,0.3,1.7l0.8,3l-2.8-0.2L124.8,145z" />
        <path class="st0" d="M139.3,150.3c0.1-1.1-0.4-2.2-1.5-2.7l0,0c0.9-0.4,1.4-1.2,1.5-2.2c0.2-1.8-1.1-2.9-3.1-3.1l-3.9-0.4l-1,10.8 l3.9,0.4C137.3,153.3,139.1,152.4,139.3,150.3z M134.2,143.8l1.9,0.2c0.9,0.1,1.3,0.7,1.2,1.5c-0.1,0.8-0.6,1.3-1.5,1.3l-1.9-0.2 L134.2,143.8z M135.6,151.4l-2.1-0.2l0.3-3.1l2.1,0.2c1,0.1,1.5,0.8,1.4,1.7C137.2,150.9,136.6,151.5,135.6,151.4z" />
        <polygon class="st0" points="144.8,143.2 142.8,142.9 141.4,153.7 148,154.6 148.2,152.9 143.6,152.3" />
        <polygon class="st0" points="149.9,154.9 156.5,156 156.8,154.3 152.1,153.5 152.6,150.6 156.2,151.2 156.5,149.6 152.9,149 153.3,146.1 157.8,146.9 158.1,145.2 151.7,144.2" />
        <path class="st0" d="M80.4,160l-1.5,5.6c-0.2,0.7-0.4,1.6-0.4,1.6l0,0c0,0-0.4-0.9-0.7-1.5l-2.7-5.1l-2.1,0.2l0.3,10.9l2-0.2 l-0.2-6.1c0-0.7-0.2-1.7-0.2-1.7l0,0c0,0,0.4,1,0.8,1.6l2.2,4l1.7-0.2l1.3-4.4c0.2-0.7,0.4-1.7,0.4-1.7l0,0c0,0,0.1,1,0.2,1.7 l1.1,6l1.9-0.2l-2-10.7L80.4,160z" />
        <polygon class="st0" points="89.1,168.4 88.9,165.5 92.5,165.3 92.4,163.6 88.8,163.8 88.6,161 93.1,160.7 93,159 86.5,159.4 87.2,170.2 93.9,169.8 93.8,168.1" />
        <path class="st0" d="M102.9,158.6l0.2,6.3c0,0.6,0.2,1.7,0.2,1.7l0,0c0,0-0.5-1-0.9-1.7l-4.3-6.1l-2,0.1l0.3,10.8l2-0.1l-0.2-6.2 c0-0.6-0.2-1.7-0.2-1.7l0,0c0,0,0.5,1,0.9,1.7l4.3,6.1l2-0.1l-0.3-10.8L102.9,158.6z" />
        <polygon class="st0" points="106.9,160.3 110.5,160.3 110.4,169.4 112.4,169.5 112.5,160.3 116,160.3 116,158.6 106.9,158.6" />
        <rect x="117.9" y="158.8" transform="matrix(-0.9994 -3.349417e-02 3.349417e-02 -0.9994 232.1845 332.2751)" class="st0" width="2" height="10.8" />
        <path class="st0" d="M128.3,159c-3.2-0.2-5.8,2.1-6,5.2c-0.2,3.2,2,5.8,5.2,6c3.2,0.2,5.8-2.1,6-5.3 C133.7,161.8,131.5,159.2,128.3,159z M127.7,168.4c-2-0.1-3.5-1.9-3.3-4.1c0.1-2.1,1.8-3.6,3.8-3.5c2,0.1,3.5,1.8,3.3,4 C131.3,167,129.6,168.6,127.7,168.4z" />
        <path class="st0" d="M142.8,166.9c-0.1,0.6-0.1,1.7-0.1,1.7l0,0c0,0-0.4-1.1-0.7-1.8l-3.4-6.7l-2-0.2l-1.2,10.8l2,0.2l0.7-6.2 c0.1-0.6,0.1-1.7,0.1-1.7l0,0c0,0,0.4,1.1,0.7,1.8l3.4,6.7l1.9,0.2l1.2-10.8l-1.9-0.2L142.8,166.9z" />
        <path class="st0" d="M155.6,201.2l-2.4,0l0,11.2l2.4,0c3.3,0,5.4-1.9,5.4-5.6C161,203.2,158.9,201.2,155.6,201.2z" />
        <path class="st0" d="M121.7,203.9c-0.3-0.9-0.6-2.5-0.6-2.5l0,0c0,0-0.4,1.6-0.7,2.5l-1.5,4.4l4.3,0L121.7,203.9z" />
        <path class="st0" d="M138,201.2l-2.3,0l0,5.1l2.7,0c1.6,0,2.6-0.9,2.6-2.6C141,202.2,140.3,201.2,138,201.2z" />
        <path class="st0" d="M45.5,201.1L45.5,201.1c-0.1,0-0.4,1.6-0.7,2.5l-1.5,4.4l4.3,0l-1.4-4.4C45.8,202.8,45.5,201.1,45.5,201.1z" />
        <path class="st0" d="M67.1,249.8h2.1l0.3,1.2h1.5l-2-6.9h-1.7l-2,6.9h1.5L67.1,249.8z M68.2,245.6l0.8,3h-1.6L68.2,245.6z" />
        <polygon class="st0" points="74.9,251 75.7,246.5 76.6,251 78.1,251 79.6,244.2 78.2,244.2 77.3,248.9 76.3,244.2 75.2,244.2 74.2,248.9 73.3,244.2 71.9,244.2 73.4,251" />
        <polygon class="st0" points="83.8,251 84.7,246.5 85.6,251 87,251 88.6,244.2 87.1,244.2 86.2,248.9 85.2,244.2 84.1,244.2 83.2,248.9 82.3,244.2 80.8,244.2 82.4,251" />
        <polygon class="st0" points="92.7,251 93.6,246.5 94.5,251 96,251 97.5,244.2 96,244.2 95.2,248.9 94.2,244.2 93.1,244.2 92.1,248.9 91.2,244.2 89.7,244.2 91.3,251" />
        <path class="st0" d="M100.1,249.8h2.1l0.3,1.2h1.5l-2-6.9h-1.7l-2,6.9h1.5L100.1,249.8z M101.2,245.6l0.8,3h-1.6L101.2,245.6z" />
        <path class="st0" d="M107.1,248.6h0.7l1.1,2.5h1.5l-1.2-2.7c0.6-0.2,1.2-0.8,1.2-2c0-1.3-0.8-2.2-2.1-2.2h-2.6v6.9h1.4V248.6z M107.1,245.4h1c0.5,0,0.9,0.4,0.9,1c0,0.6-0.4,1-0.9,1h-1V245.4z" />
        <path class="st0" d="M117.6,247.6c0-2-1.1-3.4-3-3.4h-2.2v6.9h2.2C116.5,251,117.6,249.6,117.6,247.6z M113.8,245.4h0.8 c1,0,1.6,0.9,1.6,2.2c0,1.3-0.6,2.2-1.6,2.2h-0.8V245.4z" />
        <path class="st0" d="M121.5,249.9c-0.7,0-1.3-0.3-1.7-0.7l-0.7,1.1c0.5,0.5,1.3,0.9,2.4,0.9c1.5,0,2.3-0.9,2.3-2.1 c0-2.3-3.1-2-3.1-3.1c0-0.4,0.3-0.7,0.8-0.7c0.5,0,1.1,0.2,1.5,0.6l0.7-1c-0.5-0.5-1.2-0.8-2.1-0.8c-1.4,0-2.3,0.9-2.3,2 c0,2.3,3.1,1.9,3.1,3.1C122.4,249.6,122.1,249.9,121.5,249.9z" />
        <path class="st0" d="M126.4,251.2c0.4,0,0.8-0.4,0.8-0.8c0-0.4-0.4-0.8-0.8-0.8c-0.4,0-0.8,0.4-0.8,0.8 C125.6,250.8,126,251.2,126.4,251.2z" />
        <path class="st0" d="M132,251.2c1.3,0,2-0.9,2.3-1.7l-1.1-0.5c-0.2,0.6-0.6,1-1.2,1c-0.9,0-1.5-1-1.5-2.3c0-1.4,0.6-2.3,1.5-2.3 c0.5,0,0.9,0.4,1.2,0.9l1.1-0.5c-0.4-0.8-1-1.6-2.3-1.6c-1.8,0-2.9,1.5-2.9,3.6C129.1,249.7,130.2,251.2,132,251.2z" />
        <path class="st0" d="M138.8,251.2c1.8,0,2.9-1.5,2.9-3.6c0-2-1.1-3.6-2.9-3.6c-1.8,0-2.9,1.5-2.9,3.6 C135.9,249.7,137,251.2,138.8,251.2z M138.8,245.3c0.9,0,1.5,1,1.5,2.3c0,1.3-0.5,2.3-1.5,2.3c-0.9,0-1.4-1-1.4-2.3 C137.3,246.3,137.8,245.3,138.8,245.3z" />
        <polygon class="st0" points="145,246.6 146.5,251 147.1,251 148.6,246.6 148.6,251 150,251 150,244.2 148.1,244.2 146.8,248 145.5,244.2 143.6,244.2 143.6,251 145,251" />
    </symbol>
    <symbol viewBox="0 0 360 360" id="award-siteinspire">
        <style>
        .st0 {
            fill: #4d84f1
        }
        </style>
        <path class="st0" d="M192.4,183.9c-4.6,0-8,3.9-8,9c0,5.1,3.4,9,8,9c4.7,0,7.7-3.8,7.7-9C200.1,187.7,197,183.9,192.4,183.9z" />
        <path class="st0" d="M242.3,183.7c-4.4,0-7.2,3.6-7.5,8.2h14.7C249.3,187.3,247.2,183.7,242.3,183.7z" />
        <path class="st0" d="M160.9,158.1c-4.4,0-7.2,3.6-7.5,8.2H168C167.9,161.8,165.7,158.1,160.9,158.1z" />
        <path class="st0" d="M180,79.5c-55.5,0-100.5,45-100.5,100.5s45,100.5,100.5,100.5s100.5-45,100.5-100.5S235.5,79.5,180,79.5z M150.9,167.3c0-6.3,4-11.3,10-11.3c6.2,0,9.6,4.7,9.6,11v0.2c0,0.3,0,0.6-0.1,1h-17.1c0.3,5,3.6,8.3,8.1,8.3 c2.9,0,5.7-1.1,7.4-3.1h0.1c0.3,0.6,0.6,1.3,0.8,1.9c-2.1,2.1-5,3.3-8.5,3.3C155.2,178.6,150.9,173.9,150.9,167.3L150.9,167.3z M122.4,172.3c0,4.1-3.6,6.2-7.8,6.2c-2.9,0-6-1-8.1-2.8c0.2-0.8,0.5-1.5,0.7-2.2h0.1c2.1,2,4.7,2.8,7.5,2.8c2.9,0,5.3-1.3,5.3-3.9 c0-2-1.8-3.1-3.7-3.7c-3.9-1.2-9.3-1.9-9.3-6.6c0-3.9,3.2-6,7.4-6c2.6,0,5.4,0.9,7.4,2.5c-0.2,0.7-0.4,1.5-0.6,2.2H121 c-1.8-1.6-4.3-2.5-6.7-2.5c-2.8,0-4.9,1.5-4.9,3.7c0,1.9,1.5,2.8,3.5,3.5C117,166.6,122.4,167.5,122.4,172.3L122.4,172.3z M130.3,203.7h-2.4v-21.6h2.4V203.7z M130.3,178.1h-2.4v-21.6h2.4V178.1z M129,151.8c-0.7,0-1.3-0.6-1.3-1.3s0.6-1.3,1.3-1.3 s1.3,0.6,1.3,1.3S129.8,151.8,129,151.8z M134.4,156.6h3.7c0-2.1,0-4.2,0.1-6.3h2.3v6.3h7v2.1h-7v13.9c0,2.7,1.5,3.7,4,3.7 c1,0,2.1-0.1,3-0.5v2.1c-1,0.3-2.3,0.5-3.5,0.5c-3.7,0-5.9-1.8-5.9-6v-13.7h-3.7V156.6z M155.6,203.7h-2.4v-12.8 c0-4.2-2.3-7.1-6.4-7.1c-4.1,0-6.9,3-6.9,7.2v12.7h-2.4v-21.6h2.4v4c1.3-2.6,3.9-4.5,7.5-4.5c5.2,0,8.2,3.6,8.2,8.7V203.7z M176.5,197.9c0,4.1-3.6,6.2-7.8,6.2c-2.9,0-6-1-8.1-2.8c0.2-0.8,0.5-1.5,0.7-2.2h0.1c2.1,2,4.7,2.8,7.5,2.8c2.9,0,5.3-1.3,5.3-3.9 c0-2-1.8-3.1-3.7-3.7c-3.9-1.2-9.3-1.9-9.3-6.6c0-3.9,3.2-6,7.4-6c2.6,0,5.4,0.9,7.4,2.5c-0.2,0.7-0.4,1.5-0.6,2.2h-0.1 c-1.8-1.6-4.3-2.5-6.7-2.5c-2.8,0-4.9,1.5-4.9,3.7c0,1.9,1.5,2.8,3.5,3.5C171.1,192.2,176.5,193,176.5,197.9L176.5,197.9z M202.6,192.9c0,6.6-4.1,11.3-9.8,11.3c-4.1,0-6.7-2.3-8.2-5.2v11.3h-2.4v-28.1h2.4v4.9c1.5-3,4.2-5.3,8.2-5.3 C198.5,181.6,202.6,186.3,202.6,192.9L202.6,192.9z M211.1,203.7h-2.4v-21.6h2.4V203.7z M209.9,177.4c-0.7,0-1.3-0.6-1.3-1.3 s0.6-1.3,1.3-1.3c0.7,0,1.3,0.6,1.3,1.3S210.6,177.4,209.9,177.4z M229.7,184.3L229.7,184.3c-0.5-0.1-1-0.1-1.3-0.1 c-5,0-7.7,4.5-7.7,9.9v9.5h-2.4v-21.5h2.4v5.4c1.3-3.3,4.1-5.7,7.7-5.7c0.5,0,0.9,0,1.3,0.1V184.3z M251.9,193.7h-17.1 c0.3,5,3.6,8.3,8.1,8.3c2.9,0,5.7-1.1,7.4-3.1h0.1c0.3,0.6,0.6,1.3,0.8,1.9c-2.1,2.1-5,3.3-8.5,3.3c-6.1,0-10.5-4.7-10.5-11.2v0 c0-6.3,4-11.3,10-11.3c6.2,0,9.6,4.7,9.6,11v0.2C252,193.1,251.9,193.4,251.9,193.7z" />
    </symbol>
    <symbol viewBox="0 0 360 360" id="award-sotd">
        <style>
        .st0 {
            fill: #4d84f1
        }
        </style>
        <path class="st0" d="M349.7,297.3c-5.3-13.3-46.2-116.8-63.2-152.1c-14.9-30.9-37.8-35.5-50.2-35.5c-4.2,0-7.3,0.5-8.7,0.8 c-9.5-18-10-34.8-1.3-48.8c3,0.7,7.2,0,14.6-3.3c8.4-3.7,14.5-2.1,18.1,4.9c0.2,0.4,0.5,0.9,1,0.9c0.1,0,0.2,0,0.3,0 c0.7-0.2,0.6-0.9,0.6-1.3c-1.9-15.6-9-28.7-15.2-34.7c-4.9-6.9-16-14.2-32.5-14.2c-7.7,0-15.8,1.6-24.2,4.7 c-26.7,10-48.9,36.6-59.4,71.2l-0.1,0.4l0,0c-1.4,4.9-2.6,9.9-3.5,15c-3.7-0.4-7.2-0.5-10.3-0.5l-0.4,0 c-31.2,0.1-55.4,14-70.1,40.1c-0.7,0-1.9,0-3.9,0c-5.7,0-14.3-0.1-14.4-0.1l-2,0v10.3H10.6l7.4,55l-17.8,0v54L0,264.2l27.3,15.3 l2.2,16.4l87.6,53.2l80.1-47.9l48.9,23.5v-8.6l-16-11l5.5-2.7v-4.9l-13.3,1.5l-16.7-9.6l1.3-9.9l7.5-4.2l51.6,23.4l3.2,12.3 l5.3,0.1l-0.2-8.1l43.3,16.3V312c18.6,7.7,30.1,9.2,36.1,9.2c3.6,0,5.3-0.5,5.5-0.6l0.9-0.3L349.7,297.3z M343.1,285.2L343.1,285.2 c1.8,4.4,3.2,8,4.1,10.5l-0.1,0l0.7,1.6c-1.1-0.6-2.8-1.5-4.8-2.6V285.2z M337.3,270.6c1.8,4.6,3.5,8.8,5,12.5v11.1 c-1.5-0.8-3.1-1.8-5-2.8V270.6z M331.5,256.2c1.7,4.3,3.4,8.5,5,12.4v22.4c-1.5-0.9-3.2-1.8-5-2.9V256.2z M325.7,241.8 c1.7,4.2,3.4,8.4,5,12.3v33.5c-1.6-0.9-3.2-1.9-5-2.9V241.8z M319.9,227.5c1.7,4.1,3.3,8.2,5,12.2v44.4c-1.6-1-3.3-1.9-5-3V227.5z M314.1,213.4c1.7,4,3.3,8.1,5,12.1v55.2c-1.6-1-3.3-2-5-3V213.4z M308.3,199.4c1.7,4,3.3,8,5,12v65.7c-1.6-1-3.3-2-5-3.1V199.4z M302.5,185.5c1.6,3.9,3.3,7.8,5,11.9v76.1c-1.6-1-3.3-2.1-5-3.2V185.5z M296.7,172c1.6,3.7,3.3,7.6,5,11.6v86.2 c-1.6-1.1-3.3-2.1-5-3.2V172z M290.9,158.8c1.6,3.5,3.2,7.3,5,11.3V266c-1.6-1.1-3.3-2.2-5-3.3V158.8z M285.1,146.2 c1.5,3.1,3.2,6.7,5,10.7v105.2c-1.7-1.1-3.3-2.2-5-3.4V146.2z M279.3,135.9c1.7,2.6,3.4,5.5,5,8.6v113.6c-1.7-1.1-3.3-2.3-5-3.5 V135.9z M273.5,128.5c1.7,1.9,3.4,4,5,6.3v119.4c-0.4-0.3-0.8-0.5-1.1-0.8c-1.3-0.9-2.6-1.8-3.8-2.8V128.5z M267.7,122.9 c1.7,1.4,3.3,3,5,4.7v122.4c-1.7-1.2-3.3-2.5-5-3.7V122.9z M261.9,118.7c1.7,1,3.3,2.2,5,3.5v123.4c-1.7-1.3-3.3-2.5-5-3.8V118.7z M256.1,115.6c1.6,0.7,3.3,1.6,5,2.6v123c-1.7-1.3-3.4-2.6-5-3.9V115.6z M250.3,113.4c1.6,0.5,3.3,1.1,5,1.8v121.3 c-1.7-1.4-3.4-2.7-5-4.1V113.4z M244.5,112.1c1.6,0.3,3.3,0.6,5,1.1v118.6c-1.7-1.4-3.4-2.9-5-4.3V112.1z M238.7,111.4 c1.5,0.1,3.2,0.2,5,0.5v114.9c-1.7-1.5-3.4-3-5-4.5V111.4z M232.9,111.5c1-0.1,2.1-0.1,3.3-0.1c0.5,0,1.1,0,1.7,0v110.2 c-1.2-1.1-2.4-2.3-3.6-3.4v-8.3l-1.4,0V111.5z M227.1,112.3c0.5-0.1,2.3-0.5,5-0.8v98.4l-5,0V112.3z M220.5,177.9v25.7 c-1-1.2-2-2.4-3-3.6L220.5,177.9z M220.5,154.9h-5v-34.1c1.7-1.7,3.4-3.1,5-4.3V154.9z M223.8,209.9l-7.5,0l1-7.5 C219.2,204.9,221.4,207.4,223.8,209.9z M221.3,204.6v-32.8l2.3-16.8h-2.3v-39c2.2-1.6,4-2.7,5-3.3v97.2h-0.2 C224.5,208.1,222.9,206.3,221.3,204.6z M244.7,29.5c5.5,5.5,11.7,16.7,14,30.3c-5.2-6.6-12.7-5.3-18.5-2.8 c-10.9,4.8-14.2,3.7-16.7,1.7c3.8-0.6,6.3-1.9,7.9-3.9c2.2-2.7,2.8-6.8,2.1-13.6c-0.4-3.5,0.3-6.3,1.9-8.2c2.7-3.1,7.4-3.3,9-3.4 C244.5,29.5,244.6,29.5,244.7,29.5z M238.9,23.6c1.8,1.4,3.3,2.9,4.5,4.3c-1.1,0.1-2.8,0.3-4.5,0.9V23.6z M233.1,20 c1.8,0.9,3.5,1.9,5,3v6.1c-1.4,0.6-2.8,1.4-3.9,2.7c-0.4,0.5-0.8,1-1.1,1.6L233.1,20z M227.3,17.6c1.8,0.6,3.4,1.2,5,1.9v15.8 c-0.5,1.7-0.7,3.7-0.4,5.9c0.7,6.2,0.1,10-1.7,12.4c-0.7,0.9-1.6,1.6-2.8,2.1V17.6z M221.5,16.2c1.7,0.3,3.4,0.7,5,1.2v38.8 c-1.3,0.5-3,0.9-5,1.1V16.2z M215.7,15.6c1.7,0.1,3.4,0.3,5,0.5v41.4c-0.3,0.3-0.7,0.9-1.8,2.9c-0.8,1.3-1.8,3.1-3.1,5.3 L215.7,15.6z M209.9,15.6c1.1-0.1,2.1-0.1,3.1-0.1c0.6,0,1.2,0,1.8,0V67c-1.4,2.3-3,4.9-5,8V15.6z M204.1,16.2 c1.7-0.3,3.3-0.4,5-0.6v60.6c-1.4,2.2-3,4.5-4.7,7.1c-0.1,0.1-0.2,0.3-0.3,0.4V16.2z M198.3,17.4c1.7-0.4,3.3-0.7,5-1v68.5 c-1.6,2.1-3.2,4-5,5.8V17.4z M192.5,19.1c1.7-0.6,3.3-1,5-1.5v73.8c-1.6,1.5-3.2,2.7-5,3.9V19.1z M189.4,20.2 c0.8-0.3,1.5-0.5,2.3-0.8v76.5c-1.6,1-3.3,1.8-5,2.6l0-77.2C187.6,20.9,188.5,20.5,189.4,20.2z M180.9,24c1.6-0.9,3.3-1.7,5-2.4 v77.2c-1.6,0.6-3.3,1.2-5,1.6V24z M175.2,27.4c1.6-1.1,3.3-2,5-3v76.2c-1.6,0.4-3.3,0.7-5,0.8V27.4z M169.4,31.5 c1.6-1.3,3.3-2.4,5-3.6v73.6c-1.4,0.1-2.9,0.2-4.4,0.2h0c-0.2,0-0.4,0-0.6,0V31.5z M163.6,36.4c1.6-1.5,3.3-2.9,5-4.3v69.6 c-1.7,0-3.3-0.2-5-0.4V36.4z M157.8,42.2c1.6-1.8,3.3-3.4,5-5v64.1c-1.7-0.2-3.3-0.5-5-0.8V42.2z M152,49c1.6-2.1,3.3-4.1,5-6v57.2 c-1.7-0.4-3.4-0.8-5-1.3V49z M146.2,57.3c1.6-2.5,3.2-4.9,5-7.1v48.6c-1.7-0.5-3.4-1.1-5-1.7V57.3z M140.4,67.3 c1.6-3,3.2-5.9,5-8.8v38.2c-1.8-0.7-3.5-1.4-5-2.1V67.3z M134.6,80.2c1.5-3.9,3.2-7.6,5-11.3v25.4c-2-0.9-3.6-1.7-5-2.4V80.2z M133.8,82.3v9.1c-1.3-0.7-2.2-1.3-2.6-1.5l0,0C132,87.4,132.8,84.8,133.8,82.3z M130.7,91.6c3.3,2,20.7,11.8,39.2,11.8h0 c15.2,0,27.2-6.4,35.8-19.1c7.7-11.4,12.3-19.3,14.5-23.1c0.5-0.9,0.9-1.6,1.2-2.1c1,0.9,2,1.6,3.1,2.1 c-8.8,14.3-8.3,31.5,1.3,49.8c-3.2,1.7-20.9,12.2-26.4,33.7c-2.2,0-4.6,0-6.6,0c-2,0-3.2,0-3.9,0c-16-28.4-42-37.1-61.4-39.3 C128.4,100.7,129.4,96.1,130.7,91.6z M214.7,121.7v33.3h-5v-27.6C211.4,125.2,213.1,123.3,214.7,121.7z M208.9,128.5v16.2l-1.6,0 c0,0-1.4,0-3.4,0v-7.7C205.4,133.9,207.1,131,208.9,128.5z M203.1,139v5.8c-0.8,0-1.7,0-2.7,0c0,0,0,0,0,0c0.2,0,0.5,0,0.7,0 C201.8,142.7,202.4,140.8,203.1,139z M221.9,300.7l12-1.4v2l-7.1,3.5l17.6,12.1v5.1l-45.5-21.9l5.6-3.4l0.8-5.6L221.9,300.7z M213.6,265.1l-9,1l-3.8,28.3l-83.7,50l-83.9-51l-3.7-27.3l-9.5-1.1l-0.1-0.9h9.3l0-0.1l4.1,0l3.6,26.6l80.1,49.4l80-48.1l3.7-27.8 l3,0l0,0h9.9L213.6,265.1z M212.7,163.8l-6.2,46.1l-178.7,0l-6.2-46.2h12.4v-9.5c2.1,0,7.8,0,11.9,0c4.9,0,4.9,0,5.1-0.3l0.1-0.1 c18.7-34.3,44.2-39.2,64.3-39.5c0.7,0,1.4,0,2,0c29.7,0,51.2,12.9,65.7,39.3l0.1,0.2c0.3,0.3,0.3,0.3,17,0.5v9.5H212.7z M199.1,264.2l-3.6,26.8l-78.4,47.2l-78.6-48.5L35.1,264L199.1,264.2z M33.1,246.7l7.1-19.8l3.8,0l6.9,19.9l-3.7,0l-1.7-5.1l-7,0 l-1.7,5.1L33.1,246.7z M95.6,246.9l-4.2,0l-3-11.7c-0.3-1.3-0.5-2.6-0.5-2.6h0c0,0-0.2,1.3-0.5,2.6l-3.1,11.7l-4.2,0l-2.2-8.9 l1.8-7.5l2.3,10.3c0.2,1.1,0.3,2.1,0.3,2.1h0.1c0,0,0.1-1,0.4-2.1l3.6-13.7l3.1,0l3.5,13.7c0.3,1.1,0.3,2.1,0.4,2.1h0.1 c0,0,0.1-1,0.3-2.1l3.3-13.7l3.7,0L95.6,246.9z M102,230.5l2.3,10.3c0.2,1.1,0.3,2.1,0.3,2.1l0,0c0,0,0.1-0.9,0.4-2.1l3.6-13.7 l3.1,0l3.5,13.7c0.3,1.1,0.3,2.1,0.3,2.1l0.1,0c0,0,0.1-1,0.3-2.1l3.3-13.7l3.7,0l-5.2,19.8l-4.2,0l-3-11.7 c-0.3-1.3-0.5-2.6-0.5-2.6l-0.1,0c0,0-0.2,1.3-0.5,2.6l-3.1,11.7l-4.2,0l-2.2-9L102,230.5z M73.2,246.8l-4.2,0l-3-11.7 c-0.3-1.3-0.5-2.6-0.5-2.6l0,0c0,0-0.2,1.3-0.5,2.6l-3.1,11.7l-4.2,0L52.8,227l3.7,0l3.1,13.7c0.2,1.1,0.3,2.1,0.3,2.1H60 c0,0,0.1-1,0.4-2.1L64,227l3.1,0l3.5,13.7c0.3,1.1,0.3,2.1,0.4,2.1l0.1,0c0,0,0.1-1,0.3-2.1l3.3-13.7l3.7,0L73.2,246.8z M124.9,247 l7.1-19.8l3.8,0l6.9,19.9l-3.7,0l-1.7-5.1l-7,0l-1.7,5.1L124.9,247z M159,239.7l4,7.4l-4,0l-3.9-7.4l-3.5,0l0,7.4l-3.6,0l0.1-19.8 l6.4,0c2.1,0,3.1,0.2,4,0.6c2,0.9,3.2,2.8,3.2,5.4c0,2.4-1.3,4.6-3.4,5.4v0.1C158.3,238.8,158.6,239,159,239.7z M169.1,247.2 l0.1-19.8l6.8,0c6.1,0,10.1,3.7,10.1,9.9c0,6.3-4,9.9-10.1,9.9L169.1,247.2z M197.4,247.6c-4.4,0-6.8-2.7-6.8-2.7l2-2.7 c0,0,2.1,2.1,4.9,2.1c1.5,0,2.9-0.8,2.9-2.4c0-3.5-9.3-3-9.3-9.1c0-3.3,2.9-5.7,6.7-5.7c3.9,0,5.9,2.1,5.9,2.1l-1.6,2.9 c0,0-1.9-1.7-4.4-1.7c-1.7,0-3,1-3,2.4c0,3.5,9.3,2.7,9.3,9C203.9,245,201.5,247.6,197.4,247.6z M212.2,209.9l-4,0l6.4-47.8h-12.6 v-9.5l-0.8,0c-6-0.1-14.7-0.2-16.8-0.2c-14.8-26.8-36.7-39.8-66.9-39.8c-0.7,0-1.4,0-2.1,0c-20.4,0.4-46.3,5.3-65.5,40 c-0.5,0-1.6,0-4,0c-5.1,0-12.8,0-12.8,0l-0.8,0v9.5H19.6l6.5,47.8l-4.1,0l-6.8-51h13.7v-10.2c2.9,0,8.4,0.1,12.4,0.1 c6.3,0,6.3,0,6.9-1.2c14-25.7,36.6-38.8,67.1-39l0.4,0c18.3,0,51.9,5.1,70.4,39l0.1,0.2c0.6,0.9,0.6,0.9,6.7,0.9 c4.1,0,9.5,0,12.4,0V159H219L212.2,209.9z M315.9,316.9l-43.3-16.3l0.2,8.8l-2.3,0l-3.1-11.8l-51.2-23.2l18.1-10.1l0,0h0v-2.3 l81.6,49.3V316.9z M316.7,309.8L234.3,260v-39.4c11.4,10.8,25.4,22.1,42.1,34c35.2,25.1,70,43.7,72.5,45.1l8.8,19.6 C354.4,319.8,342.1,320.6,316.7,309.8z" />
        <path class="st0" d="M175.8,230.5l-3,0l0,13.6l3,0c4,0,6.6-2.3,6.6-6.8C182.4,232.9,179.7,230.5,175.8,230.5z" />
        <path class="st0" d="M154.4,230.4l-2.7,0l0,6.2l3.2,0c1.9,0,3.1-1.1,3.1-3.1C158,231.6,157.2,230.4,154.4,230.4z" />
        <path class="st0" d="M134.6,233.7c-0.4-1.1-0.8-3.1-0.8-3.1l0,0c0,0-0.5,2-0.9,3.1l-1.8,5.3l5.2,0L134.6,233.7z" />
        <path class="st0" d="M42.9,233.4c-0.4-1.1-0.8-3.1-0.8-3.1H42c0,0-0.5,2-0.8,3.1l-1.8,5.3l5.2,0L42.9,233.4z" />
        <polygon class="st0" points="124.4,149.2 121.9,149 122.1,146.8 125.1,147.1 125.2,145.9 120.8,145.5 120.1,153.2 121.5,153.3 121.8,150.2 124.3,150.4" />
        <polygon class="st0" points="118.5,181.6 115.4,183.2 112.4,181.6 113,185 110.5,187.4 113.9,188 115.4,191.1 117,188 120.4,187.5 117.9,185.1" />
        <polygon class="st0" points="133.8,184.6 130.7,186.2 127.6,184.6 128.2,188 125.8,190.4 129.2,190.9 130.7,194 132.3,190.9 135.7,190.4 133.2,188" />
        <polygon class="st0" points="103.2,184.6 100.2,186.2 97.1,184.6 97.7,188 95.2,190.4 98.6,190.9 100.1,194 101.7,190.9 105.1,190.4 102.6,188" />
        <path class="st0" d="M54.3,179.9c-0.9-0.8-0.8-2.3,0.2-3.4c1.5-1.6,3.8-1.8,3.8-1.8l-1-2.8c0,0-2.6,0-4.9,2.6 c-2.3,2.5-2.4,5.8-0.2,7.8c4,3.6,9.2-2.8,11.5-0.7c1.1,1,0.7,2.3-0.2,3.3c-1.7,1.8-4.3,2-4.3,2l0.6,2.9c0,0,3.2,0,5.9-2.8 c2.5-2.7,2.2-5.8,0.1-7.7C61.6,175.4,56.6,182,54.3,179.9z" />
        <rect x="58.9" y="171.1" transform="matrix(-0.6228 -0.7824 0.7824 -0.6228 -25.2004 333.1636)" class="st0" width="17.5" height="3.2" />
        <polygon class="st0" points="80.7,157.2 79.4,154.8 66.6,162.2 68,164.5 73,161.7 80.4,174.5 83.1,172.9 75.8,160.1" />
        <polygon class="st0" points="98.4,163.7 91.1,166.2 89.5,161.8 95.1,159.8 94.2,157.3 88.6,159.2 87.1,154.9 94,152.5 93.1,149.9 83.2,153.3 89,169.9 99.3,166.3" />
        <path class="st0" d="M153.8,164.4c2.1-5.1,0-9.4-5-11.5l-5.5-2.3l-6.6,16.2l5.5,2.3C147.2,171.2,151.7,169.5,153.8,164.4z M150.8,163.2c-1.5,3.7-4.4,4.7-7.7,3.4l-2.4-1l4.6-11.2l2.4,1C150.9,156.7,152.2,159.5,150.8,163.2z" />
        <path class="st0" d="M166.6,162.5l-15.4,10.5l2.6,1.9l3.9-2.7l5,3.6l-1.5,4.5l2.6,1.9l5.4-17.8L166.6,162.5z M165.1,168.5l-1.5,4.7 l-3.7-2.7l4-2.9c0.9-0.6,2.2-1.8,2.2-1.8l0,0C166.2,165.9,165.5,167.5,165.1,168.5z" />
        <path class="st0" d="M178,179.4c-1.2,0.3-2.4,0.8-2.4,0.8l0,0c0,0,0.6-1.2,1-2.4l1.9-5.5l-2.4-2.7l-3.6,11.2l-5.4,5l2.2,2.3l5.4-5 l11.4-2.6l-2.4-2.7L178,179.4z" />
        <path class="st0" d="M114.1,153.3c2.3-0.1,3.9-1.9,3.8-4.2c-0.1-2.2-1.9-3.9-4.2-3.8c-2.3,0.1-3.9,1.9-3.8,4.1 C110.1,151.7,111.9,153.4,114.1,153.3z M113.9,146.6c1.4-0.1,2.6,1,2.7,2.5c0.1,1.6-1,2.8-2.4,2.9c-1.4,0.1-2.6-1.1-2.7-2.7 C111.4,147.8,112.5,146.7,113.9,146.6z" />
        <polygon class="st0" points="110.6,157.5 113.1,157.3 113,156.1 106.6,156.7 106.7,157.9 109.2,157.7 109.9,164.2 111.3,164" />
        <polygon class="st0" points="119.5,159.4 116,159.3 116,156 114.6,156 114.5,163.7 115.9,163.8 115.9,160.5 119.5,160.6 119.4,163.8 120.8,163.8 120.9,156.1 119.5,156.1" />
        <polygon class="st0" points="127.3,163.4 124,163 124.2,160.9 126.8,161.3 127,160.1 124.4,159.7 124.7,157.7 127.9,158.2 128,157 123.4,156.4 122.4,164 127.2,164.6" />
        <path class="st0" d="M72.6,289.6h2.3l0.3,1.3h1.6l-2.2-7.3h-1.8l-2.2,7.3h1.6L72.6,289.6z M73.7,285.1l0.8,3.2h-1.7L73.7,285.1z" />
        <polygon class="st0" points="80.8,290.9 81.8,286 82.7,290.9 84.2,290.9 85.9,283.6 84.3,283.6 83.4,288.7 82.3,283.6 81.2,283.6 80.1,288.7 79.2,283.6 77.6,283.6 79.3,290.9" />
        <polygon class="st0" points="90.4,290.9 91.3,286 92.2,290.9 93.8,290.9 95.5,283.6 93.9,283.6 92.9,288.7 91.9,283.6 90.7,283.6 89.7,288.7 88.7,283.6 87.1,283.6 88.8,290.9" />
        <polygon class="st0" points="99.9,290.9 100.8,286 101.8,290.9 103.3,290.9 105,283.6 103.4,283.6 102.5,288.7 101.4,283.6 100.3,283.6 99.2,288.7 98.3,283.6 96.7,283.6 98.4,290.9" />
        <path class="st0" d="M107.8,289.6h2.3l0.3,1.3h1.6l-2.2-7.3H108l-2.2,7.3h1.6L107.8,289.6z M108.9,285.1l0.8,3.2h-1.7L108.9,285.1z" />
        <path class="st0" d="M115.2,288.3h0.8l1.1,2.7h1.6l-1.3-2.9c0.6-0.2,1.3-0.8,1.3-2.1c0-1.4-0.9-2.3-2.2-2.3h-2.7v7.3h1.5V288.3z M115.2,284.9h1c0.6,0,0.9,0.4,0.9,1c0,0.6-0.4,1-0.9,1h-1V284.9z" />
        <path class="st0" d="M126.4,287.2c0-2.2-1.2-3.7-3.2-3.7h-2.4v7.3h2.4C125.3,290.9,126.4,289.4,126.4,287.2z M122.3,284.9h0.9 c1.1,0,1.7,0.9,1.7,2.4c0,1.4-0.6,2.4-1.7,2.4h-0.9V284.9z" />
        <path class="st0" d="M130.6,289.7c-0.7,0-1.4-0.3-1.8-0.8l-0.7,1.1c0.6,0.6,1.4,0.9,2.5,0.9c1.6,0,2.5-0.9,2.5-2.2 c0-2.5-3.3-2.2-3.3-3.3c0-0.5,0.3-0.7,0.9-0.7c0.6,0,1.1,0.2,1.6,0.6l0.7-1.1c-0.6-0.5-1.3-0.8-2.2-0.8c-1.5,0-2.4,1-2.4,2.1 c0,2.5,3.3,2,3.3,3.3C131.6,289.4,131.2,289.7,130.6,289.7z" />
        <path class="st0" d="M135.8,291c0.5,0,0.8-0.4,0.8-0.8c0-0.5-0.4-0.9-0.8-0.9c-0.5,0-0.9,0.4-0.9,0.9 C135,290.6,135.4,291,135.8,291z" />
        <path class="st0" d="M141.8,291c1.4,0,2.1-1,2.5-1.8l-1.2-0.5c-0.2,0.6-0.6,1.1-1.2,1.1c-1,0-1.6-1-1.6-2.5c0-1.4,0.6-2.5,1.6-2.5 c0.6,0,1,0.4,1.2,1l1.2-0.5c-0.4-0.8-1-1.8-2.5-1.8c-1.9,0-3.1,1.6-3.1,3.8C138.7,289.5,139.9,291,141.8,291z" />
        <path class="st0" d="M149,291c1.9,0,3.1-1.6,3.1-3.8c0-2.2-1.1-3.8-3.1-3.8c-1.9,0-3.1,1.6-3.1,3.8C145.9,289.4,147.1,291,149,291z M149,284.8c1,0,1.6,1.1,1.6,2.5c0,1.4-0.5,2.5-1.6,2.5c-1,0-1.5-1.1-1.5-2.5C147.4,285.8,148,284.8,149,284.8z" />
        <polygon class="st0" points="155.6,286.2 157.3,290.9 157.8,290.9 159.5,286.2 159.5,290.9 161,290.9 161,283.6 159,283.6 157.6,287.7 156.1,283.6 154.2,283.6 154.2,290.9 155.6,290.9" />
    </symbol>
    <symbol viewBox="0 0 360 360" id="award-webby">
        <style>
        .st0 {
            fill: #4d84f1
        }
        </style>
        <path class="st0" d="M37.8,187v12.8C136.9,193.9,63.1,190.8,37.8,187z" />
        <path class="st0" d="M37.8,208.1v12.6l0.8,0.2C114,214,92.5,211.4,37.8,208.1z" />
        <path class="st0" d="M37.8,96.9v41.2c62.2-2,62.4-5.6,30.2-9.9l5.8-7c39.8,6.1,37.3,16.1,8.6,21.1c9.5,3.4,43.5,9.5,2.5,21.9 c6.7,1.8,44.3,11.1-2.5,19.4c7.4,3.3,46.7,8.2,1.7,20.2c11.7,1.9,41.7,8.3,2,21.1c15,1.6,16.7,2,20.7,9.1V261h18.2V96.9H37.8z" />
        <path class="st0" d="M37.8,167.5v12.8C56.4,176.7,141.4,175.3,37.8,167.5z" />
        <path class="st0" d="M37.8,145.7v13.6C96,156.2,115.6,152.1,37.8,145.7z" />
        <path class="st0" d="M146.4,140.6h-9.9v-1.9h21.9v1.9h-9.9v26.6h-2.2L146.4,140.6L146.4,140.6z" />
        <path class="st0" d="M163.9,138.7h2.2v13.2h18.2v-13.2h2.2v28.5h-2.2v-13.4h-18.2v13.4h-2.2V138.7z" />
        <path class="st0" d="M193.8,138.7H214v1.9h-18.2v11.2h16.4v1.9h-16.4v11.5h18.4v1.9h-20.5V138.7z" />
        <path class="st0" d="M138,183.6h9.4l5.7,18.6l6.2-18.7h7.7l6.2,18.7l5.7-18.6h9.3L177.6,216h-7.8l-6.5-18.6l-6.5,18.6h-7.8 L138,183.6z" />
        <path class="st0" d="M188.1,199.3v-0.1c0-9.7,6.9-17.4,16.8-17.4c11.5,0,16.7,8.4,16.7,18.2c0,0.7,0,1.6-0.1,2.4h-22.3 c0.9,3.6,3.5,5.5,7.2,5.5c2.8,0,5-1,7.4-3.4l6.5,5.3c-3.2,4.1-7.8,6.7-14.3,6.7C195.5,216.6,188.1,209.7,188.1,199.3z M210.7,196.5 c-0.5-3.6-2.6-6-5.8-6c-3.1,0-5.1,2.4-5.8,6H210.7z" />
        <path class="st0" d="M226.4,183.6H243c4.1,0,6.9,1,8.9,2.8c1.2,1.4,2,3.1,2,5.2v0.1c0,3.7-2.2,5.9-5,7.2c4,1.2,6.4,3.5,6.4,7.8v0.1 c0,5.6-4.5,8.9-12.3,8.9h-16.7v-32.2H226.4z M245.1,193.4c0-1.8-1.5-2.7-4.1-2.7h-5.9v5.7h5.7C243.5,196.4,245.1,195.5,245.1,193.4 L245.1,193.4z M242,202.6h-6.8v5.9h6.9c2.7,0,4.3-1,4.3-3v-0.1C246.3,203.8,244.9,202.6,242,202.6z" />
        <path class="st0" d="M260.6,183.6h16.6c4.1,0,6.9,1,8.9,2.8c1.2,1.4,2,3.1,2,5.2v0.1c0,3.7-2.2,5.9-5,7.2c4,1.2,6.4,3.5,6.4,7.8 v0.1c0,5.6-4.5,8.9-12.3,8.9h-16.6V183.6z M279.3,193.4c0-1.8-1.5-2.7-4.1-2.7h-5.9v5.7h5.7C277.7,196.4,279.3,195.5,279.3,193.4 L279.3,193.4z M276.2,202.6h-6.8v5.9h6.9c2.7,0,4.3-1,4.3-3v-0.1C280.5,203.8,279.1,202.6,276.2,202.6z" />
        <path class="st0" d="M301.8,203.8l-12.3-20.2h10.2l6.6,11.8l6.7-11.8h10l-12.3,20.1v12.3h-9L301.8,203.8L301.8,203.8z" />
        <path class="st0" d="M152.6,229.6h2l13.3,28.7h-2.3l-3.6-8h-16.8l-3.6,8h-2.2L152.6,229.6z M161.1,248.4l-7.5-16.5l-7.5,16.5H161.1 z" />
        <path class="st0" d="M167.8,229.8h2.4l9,25.3l8.3-25.5h1.6l8.3,25.5l9-25.3h2.2l-10.3,28.7h-1.7l-8.3-24.8l-8.3,24.8h-1.7 L167.8,229.8z" />
        <path class="st0" d="M222.3,229.7h2l13.3,28.7h-2.3l-3.6-8h-16.8l-3.6,8h-2.2L222.3,229.7z M230.8,248.4l-7.5-16.5l-7.5,16.5H230.8 z" />
        <path class="st0" d="M242.6,229.8h11.9c3.5,0,6.4,1.1,8.1,2.8c1.4,1.4,2.2,3.3,2.2,5.3v0.1c0,4.8-3.5,7.5-8.3,8.2l9.4,12.2h-2.7 l-9.1-11.8h-9.3v11.8h-2.2L242.6,229.8L242.6,229.8z M254.3,244.6c4.8,0,8.3-2.4,8.3-6.5V238c0-3.9-3-6.2-8.2-6.2h-9.8v12.8H254.3z" />
        <path class="st0" d="M271,229.8h9.4c9,0,15.1,6.1,15.1,14.2v0.1c0,8.1-6.1,14.2-15.1,14.2H271V229.8z M273.1,231.7v24.5h7.4 c8,0,13-5.5,13-12.2V244c0-6.7-5-12.3-13-12.3H273.1z" />
        <path class="st0" d="M299.5,254.1l1.4-1.6c3.2,2.8,6,4.2,10.2,4.2c4.3,0,7.2-2.4,7.2-5.7v-0.1c0-3.1-1.6-4.8-8.1-6 c-6.8-1.4-9.7-3.7-9.7-8.1v-0.1c0-4.2,3.9-7.5,9.2-7.5c4.2,0,6.9,1.1,9.8,3.4l-1.4,1.7c-2.7-2.3-5.3-3.2-8.5-3.2 c-4.2,0-6.9,2.4-6.9,5.3v0.1c0,3.1,1.6,4.9,8.3,6.2c6.6,1.4,9.3,3.7,9.3,7.8v0.1c0,4.5-4,7.7-9.4,7.7 C306.4,258.8,302.9,257.2,299.5,254.1z" />
    </symbol>
    <symbol viewBox="-160.8 175 12 12" id="icon-checkmark">
        <path d="M-156.3,185.5l-4.5-4.3l1.4-1.4l3.1,2.9l6.1-6.2l1.4,1.4L-156.3,185.5z" />
    </symbol>
    <symbol viewBox="-34.6 42 18 18" id="icon-close">
        <style>
        .st0 {
            fill: none
        }
        </style>
        <path d="M-16.6,43.8l-1.8-1.8l-7.2,7.2l-7.2-7.2l-1.8,1.8l7.2,7.2l-7.2,7.2l1.8,1.8l7.2-7.2l7.2,7.2l1.8-1.8l-7.2-7.2L-16.6,43.8z" />
        <path class="st0" d="M-330,424h24v24h-24V424z" />
    </symbol>
    <symbol viewBox="-293 385 24 24" id="icon-create">
        <path d="M-290,402.3v3.8h3.8l11.1-11.1l-3.8-3.8L-290,402.3z M-272.3,392c0.4-0.4,0.4-1,0-1.4l-2.3-2.3c-0.4-0.4-1-0.4-1.4,0 l-1.8,1.8l3.8,3.8C-274.1,393.9-272.3,392-272.3,392z" />
        <path fill="none" d="M-293,385h24v24h-24V385z" />
    </symbol>
    <symbol viewBox="-381 302 20 11" id="icon-file">
        <path d="M-381,307.5c0-3,2.5-5.5,5.5-5.5h10.5c2.2,0,4,1.8,4,4s-1.8,4-4,4h-8.5c-1.4,0-2.5-1.1-2.5-2.5s1.1-2.5,2.5-2.5h7.5v2h-7.6 c-0.6,0-0.6,1,0,1h8.6c1.1,0,2-0.9,2-2s-0.9-2-2-2h-10.5c-1.9,0-3.5,1.6-3.5,3.5s1.6,3.5,3.5,3.5h9.5v2h-9.5 C-378.5,313-381,310.5-381,307.5z" />
    </symbol>
    <symbol viewBox="0 0 24 24" id="icon-mail">
        <path d="M12 12.713l-11.985-9.713h23.971l-11.986 9.713zm-5.425-1.822l-6.575-5.329v12.501l6.575-7.172zm10.85 0l6.575 7.172v-12.501l-6.575 5.329zm-1.557 1.261l-3.868 3.135-3.868-3.135-8.11 8.848h23.956l-8.11-8.848z" />
    </symbol>
    <symbol viewBox="-293 385 24 24" id="icon-menu">
        <path fill="none" d="M-293,385h24v24h-24V385z" />
        <path d="M-290,403h18v-2h-18V403z M-290,398h18v-2h-18V398z M-290,391v2h18v-2H-290z" />
    </symbol>
    <symbol viewBox="-293 385 24 24" id="icon-search">
        <path d="M-277.5,399h-0.8l-0.3-0.3c1-1.1,1.6-2.6,1.6-4.2c0-3.6-2.9-6.5-6.5-6.5s-6.5,2.9-6.5,6.5s2.9,6.5,6.5,6.5 c1.6,0,3.1-0.6,4.2-1.6l0.3,0.3v0.8l5,5l1.5-1.5L-277.5,399z M-283.5,399c-2.5,0-4.5-2-4.5-4.5s2-4.5,4.5-4.5s4.5,2,4.5,4.5 S-281,399-283.5,399z" />
        <path fill="none" d="M-293,385h24v24h-24V385z" />
    </symbol>
    <symbol viewBox="-293 385 24 24" id="icon-send">
        <path d="M-291,406l21-9l-21-9l0,7l15,2l-15,2L-291,406z" />
        <path fill="none" d="M-293,385h24v24h-24V385z" />
    </symbol>
    <symbol viewBox="0 0 20 20" id="icon-share">
        <path d="M16,14.1c-0.8,0-1.4,0.3-2,0.8l-7.2-4.2C6.9,10.5,7,10.3,7,10c0-0.2,0-0.5-0.1-0.7L14,5.2 C14.5,5.7,15.2,6,16,6c1.7,0,3-1.3,3-3s-1.3-3-3-3s-3,1.3-3,3c0,0.2,0,0.5,0.1,0.7L6,7.8C5.5,7.3,4.8,7,4,7c-1.7,0-3,1.3-3,3 s1.3,3,3,3c0.8,0,1.5-0.3,2-0.8l7.1,4.2c-0.1,0.2-0.1,0.4-0.1,0.7c0,1.6,1.3,2.9,2.9,2.9s2.9-1.3,2.9-2.9S17.6,14.1,16,14.1z" />
    </symbol>
    <symbol viewBox="0 0 100 100" id="icon-sword">
        <path d="M39.1,57.7c3,2.4,6.8,3.8,10.9,3.8c4.1,0,7.9-1.4,10.9-3.7l6.8,7.2l-6.8,7.2c-3-2.4-6.8-3.8-10.9-3.8 c-4.1,0-7.9,1.4-10.9,3.7l-6.8-7.2L39.1,57.7z M49.9,0l-5.8,12L44,58.1c1.9,0.7,3.9,1,6,1.1c1.9,0,3.8-0.3,5.5-0.9L55.6,12L49.9,0z M49.7,91.2c2.4,0,4.4,2,4.4,4.4c0,2.4-2,4.4-4.4,4.4c-2.4,0-4.4-2-4.4-4.4C45.3,93.2,47.3,91.2,49.7,91.2 M52.5,89.5l2.1-18.2 c-1.5-0.4-3-0.6-4.6-0.6c-1.8,0-3.5,0.3-5.1,0.7l2,18.1c0.8-0.4,1.8-0.6,2.8-0.6C50.7,88.9,51.6,89.1,52.5,89.5" />
    </symbol>
    <symbol viewBox="0 0 6 6" id="map-marker">
        <circle fill="#231F20" cx="3" cy="3" r="3" />
    </symbol>
    <symbol viewBox="-278 370 54 54" id="menu-path">
        <path d="M-261.5,397c0,0,8.4,0,22,0s11.4-11.4,8-15.6c-4.6-5.7-11.6-9.4-19.5-9.4c-13.8,0-25,11.2-25,25s11.2,25,25,25 s25-11.2,25-25c0-14-11.2-25-25-25" />
    </symbol>
    <symbol viewBox="0 0 16 16" id="search">
        <path clip-path="url(#SVGID_2_)" d="M15.9,14.4l-4.1-4.1C12.6,9.2,13,7.9,13,6.5C13,2.9,10.1,0,6.6,0C3,0,0.1,2.9,0.1,6.5 C0.1,10.1,3,13,6.6,13c1.4,0,2.6-0.4,3.7-1.1l4.2,4.2L15.9,14.4z M2,6.5C2,4,4,1.9,6.6,1.9c2.5,0,4.6,2.1,4.6,4.6 c0,2.5-2.1,4.6-4.6,4.6C4,11.1,2,9,2,6.5" />
    </symbol>
    <symbol viewBox="0 0 24 24" id="social-500px">
        <path d="M5.926 15.765l.204.534c.396.935.961 1.775 1.683 2.497.721.721 1.561 1.287 2.497 1.683.969.41 1.998.617 3.058.617 1.06 0 2.089-.208 3.058-.618.936-.396 1.775-.962 2.497-1.683s1.288-1.561 1.684-2.497c.41-.969.618-1.998.618-3.058 0-1.06-.208-2.089-.618-3.058-.396-.935-.962-1.775-1.684-2.497-.721-.721-1.561-1.288-2.497-1.684-.969-.41-1.998-.617-3.058-.617-1.073 0-2.145.213-3.101.617-.763.323-2.056 1.155-2.812 1.935l-.004-6.46h10.86c.395-.004.395-.556.395-.737 0-.182 0-.733-.396-.738h-11.743c-.32 0-.518.266-.518.512v9.101c0 .293.366.505.706.578.664.142.817-.07.979-.295l.022-.03c.248-.369 1.023-1.149 1.031-1.157 1.21-1.21 2.828-1.876 4.555-1.876 1.72 0 3.333.667 4.543 1.876 1.214 1.214 1.883 2.823 1.883 4.53 0 1.713-.666 3.322-1.874 4.53-1.192 1.193-2.858 1.876-4.57 1.876-1.16 0-2.279-.309-3.238-.894l.004-5.533c0-.738.32-1.54.857-2.146.613-.692 1.458-1.073 2.379-1.073.893 0 1.726.338 2.347.954.616.611.956 1.424.956 2.291 0 1.849-1.454 3.297-3.31 3.297-.358 0-1.008-.158-1.035-.165-.375-.112-.534.409-.586.58-.202.66.101.791.164.81.597.185.989.22 1.503.22 2.62 0 4.752-2.133 4.752-4.754 0-2.601-2.13-4.716-4.749-4.716-1.283 0-2.487.49-3.393 1.38-.862.848-1.356 1.978-1.356 3.101v.028c-.004.14-.007 3.457-.008 4.545-.493-.545-.984-1.385-1.307-2.238-.126-.334-.412-.275-.802-.155-.172.052-.69.212-.576.587zm5.584-1.296c.001.159.147.299.234.382l.027.026c.149.147.291.221.422.221.109 0 .175-.051.199-.073l.879-.886.829.826c.077.086.16.13.257.132.132 0 .276-.079.428-.233.357-.365.179-.562.092-.657l-.839-.84.875-.881c.192-.208.023-.429-.146-.598-.246-.246-.482-.309-.634-.169l-.871.872-.88-.881c-.047-.044-.105-.068-.17-.068-.117 0-.256.08-.413.236-.271.271-.329.458-.188.607l.88.877-.875.877c-.071.073-.107.15-.106.23zm1.919-11.898c-1.407 0-2.904.284-4.004.76-.118.046-.188.141-.204.273-.014.125.02.29.104.505.068.174.25.637.6.503 1.125-.429 2.37-.666 3.504-.666 1.285 0 2.53.251 3.703.747.932.395 1.811.964 2.767 1.792.07.061.144.091.22.091.187 0 .365-.183.518-.354.255-.286.431-.524.179-.762-.913-.865-1.913-1.511-3.148-2.033-1.343-.568-2.77-.856-4.239-.856zm7.582 17.377c-.169-.169-.313-.269-.44-.305-.128-.037-.243-.009-.331.079l-.083.083c-.872.872-1.888 1.557-3.019 2.035-1.17.495-2.414.746-3.696.746s-2.525-.251-3.696-.746c-1.131-.478-2.146-1.163-3.019-2.035-.909-.909-1.594-1.924-2.035-3.019-.431-1.067-.572-1.87-.618-2.133l-.01-.057c-.059-.311-.345-.332-.756-.27-.17.026-.69.106-.641.48l.001.008c.138.866.381 1.714.723 2.523.549 1.299 1.336 2.466 2.337 3.467s2.168 1.788 3.467 2.337c1.346.57 2.774.859 4.247.859 1.472 0 2.901-.289 4.247-.858 1.298-.549 2.465-1.336 3.467-2.338l.087-.089c.11-.12.206-.33-.232-.767z" />
    </symbol>
    <symbol viewBox="0 0 24 24" id="social-behance">
        <path d="M22 7h-7v-2h7v2zm1.726 10c-.442 1.297-2.029 3-5.101 3-3.074 0-5.564-1.729-5.564-5.675 0-3.91 2.325-5.92 5.466-5.92 3.082 0 4.964 1.782 5.375 4.426.078.506.109 1.188.095 2.14h-8.027c.13 3.211 3.483 3.312 4.588 2.029h3.168zm-7.686-4h4.965c-.105-1.547-1.136-2.219-2.477-2.219-1.466 0-2.277.768-2.488 2.219zm-9.574 6.988h-6.466v-14.967h6.953c5.476.081 5.58 5.444 2.72 6.906 3.461 1.26 3.577 8.061-3.207 8.061zm-3.466-8.988h3.584c2.508 0 2.906-3-.312-3h-3.272v3zm3.391 3h-3.391v3.016h3.341c3.055 0 2.868-3.016.05-3.016z" />
    </symbol>
    <symbol viewBox="0 0 24 24" id="social-bitbucket">
        <path d="M19.46 16.9L19.2 17.02C18.72 17.4 18.14 17.73 17.45 18c-0.69 0.27-1.32 0.47-1.88 0.6 -0.57 0.13-1.16 0.23-1.79 0.3 -0.62 0.07-1.04 0.11-1.26 0.12 -0.22 0.01-0.39 0.01-0.52 0.01l-1.23-0.07c-0.81-0.03-1.82-0.22-3.02-0.55s-2.18-0.8-2.93-1.39c-0.1-0.08-0.19-0.12-0.29-0.12 -0.24 0-0.36 0.14-0.36 0.41V17.4c0.19 1.06 0.44 2.34 0.74 3.86 0.16 0.78 0.92 1.44 2.28 1.96C8.56 23.74 10.16 24 12 24s3.44-0.26 4.8-0.78c1.36-0.52 2.13-1.17 2.3-1.95 0.13-0.64 0.37-1.93 0.72-3.86 0.02-0.03 0.02-0.06 0.02-0.1C19.85 17.03 19.72 16.9 19.46 16.9zM12 9.91c-0.91 0-1.66 0.74-1.66 1.66 0 0.91 0.74 1.65 1.66 1.65s1.66-0.74 1.66-1.65C13.66 10.65 12.92 9.91 12 9.91zM19.36 1.01C17.33 0.34 14.88 0 12 0 9.14 0 6.69 0.34 4.66 1.01 2.62 1.68 1.61 2.5 1.61 3.46c0 0.42 0.58 3.94 1.75 10.56C3.49 14.75 4.37 15.47 6 16.15c1.63 0.69 3.63 1.03 6 1.03s4.37-0.34 6-1.03c1.63-0.69 2.52-1.4 2.66-2.14 1.15-6.85 1.73-10.37 1.73-10.56C22.39 2.5 21.38 1.68 19.36 1.01zM12 14.88c-1.83 0-3.31-1.48-3.31-3.31 0-1.83 1.48-3.31 3.31-3.31s3.31 1.48 3.31 3.31C15.31 13.4 13.83 14.88 12 14.88zM12.01 4.51c-3.68 0-6.66-0.63-6.66-1.42 0-0.78 2.98-1.42 6.66-1.42s6.66 0.64 6.66 1.42C18.67 3.88 15.69 4.51 12.01 4.51z" />
    </symbol>
    <symbol viewBox="0 0 24 24" id="social-dribbble">
        <path d="M12 0c-6.628 0-12 5.373-12 12s5.372 12 12 12 12-5.373 12-12-5.372-12-12-12zm9.885 11.441c-2.575-.422-4.943-.445-7.103-.073-.244-.563-.497-1.125-.767-1.68 2.31-1 4.165-2.358 5.548-4.082 1.35 1.594 2.197 3.619 2.322 5.835zm-3.842-7.282c-1.205 1.554-2.868 2.783-4.986 3.68-1.016-1.861-2.178-3.676-3.488-5.438.779-.197 1.591-.314 2.431-.314 2.275 0 4.368.779 6.043 2.072zm-10.516-.993c1.331 1.742 2.511 3.538 3.537 5.381-2.43.715-5.331 1.082-8.684 1.105.692-2.835 2.601-5.193 5.147-6.486zm-5.44 8.834l.013-.256c3.849-.005 7.169-.448 9.95-1.322.233.475.456.952.67 1.432-3.38 1.057-6.165 3.222-8.337 6.48-1.432-1.719-2.296-3.927-2.296-6.334zm3.829 7.81c1.969-3.088 4.482-5.098 7.598-6.027.928 2.42 1.609 4.91 2.043 7.46-3.349 1.291-6.953.666-9.641-1.433zm11.586.43c-.438-2.353-1.08-4.653-1.92-6.897 1.876-.265 3.94-.196 6.199.196-.437 2.786-2.028 5.192-4.279 6.701z" />
    </symbol>
    <symbol viewBox="0 0 20 20" id="social-email">
        <path d="M18,2H2C0.9,2,0,2.9,0,4l0,12c0,1.1,0.9,2,2,2h16c1.1,0,2-0.9,2-2V4C20,2.9,19.1,2,18,2z M18,6l-8,5L2,6V4 l8,5l8-5V6z" />
    </symbol>
    <symbol viewBox="0 0 24 24" id="social-facebook">
        <path d="M9 8h-3v4h3v12h5v-12h3.642l.358-4h-4v-1.667c0-.955.192-1.333 1.115-1.333h2.885v-5h-3.808c-3.596 0-5.192 1.583-5.192 4.615v3.385z" />
    </symbol>
    <symbol viewBox="0 0 24 24" id="social-flickr">
        <path d="M17 5c-1.961 0-3.731.809-5.002 2.108-1.27-1.299-3.038-2.108-4.998-2.108-3.866 0-7 3.134-7 7s3.134 7 7 7c1.96 0 3.728-.809 4.998-2.108 1.271 1.299 3.041 2.108 5.002 2.108 3.866 0 7-3.134 7-7s-3.134-7-7-7zm0 12c-2.757 0-5-2.243-5-5s2.243-5 5-5 5 2.243 5 5-2.243 5-5 5z" />
    </symbol>
    <symbol viewBox="0 0 24 24" id="social-github">
        <path d="M12 0c-6.626 0-12 5.373-12 12 0 5.302 3.438 9.8 8.207 11.387.599.111.793-.261.793-.577v-2.234c-3.338.726-4.033-1.416-4.033-1.416-.546-1.387-1.333-1.756-1.333-1.756-1.089-.745.083-.729.083-.729 1.205.084 1.839 1.237 1.839 1.237 1.07 1.834 2.807 1.304 3.492.997.107-.775.418-1.305.762-1.604-2.665-.305-5.467-1.334-5.467-5.931 0-1.311.469-2.381 1.236-3.221-.124-.303-.535-1.524.117-3.176 0 0 1.008-.322 3.301 1.23.957-.266 1.983-.399 3.003-.404 1.02.005 2.047.138 3.006.404 2.291-1.552 3.297-1.23 3.297-1.23.653 1.653.242 2.874.118 3.176.77.84 1.235 1.911 1.235 3.221 0 4.609-2.807 5.624-5.479 5.921.43.372.823 1.102.823 2.222v3.293c0 .319.192.694.801.576 4.765-1.589 8.199-6.086 8.199-11.386 0-6.627-5.373-12-12-12z" />
    </symbol>
    <symbol viewBox="0 0 24 24" id="social-google">
        <path d="M7 11v2.4h3.97c-.16 1.029-1.2 3.02-3.97 3.02-2.39 0-4.34-1.979-4.34-4.42 0-2.44 1.95-4.42 4.34-4.42 1.36 0 2.27.58 2.79 1.08l1.9-1.83c-1.22-1.14-2.8-1.83-4.69-1.83-3.87 0-7 3.13-7 7s3.13 7 7 7c4.04 0 6.721-2.84 6.721-6.84 0-.46-.051-.81-.111-1.16h-6.61zm0 0 17 2h-3v3h-2v-3h-3v-2h3v-3h2v3h3v2z" fill-rule="evenodd" clip-rule="evenodd" />
    </symbol>
    <symbol viewBox="0 0 24 24" id="social-instagram">
        <path d="M21.231 0h-18.462c-1.529 0-2.769 1.24-2.769 2.769v18.46c0 1.531 1.24 2.771 2.769 2.771h18.463c1.529 0 2.768-1.24 2.768-2.771v-18.46c0-1.529-1.239-2.769-2.769-2.769zm-9.231 7.385c2.549 0 4.616 2.065 4.616 4.615 0 2.549-2.067 4.616-4.616 4.616s-4.615-2.068-4.615-4.616c0-2.55 2.066-4.615 4.615-4.615zm9 12.693c0 .509-.413.922-.924.922h-16.152c-.511 0-.924-.413-.924-.922v-10.078h1.897c-.088.315-.153.64-.2.971-.05.337-.081.679-.081 1.029 0 4.079 3.306 7.385 7.384 7.385s7.384-3.306 7.384-7.385c0-.35-.031-.692-.081-1.028-.047-.331-.112-.656-.2-.971h1.897v10.077zm0-13.98c0 .509-.413.923-.924.923h-2.174c-.511 0-.923-.414-.923-.923v-2.175c0-.51.412-.923.923-.923h2.174c.511 0 .924.413.924.923v2.175z" fill-rule="evenodd" clip-rule="evenodd" />
    </symbol>
    <symbol viewBox="0 0 24 24" id="social-linkedin">
        <path d="M4.98 3.5c0 1.381-1.11 2.5-2.48 2.5s-2.48-1.119-2.48-2.5c0-1.38 1.11-2.5 2.48-2.5s2.48 1.12 2.48 2.5zm.02 4.5h-5v16h5v-16zm7.982 0h-4.968v16h4.969v-8.399c0-4.67 6.029-5.052 6.029 0v8.399h4.988v-10.131c0-7.88-8.922-7.593-11.018-3.714v-2.155z" />
    </symbol>
    <symbol viewBox="0 0 24 24" id="social-pinterest">
        <path d="M12.32 0C6.04 0 2.71 4.22 2.71 8.81c0 2.13 1.14 4.79 2.95 5.64 0.28 0.13 0.42 0.07 0.49-0.19 0.05-0.2 0.3-1.19 0.4-1.65 0.04-0.15 0.02-0.27-0.1-0.42 -0.6-0.73-1.08-2.07-1.08-3.32 0-3.21 2.43-6.31 6.57-6.31 3.58 0 6.08 2.44 6.08 5.92 0 3.94-1.98 6.66-4.57 6.66 -1.43 0-2.5-1.18-2.16-2.63 0.41-1.73 1.21-3.6 1.21-4.84 0-1.12-0.6-2.05-1.84-2.05 -1.46 0-2.63 1.51-2.63 3.54 0 1.29 0.44 2.16 0.44 2.16S7.01 17.4 6.75 18.54c-0.45 1.93 0.06 5.05 0.1 5.32 0.02 0.15 0.19 0.2 0.28 0.07 0.14-0.19 1.88-2.8 2.37-4.68 0.18-0.68 0.9-3.46 0.9-3.46 0.48 0.91 1.86 1.67 3.34 1.67 4.39 0 7.55-4.04 7.55-9.05C21.29 3.6 17.37 0 12.32 0" />
    </symbol>
    <symbol viewBox="0 0 24 24" id="social-soundcloud">
        <path d="M7 17.939h-1v-8.068c.308-.231.639-.429 1-.566v8.634zm3 0h1v-9.224c-.229.265-.443.548-.621.857l-.379-.184v8.551zm-2 0h1v-8.848c-.508-.079-.623-.05-1-.01v8.858zm-4 0h1v-7.02c-.312.458-.555.971-.692 1.535l-.308-.182v5.667zm-3-5.25c-.606.547-1 1.354-1 2.268 0 .914.394 1.721 1 2.268v-4.536zm18.879-.671c-.204-2.837-2.404-5.079-5.117-5.079-1.022 0-1.964.328-2.762.877v10.123h9.089c1.607 0 2.911-1.393 2.911-3.106 0-2.233-2.168-3.772-4.121-2.815zm-16.879-.027c-.302-.024-.526-.03-1 .122v5.689c.446.143.636.138 1 .138v-5.949z" />
    </symbol>
    <symbol viewBox="0 0 24 24" id="social-stackoverflow">
        <path d="M15 21h-10v-2h10v2zm6-11.665l-1.621-9.335-1.993.346 1.62 9.335 1.994-.346zm-5.964 6.937l-9.746-.975-.186 2.016 9.755.879.177-1.92zm.538-2.587l-9.276-2.608-.526 1.954 9.306 2.5.496-1.846zm1.204-2.413l-8.297-4.864-1.029 1.743 8.298 4.865 1.028-1.744zm1.866-1.467l-5.339-7.829-1.672 1.14 5.339 7.829 1.672-1.14zm-2.644 4.195v8h-12v-8h-2v10h16v-10h-2z" />
    </symbol>
    <symbol viewBox="0 0 24 24" id="social-steam">
        <path d="M22.411 9.681c0 .924-.751 1.676-1.676 1.676-.924 0-1.676-.752-1.676-1.676s.752-1.676 1.676-1.676c.925 0 1.676.752 1.676 1.676zm1.589 0c0 1.801-1.464 3.282-3.303 3.263l-2.872 2.141-.006.002c-.008 1.369-1.111 2.483-2.485 2.496-1.24.01-2.257-.872-2.484-2.021l-8.962-3.769c-.39.256-.854.409-1.354.414-1.398.012-2.521-1.109-2.534-2.486-.014-1.395 1.113-2.534 2.511-2.534 1.213 0 2.228.863 2.459 2.013l8.971 3.772c.416-.272.896-.418 1.428-.407l2.105-2.946c.033-1.773 1.48-3.202 3.262-3.202 1.802 0 3.264 1.461 3.264 3.264zm-20.794 1.826l-1.226-.515c-.716-.301-1.052-1.125-.751-1.84.301-.716 1.125-1.052 1.841-.751l1.211.509c-.303-.678-.984-1.153-1.77-1.153-1.096.004-1.951.895-1.941 1.958.01 1.044.861 1.926 1.958 1.922.236-.002.464-.048.678-.13zm14.045 3.547c-.01-1.06-.88-1.922-1.939-1.922-.229.001-.455.04-.686.127l1.229.517c.716.301 1.052 1.125.751 1.84-.301.715-1.124 1.052-1.841.751l-1.23-.518c.302.685.985 1.165 1.794 1.162 1.072-.009 1.932-.884 1.922-1.957zm5.703-5.373c0-1.224-.995-2.219-2.219-2.219-1.223 0-2.219.995-2.219 2.219 0 1.223.996 2.219 2.219 2.219 1.224 0 2.219-.996 2.219-2.219z" />
    </symbol>
    <symbol viewBox="0 0 24 24" id="social-twitter">
        <path d="M24 4.557c-.883.392-1.832.656-2.828.775 1.017-.609 1.798-1.574 2.165-2.724-.951.564-2.005.974-3.127 1.195-.897-.957-2.178-1.555-3.594-1.555-3.179 0-5.515 2.966-4.797 6.045-4.091-.205-7.719-2.165-10.148-5.144-1.29 2.213-.669 5.108 1.523 6.574-.806-.026-1.566-.247-2.229-.616-.054 2.281 1.581 4.415 3.949 4.89-.693.188-1.452.232-2.224.084.626 1.956 2.444 3.379 4.6 3.419-2.07 1.623-4.678 2.348-7.29 2.04 2.179 1.397 4.768 2.212 7.548 2.212 9.142 0 14.307-7.721 13.995-14.646.962-.695 1.797-1.562 2.457-2.549z" />
    </symbol>
    <symbol viewBox="0 0 24 24" id="social-vimeo">
        <path d="M22.875 10.063c-2.442 5.217-8.337 12.319-12.063 12.319-3.672 0-4.203-7.831-6.208-13.043-.987-2.565-1.624-1.976-3.474-.681l-1.128-1.455c2.698-2.372 5.398-5.127 7.057-5.28 1.868-.179 3.018 1.098 3.448 3.832.568 3.593 1.362 9.17 2.748 9.17 1.08 0 3.741-4.424 3.878-6.006.243-2.316-1.703-2.386-3.392-1.663 2.673-8.754 13.793-7.142 9.134 2.807z" />
    </symbol>
    <symbol viewBox="0 0 24 24" id="social-youtube">
        <path d="M19.615 3.184c-3.604-.246-11.631-.245-15.23 0-3.897.266-4.356 2.62-4.385 8.816.029 6.185.484 8.549 4.385 8.816 3.6.245 11.626.246 15.23 0 3.897-.266 4.356-2.62 4.385-8.816-.029-6.185-.484-8.549-4.385-8.816zm-10.615 12.816v-8l8 3.993-8 4.007z" />
    </symbol>
    <symbol viewBox="-86.8 199.9 479.6 388.1" id="triangle-stroke">
        <polygon points="153.1,211.3 382.1,582 -76,582" />
    </symbol>
</svg>
