<?xml version="1.0" encoding="iso-8859-1"?>
<!-- Generator: Adobe Illustrator 16.0.3, SVG Export Plug-In . SVG Version: 6.00 Build 0)  -->
<!DOCTYPE svg PUBLIC "-//W3C//DTD SVG 1.1//EN" "http://www.w3.org/Graphics/SVG/1.1/DTD/svg11.dtd">
<svg version="1.1" id="&#x30EC;&#x30A4;&#x30E4;&#x30FC;_1"
	 xmlns="http://www.w3.org/2000/svg" xmlns:xlink="http://www.w3.org/1999/xlink" x="0px" y="0px" width="58.326px"
	 height="450.973px" viewBox="0 0 58.326 450.973" style="enable-background:new 0 0 58.326 450.973;" xml:space="preserve">
<g>
	<path d="M14.874,4.216c0.195-0.39,0.469-0.586,0.82-0.586c0.507,0,1.092,0.079,1.757,0.234c4.88-1.132,9.564-2.088,14.054-2.87
		c1.172-0.195,1.913-0.371,2.227-0.527C34.511,0.156,34.999,0,35.194,0c0.742,0,2.226,0.761,4.451,2.284
		c1.249,0.859,1.874,1.484,1.874,1.874c0,0.313-0.176,0.8-0.527,1.464c-0.313,0.703-0.468,1.581-0.468,2.635
		c0,0.196,0,0.449,0,0.761c0.038,1.601,0.117,7.496,0.234,17.685c0,2.616-0.04,4.295-0.117,5.036
		c-0.117,1.679-0.586,3.143-1.406,4.392c-0.508,0.742-0.996,1.113-1.464,1.113c-0.898,0-1.64-0.585-2.226-1.757l-2.049-4.041
		c-0.079-0.156-0.449-0.605-1.113-1.347c-0.469,0-0.762,0-0.879,0c-0.585-0.038-0.898-0.059-0.937-0.059
		c-0.976,0-3.396,0.313-7.261,0.937c-1.133,0.157-2.284,0.352-3.455,0.586c-0.431,1.25-0.996,1.874-1.699,1.874
		c-0.508,0-1.016-0.332-1.521-0.996c-0.391-0.546-0.742-1.289-1.055-2.226c-0.234-0.82-0.352-1.659-0.352-2.518
		c0-0.585,0.039-1.444,0.117-2.577c0.039-0.937,0.234-5.016,0.586-12.239l0.059-4.861c0-1.132-0.079-1.893-0.234-2.284
		C15.636,5.349,15.343,4.841,14.874,4.216z M19.384,5.329c0.234,0.391,0.37,0.684,0.41,0.878c0.117,0.313,0.176,0.742,0.176,1.289
		l-0.059,6.441c0,0.43,0,1.152,0,2.167c1.014,0,3.317-0.624,6.91-1.874c0.74-0.312,1.268-0.507,1.58-0.585
		c0.273-0.078,0.625-0.117,1.055-0.117c0.78,0,1.482,0.117,2.107,0.351c1.016,0.352,1.523,0.899,1.523,1.64
		c0,0.352-0.254,0.625-0.762,0.82c-0.469,0.234-2.069,0.586-4.802,1.054c-2.812,0.469-4.529,0.703-5.153,0.703
		c-0.547,0-1.367-0.234-2.459-0.703c0,3.787,0.038,7.75,0.117,11.888c0.702-0.078,2.576-0.41,5.621-0.995
		c3.709-0.624,5.738-0.937,6.09-0.937c1.094,0,2.146,0.664,3.162,1.991l0.469,0.234c0.195-0.312,0.293-0.624,0.293-0.937
		c0-0.117,0-1.015,0-2.694v-1.991c0-7.534-0.059-13.313-0.176-17.334c-0.039-1.522-0.039-2.303,0-2.342
		c0-0.546-0.078-0.917-0.234-1.113c-0.195-0.234-0.526-0.352-0.995-0.352c-1.874,0-5.935,0.723-12.181,2.167
		C21.335,5.134,20.438,5.251,19.384,5.329z"/>
	<path d="M12.708,88.191c0.117-0.741,0.176-1.385,0.176-1.933c0-1.561-0.273-3.083-0.82-4.567c-0.078-0.195-0.391-0.781-0.938-1.757
		c-0.195-0.312-0.293-0.703-0.293-1.171c0-0.429,0.234-1.874,0.703-4.333c-1.756,1.054-2.928,1.581-3.514,1.581
		c-0.625,0-1.543-0.331-2.752-0.996c1.209-0.39,2.674-1.151,4.393-2.284c0.857-0.624,1.443-1.132,1.756-1.522
		c0.469-0.586,0.82-1.054,1.055-1.406c0.195-0.272,0.429-0.41,0.703-0.41c0.351,0,1.111,0.449,2.283,1.347
		c1.405,1.094,2.108,1.796,2.108,2.108c0,0.117-0.138,0.332-0.41,0.644c-0.859,0.937-2.362,2.655-4.509,5.153
		c1.209,1.367,2.068,2.401,2.576,3.104c0.586,0.82,0.879,1.582,0.879,2.284c0,1.016-0.508,2.382-1.523,4.099
		c1.562,0.04,4.432,0.566,8.609,1.581c4.645,1.21,9.486,2.147,14.522,2.811c1.562,0.196,3.474,0.332,5.739,0.41
		c7.339,0.313,11.945,0.45,13.82,0.41v0.352c-1.68,0.82-3.787,1.64-6.324,2.459c-1.563,0.547-3.163,1.074-4.803,1.581
		c-1.64,0.508-2.85,0.761-3.631,0.761c-0.82,0-2.049-0.273-3.689-0.82c-3.279-1.054-8.745-2.928-16.396-5.622
		c-3.592-1.249-6.246-1.874-7.965-1.874c-1.054,0-2.264,0.156-3.631,0.468c-1.483,0.352-2.713,0.801-3.688,1.347
		c-0.313,0.156-0.508,0.234-0.586,0.234c-0.508,0-0.995-0.644-1.464-1.933c-0.039,0-0.234-0.527-0.586-1.581
		c1.093,0,1.854-0.019,2.284-0.059C8.394,88.543,10.365,88.387,12.708,88.191z M9.955,58.15c0.858-0.117,1.757-0.176,2.694-0.176
		c1.522,0,2.811,0.137,3.865,0.41c1.092,0.273,1.932,0.898,2.518,1.874c0.272,0.43,0.41,0.917,0.41,1.464
		c0,0.547-0.156,0.957-0.469,1.229c-0.195,0.196-0.449,0.293-0.762,0.293c-1.016,0-2.439-0.683-4.274-2.05
		c-2.03-1.483-3.358-2.42-3.982-2.811V58.15z M26.997,65.236c0.74,0.859,1.209,1.542,1.404,2.049c0.273,0.586,0.41,1.309,0.41,2.167
		l-0.059,2.811c-0.078,5.778-0.156,9.819-0.234,12.122c2.187-0.39,4.51-0.858,6.969-1.405l-0.117-4.743
		c-0.742,0.156-1.367,0.234-1.873,0.234c-0.742,0-1.367-0.155-1.875-0.468c-0.234-0.117-0.547-0.352-0.937-0.703
		c1.952-0.469,3.533-0.878,4.743-1.23v-3.806c-0.352,0.079-0.586,0.117-0.702,0.117c-0.625,0.079-1.054,0.117-1.288,0.117
		c-0.859,0-1.836-0.331-2.929-0.996c1.718-0.507,3.339-0.975,4.86-1.405V65.88c-0.469,0.079-0.781,0.117-0.937,0.117
		c-1.016,0.196-1.64,0.293-1.874,0.293c-0.703,0-1.64-0.352-2.811-1.054c2.029-0.507,4.001-1.034,5.914-1.581
		c0.313-1.406,0.508-2.381,0.586-2.928c0.469-3.045,0.703-4.606,0.703-4.685c0-0.703-0.469-1.542-1.406-2.518
		c0.664-0.703,1.21-1.054,1.641-1.054c0.389,0,1.248,0.488,2.576,1.464c0.82,0.585,1.464,1.229,1.932,1.933
		c0.156,0.196,0.234,0.391,0.234,0.585c0,0.234-0.098,0.489-0.292,0.761l-1.171,1.522c-0.157,0.196-0.898,1.386-2.227,3.572
		c-0.078,0.157-0.233,0.41-0.468,0.761c1.249-0.351,2.343-0.703,3.279-1.054c0.586-0.234,1.015-0.351,1.288-0.351
		c0.586,0,1.269,0.234,2.05,0.703c0.624,0.352,0.937,0.742,0.937,1.171c0,0.585-0.605,0.898-1.814,0.937
		c-0.43,0-1.641,0.156-3.631,0.468c-0.391,0.079-0.879,0.196-1.465,0.352c0.352,0.508,0.547,0.976,0.586,1.405
		c0,0.156,0,0.606,0,1.347v0.82c0.938-0.273,1.523-0.41,1.758-0.41c0.468,0,0.994,0.137,1.58,0.41
		c0.625,0.273,0.938,0.605,0.938,0.995c0,0.352-0.254,0.606-0.762,0.761c-0.117,0.079-1.25,0.372-3.396,0.878
		c-0.078,0.04-0.215,0.079-0.41,0.117l-0.059,3.338c0.625-0.234,1.133-0.351,1.523-0.351c0.74,0,1.424,0.215,2.049,0.644
		c0.469,0.313,0.703,0.606,0.703,0.878c0,0.508-0.684,0.859-2.05,1.054c-1.366,0.273-2.147,0.43-2.343,0.468l-0.117,4.861
		c0.391-0.078,0.645-0.137,0.762-0.176c2.068-0.429,3.279-0.644,3.631-0.644c0.43,0,1.113,0.175,2.05,0.527
		c1.444,0.468,2.167,1.035,2.167,1.698c0,0.273-0.108,0.508-0.322,0.703c-0.215,0.196-0.498,0.293-0.85,0.293l-6.734-0.234
		c-0.195,0-0.957,0.059-2.283,0.176c-2.108,0.156-3.787,0.372-5.037,0.644c-1.367,0.273-2.342,0.41-2.928,0.41
		c-0.039,0-0.176-0.02-0.41-0.059c-0.234,1.874-0.819,2.811-1.756,2.811c-0.391,0-0.801-0.351-1.23-1.054
		c-0.625-1.054-0.938-2.381-0.938-3.982c0-0.585,0.039-1.073,0.117-1.464l0.703-4.041c0.078-0.234,0.195-2.069,0.352-5.505
		c0.078-1.132,0.117-2.186,0.117-3.162c0-0.898-0.156-1.757-0.469-2.577c-1.719,1.601-2.967,2.733-3.748,3.396
		c-1.093,0.859-2.322,1.698-3.689,2.518l-0.234-0.176c0.938-1.054,1.854-2.225,2.753-3.514c1.64-2.342,3.163-4.665,4.567-6.969
		c1.016-1.64,1.894-3.181,2.636-4.626c0.468-0.858,0.702-1.62,0.702-2.284c0-0.155-0.078-0.585-0.234-1.288
		c0.586-0.585,1.016-0.878,1.289-0.878c0.234,0,1.19,0.585,2.869,1.757c0.469,0.313,0.858,0.761,1.172,1.347
		c0.155,0.234,0.234,0.41,0.234,0.527c0,0.351-0.157,0.723-0.469,1.112l-1.406,1.698C29.3,62.542,27.699,64.455,26.997,65.236z"/>
	<path d="M5.271,123.328c0.469-0.468,0.858-0.703,1.172-0.703c0.077,0,0.271,0.059,0.585,0.176c0.234,0.079,0.585,0.196,1.054,0.351
		c3.045-2.146,5.66-4.333,7.848-6.559c0.897-0.897,1.482-1.444,1.756-1.64c0.508-0.468,0.762-0.917,0.762-1.347
		c0-0.469-0.137-1.015-0.41-1.64c0.43-0.312,0.742-0.469,0.938-0.469c0.117,0,0.917,0.293,2.4,0.878
		c0.352,0.117,1.133,0.527,2.343,1.23c0.663,0.43,0.995,0.82,0.995,1.171c0,0.391-0.409,0.782-1.229,1.171
		c-0.196,0.079-0.606,0.313-1.23,0.703c-3.865,2.187-8.219,4.49-13.059,6.91c0.74,0.391,1.268,0.723,1.581,0.996
		c0.312,0.313,0.487,0.819,0.526,1.522c0.117,1.289,0.254,2.459,0.41,3.514c0.156,0,0.273,0,0.352,0c0.507,0,1.23-0.215,2.166-0.645
		c2.421-1.092,4.041-2.049,4.861-2.869c0.507-0.469,0.879-0.762,1.113-0.879c0.116-0.038,0.312-0.059,0.585-0.059
		c0.78,0,1.62,0.157,2.519,0.469c0.857,0.313,1.287,0.703,1.287,1.172c0,0.313-0.215,0.586-0.644,0.819
		c-0.079,0.04-1.269,0.527-3.572,1.464c-2.499,0.977-3.923,1.523-4.274,1.641c-0.82,0.273-1.504,0.409-2.05,0.409
		c-0.508,0-1.229-0.117-2.167-0.351c0.273,1.952,0.448,3.24,0.527,3.864c0.352,2.499,0.604,4.178,0.762,5.036
		c3.317-1.678,5.777-2.986,7.378-3.924c0.546-0.272,2.284-1.288,5.212-3.045l0.059,0.117c-1.094,1.563-2.246,3.007-3.455,4.334
		c-1.211,1.288-2.206,2.245-2.986,2.869c-0.742,0.664-1.504,1.309-2.284,1.933c-0.702,0.624-1.309,1.171-1.815,1.64
		c-0.156,0.156-0.449,0.586-0.879,1.288c-0.273,0.391-0.605,0.585-0.995,0.585c-0.624,0-1.405-0.486-2.343-1.463
		c-1.483-1.444-2.225-2.439-2.225-2.986c0-0.078,0.038-0.234,0.117-0.469c0.195-0.586,0.293-1.172,0.293-1.758
		c0-0.896-0.313-3.122-0.938-6.676c-0.547-3.317-0.957-5.367-1.229-6.148c-0.157-0.507-0.527-1.092-1.112-1.757
		C5.7,123.894,5.466,123.602,5.271,123.328z M27.406,122.918c0.429-0.741,0.937-1.113,1.522-1.113c0.313,0,0.957,0.234,1.933,0.703
		c2.108-0.546,3.552-0.937,4.333-1.171c1.992-0.546,3.24-0.878,3.748-0.996c1.172-0.273,2.029-0.527,2.577-0.761
		c0.429-0.156,0.878-0.39,1.347-0.703c0.781-0.507,1.326-0.761,1.64-0.761c0.312,0,0.897,0.293,1.757,0.878
		c0.273,0.157,1.132,0.84,2.576,2.05c0.391,0.313,0.586,0.664,0.586,1.054c0,0.234-0.195,0.585-0.586,1.054
		c-0.391,0.43-0.644,0.84-0.761,1.23c-0.156,0.469-0.273,1.191-0.352,2.167c-0.273,4.333-0.761,7.691-1.464,10.072
		c-0.469,1.679-1.191,3.064-2.166,4.158c-0.548,0.585-0.977,0.878-1.289,0.878s-0.664-0.214-1.055-0.644
		c-0.313-0.273-0.957-0.977-1.932-2.109c-0.82-0.896-2.147-2.166-3.982-3.806v-0.117c1.874,0.273,3.611,0.409,5.212,0.409
		c0.624,0,1.034-0.136,1.229-0.409c0.234-0.39,0.488-1.718,0.762-3.982c0.195-1.444,0.352-3.63,0.469-6.559l0.059-1.815
		c-0.039-0.195-0.117-0.488-0.234-0.878c-0.313-0.039-0.527-0.059-0.645-0.059c-1.016,0-4.295,0.742-9.838,2.226
		c0.469,0.43,0.703,0.84,0.703,1.229c0,0.157-0.021,0.352-0.059,0.586c-0.196,1.602-0.293,3.104-0.293,4.51l0.059,8.666
		c0,7.691-0.059,12.162-0.176,13.41c-0.352,2.891-0.566,4.617-0.645,5.184c-0.078,0.565-0.195,1.083-0.352,1.552
		c-0.352,1.132-0.801,1.698-1.347,1.698c-0.585,0-0.976-0.723-1.171-2.167c-0.43-2.731-0.645-5.739-0.645-9.019
		c0-1.131,0.039-3.104,0.117-5.914c0.117-6.324,0.176-10.775,0.176-13.352c0-2.812-0.117-4.606-0.352-5.389
		C28.675,124.363,28.187,123.699,27.406,122.918z"/>
	<path d="M0.702,208.593l-0.059-0.059c2.812-3.514,5.213-7.554,7.203-12.122c1.562-3.552,2.732-7.047,3.514-10.482
		c0.508-2.186,0.762-3.884,0.762-5.094c0-1.406-0.449-2.753-1.347-4.041c0.507-0.195,0.878-0.293,1.112-0.293
		s0.547,0.059,0.938,0.176c5.973-1.562,9.682-2.752,11.126-3.572c0.702-0.469,1.19-0.703,1.464-0.703
		c0.391,0,1.601,0.586,3.631,1.757c0.858,0.508,1.385,0.918,1.581,1.229c0.234,0.352,0.352,0.664,0.352,0.938
		s-0.059,0.469-0.176,0.586c-0.196,0.234-0.585,0.566-1.171,0.995c-0.469,0.352-0.977,0.917-1.523,1.698
		c-0.313,0.469-0.585,0.859-0.819,1.172c-0.156,0.273-0.313,0.526-0.468,0.761c0.351,0.391,0.526,0.702,0.526,0.937
		c0,0.313-0.215,0.547-0.644,0.703c-0.157,0.039-1.133,0.117-2.929,0.234c-3.514,0.547-6.403,1.171-8.667,1.873
		c-0.352,1.445-0.664,2.636-0.937,3.572c-0.352,1.211-0.958,2.909-1.815,5.096c0.546,0.195,0.916,0.293,1.112,0.293
		c0.312,0,0.741-0.078,1.288-0.234c1.758-0.469,3.104-0.82,4.041-1.055c0.039-1.171,0.059-2.127,0.059-2.869
		c0-0.938-0.039-1.718-0.117-2.343c-0.078-0.507-0.254-1.093-0.527-1.757c0.352-0.234,0.625-0.352,0.82-0.352
		s0.605,0.176,1.229,0.527c0.937,0.547,1.522,1.074,1.757,1.581c0.039,0.117,0.059,0.392,0.059,0.82c0,0.741-0.02,1.933-0.059,3.571
		c1.406-0.351,2.361-0.662,2.869-0.937c0.781-0.468,1.23-0.702,1.348-0.702c0.74,0,1.795,0.41,3.162,1.229
		c0.897,0.508,1.347,0.917,1.347,1.229c0,0.039-0.039,0.156-0.117,0.352c-0.156,0.469-0.391,2.283-0.702,5.446
		c-0.117,1.327-0.205,2.147-0.264,2.46s-0.167,0.684-0.322,1.111c-0.43,1.172-0.918,2.07-1.464,2.694
		c-0.313,0.352-0.625,0.527-0.937,0.527c-0.469,0-1.016-0.488-1.641-1.465c-0.898-1.365-1.777-2.497-2.635-3.396v-0.117
		c1.482-0.117,2.361-0.215,2.635-0.293c0.391-0.078,0.625-0.313,0.703-0.703c0.117-0.39,0.214-1.424,0.293-3.104
		c0.038-0.938,0.059-1.678,0.059-2.225c0-0.938-0.255-1.406-0.762-1.406c-0.273,0-1.016,0.138-2.225,0.41
		c-0.508,0.117-0.957,0.234-1.348,0.352v2.166l-0.059,11.771l0.059,3.747c0,1.68-0.02,2.675-0.059,2.987s-0.137,0.644-0.293,0.995
		c-0.195,0.43-0.508,0.645-0.937,0.645c-0.431,0-0.898-0.313-1.405-0.938c-0.352-0.468-0.674-1.073-0.967-1.815
		c-0.293-0.741-0.439-1.347-0.439-1.815c0-0.077,0.137-0.839,0.41-2.283c0.078-0.547,0.215-2.146,0.41-4.803
		c0.078-1.132,0.117-2.966,0.117-5.504l0.059-3.455c0-0.078-0.02-0.37-0.059-0.878c-1.211,0.273-2.44,0.625-3.689,1.053
		c0.195,0.938,0.391,1.934,0.586,2.987c0.39,2.577,0.586,4.431,0.586,5.563c0,0.548-0.138,0.938-0.41,1.172
		c-0.196,0.196-0.41,0.293-0.645,0.293c-0.703,0-1.25-0.43-1.64-1.289c-0.156-0.351-0.273-0.722-0.351-1.112
		c-0.04-0.078-0.313-1.971-0.82-5.68c-0.117-0.664-0.352-1.367-0.703-2.108c-1.171,2.069-2.012,3.534-2.518,4.392
		C7.027,203.322,4.177,206.29,0.702,208.593z M13.938,177.673c0.624,0.665,1.034,1.191,1.229,1.581
		c0.352,0.625,0.527,1.23,0.527,1.815c0,0.431-0.117,1.191-0.352,2.284c2.811-0.664,5.602-1.289,8.374-1.874
		c0.312-0.897,0.507-1.601,0.586-2.108c0.312-1.795,0.468-2.791,0.468-2.986s-0.078-0.371-0.234-0.527
		c-0.156-0.155-0.332-0.234-0.526-0.234c-0.352,0-2.343,0.469-5.974,1.406l-1.229,0.409c-0.585,0.157-0.976,0.234-1.171,0.234
		c-0.117,0-0.273,0-0.469,0H13.938z M32.618,182.943c0.43-0.469,0.78-0.703,1.055-0.703c0.389,0,1.112,0.469,2.166,1.406
		c0.664,0.547,1.073,1.035,1.23,1.464c0.077,0.196,0.117,0.468,0.117,0.819c0,0.234,0,0.547,0,0.938
		c-0.04,0.469-0.079,1.62-0.117,3.455c-0.079,2.771-0.157,4.432-0.234,4.978c-0.196,1.366-0.664,2.05-1.406,2.05
		c-0.664,0-1.152-0.352-1.464-1.055c-0.43-0.975-0.644-2.244-0.644-3.807c0-0.272,0.02-0.761,0.059-1.463
		c0.077-1.758,0.117-3.201,0.117-4.334c0-0.976-0.138-1.854-0.41-2.635L32.618,182.943z M40.934,171.641
		c0.741-0.585,1.308-0.878,1.698-0.878c0.469,0,1.308,0.372,2.518,1.112c1.328,0.859,2.147,1.445,2.461,1.758
		c0.312,0.352,0.468,0.664,0.468,0.937c0,0.273-0.099,0.684-0.293,1.229c-0.508,1.445-0.761,4.412-0.761,8.901
		c0,13.431,0.077,21.277,0.234,23.541c0.117,1.328,0.176,2.284,0.176,2.87c0,1.601-0.372,3.162-1.113,4.685
		c-0.313,0.663-0.684,0.995-1.113,0.995c-0.468,0-0.898-0.215-1.287-0.644l-3.982-4.393c-0.43-0.469-1.309-1.308-2.635-2.518v-0.059
		c1.678,0.234,3.181,0.352,4.508,0.352c0.508,0,0.84-0.078,0.996-0.234s0.234-0.565,0.234-1.23l0.176-7.847l-0.117-6.383
		l0.059-5.915c-0.039-6.324-0.059-9.838-0.059-10.54c-0.078-1.992-0.293-3.299-0.645-3.924
		C42.222,172.988,41.714,172.383,40.934,171.641z"/>
	<path d="M2.108,262.174c2.85-3.24,5.23-6.324,7.145-9.253c2.303-3.474,3.845-6.069,4.626-7.788
		c-4.256,1.602-6.657,2.401-7.203,2.401c-0.585,0-1.483-0.234-2.694-0.703c-0.468-0.195-0.976-0.507-1.521-0.938
		c1.99-0.233,3.493-0.468,4.509-0.702c2.577-0.663,4.978-1.386,7.203-2.167c0-2.85,0-4.646,0-5.388
		c0.038-2.303,0.058-4.138,0.058-5.505c0-0.507-0.078-0.916-0.233-1.229c-0.196-0.352-0.606-0.839-1.229-1.464
		c0.623-0.819,1.189-1.229,1.697-1.229c0.273,0,1.094,0.391,2.46,1.171c0.741,0.469,1.347,0.996,1.815,1.581
		c0.156,0.234,0.234,0.449,0.234,0.645c0,0.273-0.137,0.742-0.41,1.405c-0.273,0.703-0.488,2.089-0.645,4.158
		c-0.039,0.625-0.117,2.166-0.234,4.626c1.055-0.547,1.796-0.82,2.227-0.82c0.429,0,0.937,0.117,1.521,0.352
		c0.547,0.234,0.82,0.508,0.82,0.82c0,0.43-0.586,0.781-1.757,1.054c-0.196,0.039-0.723,0.176-1.581,0.41
		c-0.234,0.078-0.684,0.195-1.347,0.352c-0.079,1.601-0.157,3.104-0.234,4.509c3.514,0.937,5.271,2.284,5.271,4.041
		c0,1.054-0.371,1.581-1.113,1.581c-0.625,0-1.309-0.43-2.049-1.289c-0.43-0.468-1.152-1.365-2.167-2.693
		c-0.079,2.577-0.196,6.345-0.352,11.302c-0.039,0.859-0.059,2.539-0.059,5.036c-0.039,3.241-0.116,5.135-0.233,5.681
		c-0.079,0.508-0.255,0.898-0.527,1.171c-0.234,0.196-0.469,0.293-0.703,0.293c-0.664,0-1.27-0.487-1.815-1.464
		c-0.351-0.663-0.625-1.366-0.819-2.108c-0.196-0.741-0.293-1.288-0.293-1.64c0-0.585,0.176-1.775,0.527-3.572
		c0.194-1.015,0.447-3.317,0.761-6.91c0.155-1.561,0.272-3.688,0.352-6.383c-3.396,4.998-7.32,8.608-11.771,10.834L2.108,262.174z
		 M19.208,265.512c2.186-1.601,4.605-3.845,7.262-6.734c1.443-1.601,2.498-2.869,3.162-3.807c1.443-1.951,2.342-3.259,2.693-3.924
		c-2.107,0.469-3.924,0.918-5.445,1.348c-0.469,0.156-0.879,0.234-1.23,0.234c-0.781,0-1.815-0.488-3.104-1.465
		c2.029-0.351,4.255-0.78,6.676-1.288c1.64-0.352,3.064-0.644,4.275-0.878c0.038-2.108,0.059-3.689,0.059-4.744
		c0-0.351,0-0.857,0-1.522l-0.938,0.176c-1.367,0.273-2.342,0.41-2.928,0.41c-0.391,0-0.84-0.078-1.348-0.234
		c-0.117-0.038-0.234-0.078-0.352-0.117c-0.195-0.077-0.488-0.176-0.878-0.293c-0.937,1.094-1.854,1.973-2.752,2.636
		c-0.625,0.43-1.66,1.016-3.104,1.757l-0.351-0.234c1.405-1.562,2.537-3.104,3.396-4.626c0.741-1.289,1.327-2.401,1.757-3.338
		c0.39-0.858,0.586-1.562,0.586-2.108c0-0.507-0.215-1.073-0.645-1.698c0.43-0.313,0.762-0.469,0.996-0.469
		c0.194,0,0.878,0.196,2.049,0.586c1.366,0.508,2.05,1.112,2.05,1.815c0,0.273-0.293,0.84-0.878,1.698
		c-0.82,1.21-1.543,2.166-2.168,2.869c0.273,0.039,0.469,0.059,0.586,0.059c0.195,0,1.309-0.234,3.338-0.703
		c0.469-0.077,1.016-0.214,1.641-0.409v-1.933v-2.519v-2.576c0-2.264-0.04-3.553-0.117-3.865c-0.156-0.39-0.664-1.093-1.523-2.108
		c0.703-0.624,1.289-0.937,1.758-0.937c0.233,0,0.721,0.176,1.463,0.526c1.093,0.508,1.952,1.074,2.577,1.698
		c0.468,0.469,0.702,0.879,0.702,1.23c0,0.195-0.117,0.566-0.351,1.112c-0.274,0.625-0.548,2.421-0.819,5.388
		c-0.08,0.937-0.157,1.933-0.234,2.986c0.351-0.117,0.761-0.253,1.229-0.41c1.289-0.468,2.011-0.761,2.168-0.878
		c0.896-0.39,1.502-0.586,1.814-0.586c0.352,0,1.093,0.176,2.226,0.527c0.78,0.273,1.171,0.684,1.171,1.229
		c0,0.431-0.371,0.781-1.112,1.055c-0.234,0.117-1.386,0.351-3.455,0.702c-2.108,0.508-3.476,0.82-4.099,0.938
		c-0.117,1.991-0.176,4.139-0.176,6.441c2.732-0.43,4.743-0.897,6.031-1.405c0.781-0.313,1.347-0.469,1.698-0.469
		c0.39,0,1.503,0.371,3.338,1.112c1.288,0.469,1.933,1.055,1.933,1.757c0,0.313-0.117,0.566-0.352,0.762
		c-0.234,0.156-0.469,0.234-0.703,0.234c-0.313,0-1.697-0.156-4.157-0.469c-0.508-0.038-1.191-0.059-2.05-0.059
		c-2.107,0-4.021,0.117-5.738,0.352v2.108c3.396,3.007,5.563,4.86,6.5,5.563c1.756,1.406,3.61,2.598,5.563,3.572
		c0.938,0.508,2.537,1.289,4.803,2.343c1.99,0.898,3.533,1.64,4.626,2.226v0.292c-2.616,0.469-5.134,0.703-7.554,0.703
		c-1.602,0-2.753-0.195-3.455-0.586c-0.898-0.507-2.519-2.244-4.861-5.212c-2.225-2.811-4.119-5.153-5.68-7.026
		c0,1.366,0.02,4.002,0.059,7.905c0.038,4.958,0.059,7.535,0.059,7.729c0,1.563-0.273,3.124-0.82,4.686
		c-0.43,1.092-0.898,1.64-1.405,1.64c-0.431,0-0.801-0.196-1.112-0.586l-2.46-3.104c-0.625-0.78-1.737-1.894-3.338-3.338
		l0.059-0.234c0.702,0.117,1.132,0.176,1.288,0.176c1.132,0.156,2.108,0.234,2.928,0.234c0.469,0,0.801-0.098,0.996-0.293
		c0.117-0.155,0.176-0.487,0.176-0.996c-0.039-0.624-0.021-1.854,0.059-3.688c0.078-1.172,0.155-3.533,0.234-7.086v-1.933
		c-1.602,2.108-2.968,3.709-4.1,4.802c-2.576,2.538-5.914,4.354-10.014,5.446L19.208,265.512z"/>
	<path d="M4.978,327.703c3.162-0.586,7.086-1.854,11.771-3.807c0.271-3.24,0.409-5.992,0.409-8.257c0-1.015-0.117-1.854-0.352-2.519
		c-1.796,0.313-2.968,0.548-3.513,0.703c-0.703,0.156-1.23,0.234-1.582,0.234c-0.703,0-1.503-0.214-2.4-0.645
		c-0.431-0.234-0.977-0.644-1.641-1.229c0.625-0.117,1.737-0.214,3.338-0.293c0.586-0.078,1.699-0.331,3.338-0.761
		c2.109-0.547,3.846-1.132,5.213-1.757c0.469-0.195,1.248-0.586,2.342-1.172c0.625-0.312,1.113-0.468,1.465-0.468
		c0.389,0,0.975,0.137,1.756,0.409c0.938,0.352,1.406,0.801,1.406,1.348c0,0.468-0.469,0.84-1.406,1.112
		c-2.498,0.781-4.099,1.288-4.802,1.522c0.469,1.054,0.703,2.206,0.703,3.455c0,1.874-0.138,4.139-0.41,6.793
		c1.952-0.703,3.24-1.19,3.865-1.464c3.669-1.444,6.069-2.343,7.202-2.694l0.117,0.234c-0.976,0.859-2.069,1.68-3.279,2.46
		c-4.646,2.928-9.506,5.642-14.581,8.14c-1.25,0.664-2.108,1.133-2.577,1.405c-0.625,0.391-1.094,0.586-1.405,0.586
		c-0.156,0-0.995-0.331-2.519-0.995c-0.468-0.195-0.976-0.469-1.521-0.82c-0.664-0.429-0.996-0.839-0.996-1.229
		C4.919,327.957,4.938,327.859,4.978,327.703z M22.312,287.53c0.469-1.015,1.015-1.522,1.64-1.522c0.272,0,0.624,0.098,1.054,0.293
		c0.664,0.234,1.269,0.43,1.816,0.586c1.248,0.391,2.01,0.781,2.283,1.171c0.234,0.273,0.352,0.781,0.352,1.522
		c-0.078,0.938,0.234,3.494,0.938,7.672c3.045-0.43,5.25-0.897,6.617-1.406c0.623-0.233,1.054-0.351,1.287-0.351
		c0.234,0,1.191,0.332,2.87,0.995c1.366,0.547,2.05,1.211,2.05,1.991c0,0.547-0.391,0.819-1.172,0.819
		c-0.508,0-1.309-0.038-2.4-0.116c-1.016-0.078-2.012-0.117-2.986-0.117c-1.563,0-3.494,0.137-5.798,0.409
		c1.483,7.965,4.118,14.836,7.905,20.613c2.069,3.202,4.256,5.739,6.559,7.613c0.938,0.781,1.562,1.171,1.875,1.171
		c0.312,0,0.604-0.272,0.878-0.819c1.171-2.46,2.05-4.47,2.636-6.032h0.234l0.117,1.933c0.312,6.676,0.468,10.189,0.468,10.541
		c0,1.171-0.372,1.757-1.112,1.757c-1.328,0-3.183-0.938-5.563-2.811c-4.179-3.28-7.887-8.12-11.126-14.523
		c-2.656-5.191-4.822-11.497-6.501-18.915c-5.7,1.25-9.721,2.226-12.063,2.928c-0.586,0.157-1.016,0.234-1.288,0.234
		c-0.702,0-1.815-0.37-3.338-1.112c-0.548-0.272-1.191-0.683-1.933-1.229c0.703-0.078,2.381-0.273,5.036-0.586
		c3.708-0.469,8.022-1.229,12.942-2.284c-0.625-2.693-1.035-4.431-1.23-5.212c-0.313-1.209-0.508-1.951-0.586-2.225
		c-0.195-0.898-0.391-1.406-0.585-1.523C23.989,288.761,23.366,288.272,22.312,287.53z M34.141,288.526c0.586,0,1.034,0,1.347,0
		c3.084,0,5.133,0.371,6.149,1.112c1.171,0.859,1.757,1.854,1.757,2.986c0,0.313-0.098,0.606-0.293,0.879
		c-0.273,0.313-0.586,0.469-0.938,0.469c-0.781,0-1.932-0.507-3.455-1.523c-0.625-0.429-1.679-1.248-3.162-2.459
		c-0.391-0.352-0.878-0.741-1.464-1.171L34.141,288.526z"/>
	<path d="M0.176,375.488L0,375.254c3.046-1.991,5.759-4.177,8.14-6.559c4.139-4.216,8.296-9.447,12.474-15.694
		c2.187-3.317,3.279-5.66,3.279-7.027c0-0.429-0.234-1.033-0.702-1.815c0.468-0.585,0.896-0.878,1.288-0.878
		c0.312,0,0.897,0.195,1.757,0.586c1.326,0.664,2.244,1.151,2.752,1.464c0.586,0.391,0.879,0.723,0.879,0.995
		c0,0.196-0.156,0.469-0.469,0.82c-0.43,0.547-0.977,1.269-1.64,2.166c0.585,0.392,0.976,0.665,1.171,0.82
		c0.313,0.195,1.055,0.898,2.226,2.108s3.376,3.201,6.617,5.973c2.537,2.226,4.782,3.944,6.734,5.153
		c1.366,0.859,4.431,2.616,9.194,5.271c1.795,0.977,3.299,1.757,4.509,2.343v0.41c-1.601,0.195-2.909,0.332-3.923,0.409
		c-1.406,0.117-3.396,0.176-5.974,0.176c-0.937,0-1.669-0.048-2.196-0.146c-0.527-0.097-0.947-0.282-1.259-0.556
		c-0.665-0.507-2.851-2.947-6.56-7.32c-4.295-5.074-7.223-8.646-8.783-10.717c-0.742-1.015-1.289-1.659-1.64-1.933
		c-0.157-0.117-0.469-0.331-0.937-0.644c-2.539,3.943-4.49,6.813-5.857,8.608c-3.24,4.099-6.207,7.281-8.9,9.545
		C8.628,371.819,4.626,374.045,0.176,375.488z M8.726,377.714c0.741-0.078,2.166-0.234,4.275-0.469
		c1.248-0.117,6.245-0.917,14.99-2.4c2.889-0.508,4.354-0.741,4.393-0.703c2.029-0.313,3.396-0.527,4.1-0.645
		c0.586-0.077,1.229-0.253,1.932-0.526c0.547-0.156,0.918-0.234,1.113-0.234c0.586,0,1.619,0.469,3.104,1.405
		c0.664,0.43,0.996,0.878,0.996,1.347c0,0.625-0.431,0.938-1.289,0.938c-0.547,0-1.309-0.039-2.283-0.117
		c-1.602-0.078-3.221-0.117-4.861-0.117c-2.304,0-4.412,0.117-6.324,0.352c-1.405,0.195-2.362,0.313-2.869,0.351
		c1.092,0.782,1.64,1.348,1.64,1.698c0,0.157-0.606,0.996-1.815,2.519l-1.698,2.05c-1.522,1.952-2.577,3.26-3.162,3.923
		c2.186-0.272,6.559-0.956,13.117-2.049c-0.468-0.858-1.444-2.284-2.928-4.275l0.233-0.234c2.655,0.938,4.783,1.953,6.384,3.045
		c1.093,0.782,1.913,1.641,2.46,2.577c0.585,1.016,0.878,2.05,0.878,3.104c0,0.664-0.176,1.25-0.526,1.757
		c-0.391,0.547-0.859,0.82-1.406,0.82c-0.859,0-1.62-0.664-2.283-1.991c-0.859-1.757-1.465-2.889-1.816-3.396
		c-2.069,0.742-3.279,1.151-3.631,1.229l-11.887,3.514c-0.898,0.272-1.66,0.527-2.284,0.762c-0.548,0.233-0.995,0.351-1.347,0.351
		c-0.625,0-1.348-0.644-2.167-1.932c-0.431-0.703-0.761-1.21-0.995-1.523c-0.196-0.272-0.293-0.487-0.293-0.644
		c0-0.078,0.078-0.234,0.234-0.469c1.365-0.038,2.811-0.097,4.333-0.176c0.663-0.702,1.103-1.19,1.317-1.464
		c0.215-0.272,0.576-0.839,1.084-1.698c1.288-2.108,2.107-3.514,2.459-4.217c0.352-0.702,0.527-1.249,0.527-1.64
		c0-0.194-0.039-0.468-0.117-0.819c-2.655,0.43-5.408,1.035-8.257,1.815c-0.625,0.156-1.112,0.234-1.464,0.234
		c-0.586,0-1.367-0.313-2.343-0.938C9.935,378.632,9.429,378.261,8.726,377.714z M16.982,368.813
		c2.615-0.352,4.978-0.819,7.086-1.405c1.757-0.469,3.123-0.956,4.099-1.464c0.352-0.156,0.957-0.469,1.816-0.938
		c0.585-0.312,1.033-0.468,1.347-0.468c0.194,0,0.976,0.254,2.343,0.761c1.054,0.431,1.58,0.898,1.58,1.405
		c0,0.391-0.391,0.724-1.171,0.996c-0.233,0.078-1.229,0.273-2.986,0.585c-2.772,0.508-5.974,1.191-9.604,2.05
		c-0.547,0.156-1.016,0.234-1.404,0.234c-0.586,0-1.191-0.214-1.816-0.645C18.114,369.77,17.685,369.398,16.982,368.813z"/>
	<path d="M1.054,440.432c1.641-1.288,3.006-2.518,4.1-3.688c2.576-2.771,5.056-6.07,7.438-9.897
		c1.209-1.951,2.205-3.728,2.986-5.328c-0.977,0.43-3.514,1.679-7.613,3.747c-0.469,0.234-0.84,0.352-1.112,0.352
		c-0.196,0-0.664-0.155-1.405-0.469c-0.82-0.312-1.543-0.722-2.167-1.229c-0.196-0.194-0.292-0.352-0.292-0.469
		c0-0.077,0.037-0.194,0.116-0.351l0.703-0.059c1.327-0.117,2.343-0.273,3.045-0.469c0.352-0.078,2.187-0.683,5.505-1.815
		c2.186-0.703,3.338-1.171,3.455-1.405c0.195-0.156,0.604-0.645,1.229-1.464c0.352-0.507,0.644-0.762,0.878-0.762
		c0.117,0,0.332,0.117,0.645,0.352c0.352,0.234,0.898,0.586,1.641,1.054c1.365,0.898,2.049,1.581,2.049,2.05
		c0,0.156-0.098,0.313-0.293,0.469l-1.347,0.995c-0.234,0.079-0.664,0.586-1.288,1.522c-1.406,1.953-2.44,3.378-3.104,4.275
		c1.482,0.117,2.869,0.352,4.157,0.702c0.507,0.157,0.858,0.391,1.054,0.703c0.43,0.586,0.645,1.211,0.645,1.874
		c0,0.937-0.352,1.405-1.054,1.405c-0.548,0-1.017-0.176-1.405-0.527c-1.289-1.209-2.226-2.029-2.812-2.459l-0.058,2.752
		c-0.117,9.214-0.216,14.387-0.293,15.519c-0.196,2.108-0.762,3.162-1.699,3.162c-0.702,0-1.309-0.723-1.814-2.166
		c-0.431-1.132-0.645-2.069-0.645-2.812c0-0.312,0.097-0.917,0.293-1.815c0.312-1.288,0.546-2.771,0.703-4.45
		c0.154-1.483,0.271-4.334,0.351-8.55c-2.069,2.811-4.45,5.115-7.144,6.91c-1.992,1.288-3.769,2.108-5.33,2.459L1.054,440.432z
		 M12.298,407.989l0.059-0.409l0.82-0.117c1.014-0.117,1.717-0.176,2.107-0.176c0.781,0,1.815,0.098,3.104,0.293
		c1.25,0.156,2.244,0.684,2.986,1.581c0.664,0.781,0.996,1.601,0.996,2.459c0,0.352-0.098,0.684-0.293,0.996
		c-0.352,0.547-0.801,0.819-1.347,0.819c-0.391,0-0.781-0.117-1.171-0.352c-0.469-0.312-1.094-0.761-1.875-1.347
		c-1.21-0.976-2.322-1.775-3.338-2.4C13.41,408.713,12.728,408.264,12.298,407.989z M19.384,443.36
		c1.288-0.272,6.148-0.956,14.581-2.05c-0.116-4.489-0.175-8.843-0.175-13.059c-2.46,0.391-4.08,0.585-4.861,0.585
		c-1.679,0-2.89-0.702-3.631-2.108c0.547,0,0.938,0,1.172,0c1.873,0,4.274-0.351,7.203-1.054c0.038-1.522,0.136-4.997,0.292-10.424
		c0-0.546,0-1.19,0-1.933c0-1.288-0.116-2.225-0.351-2.811c-0.273-0.703-0.898-1.444-1.875-2.226
		c0.469-0.858,1.035-1.288,1.699-1.288c0.546,0,1.288,0.254,2.225,0.762c1.172,0.624,2.011,1.151,2.519,1.581
		c0.585,0.508,0.878,1.016,0.878,1.522c0,0.234-0.098,0.585-0.293,1.054c-0.352,0.898-0.547,1.757-0.585,2.577
		c-0.04,0.233-0.108,1.591-0.205,4.069c-0.099,2.479-0.146,3.816-0.146,4.012c0,0.352,0,0.937,0,1.757
		c1.21-0.313,2.284-0.703,3.221-1.171c0.741-0.352,1.308-0.527,1.698-0.527c0.39,0,1.073,0.195,2.05,0.586
		c1.093,0.43,1.64,1.016,1.64,1.756c0,0.548-0.566,0.918-1.698,1.113c-1.679,0.352-3.963,0.859-6.852,1.522
		c-0.04,3.162-0.079,5.251-0.117,6.266c-0.04,1.133-0.215,3.534-0.526,7.203c1.834-0.117,3.415-0.272,4.742-0.469
		c2.109-0.312,3.514-0.604,4.217-0.878c0.781-0.313,1.268-0.469,1.464-0.469c0.312,0,1.503,0.508,3.572,1.522
		c1.522,0.742,2.284,1.504,2.284,2.284c0,0.273-0.098,0.488-0.293,0.645c-0.273,0.233-0.586,0.351-0.938,0.351
		c-0.781,0-1.776-0.117-2.986-0.351c-2.03-0.43-4.685-0.645-7.964-0.645c-5.7,0-11.264,0.664-16.69,1.991
		c-0.547,0.156-0.957,0.234-1.229,0.234c-0.742,0-1.66-0.332-2.753-0.996C20.281,444.103,19.853,443.79,19.384,443.36z"/>
</g>
</svg>
