<?xml version="1.0" encoding="iso-8859-1"?>
<!-- Generator: Adobe Illustrator 16.0.3, SVG Export Plug-In . SVG Version: 6.00 Build 0)  -->
<!DOCTYPE svg PUBLIC "-//W3C//DTD SVG 1.1//EN" "http://www.w3.org/Graphics/SVG/1.1/DTD/svg11.dtd">
<svg version="1.1" id="&#x30EC;&#x30A4;&#x30E4;&#x30FC;_1"
	 xmlns="http://www.w3.org/2000/svg" xmlns:xlink="http://www.w3.org/1999/xlink" x="0px" y="0px" width="448.574px"
	 height="51.709px" viewBox="0 0 448.574 51.709" style="enable-background:new 0 0 448.574 51.709;" xml:space="preserve">
<g>
	<path d="M0,12.298c0.195-0.39,0.468-0.586,0.82-0.586c0.507,0,1.092,0.079,1.757,0.234c4.879-1.132,9.564-2.088,14.054-2.87
		c1.171-0.195,1.913-0.371,2.226-0.527c0.78-0.312,1.268-0.468,1.464-0.468c0.741,0,2.225,0.761,4.451,2.284
		c1.249,0.859,1.874,1.484,1.874,1.874c0,0.313-0.176,0.8-0.527,1.464c-0.313,0.703-0.468,1.581-0.468,2.635
		c0,0.196,0,0.449,0,0.761c0.039,1.601,0.117,7.496,0.234,17.685c0,2.616-0.04,4.295-0.117,5.036
		c-0.117,1.679-0.586,3.143-1.406,4.392c-0.508,0.742-0.996,1.113-1.464,1.113c-0.898,0-1.64-0.585-2.225-1.757l-2.05-4.041
		c-0.079-0.156-0.449-0.605-1.113-1.347c-0.468,0-0.761,0-0.878,0c-0.585-0.038-0.898-0.059-0.937-0.059
		c-0.976,0-3.396,0.313-7.261,0.937c-1.133,0.157-2.284,0.352-3.455,0.586c-0.43,1.25-0.996,1.874-1.698,1.874
		c-0.508,0-1.016-0.332-1.522-0.996c-0.391-0.546-0.742-1.289-1.054-2.226c-0.234-0.82-0.352-1.659-0.352-2.518
		c0-0.585,0.039-1.444,0.117-2.577c0.039-0.937,0.234-5.016,0.586-12.239l0.058-4.861c0-1.132-0.079-1.893-0.234-2.284
		C0.761,13.431,0.468,12.923,0,12.298z M4.509,13.41c0.234,0.391,0.371,0.684,0.41,0.878c0.117,0.313,0.176,0.742,0.176,1.289
		l-0.059,6.441c0,0.43,0,1.152,0,2.167c1.015,0,3.318-0.624,6.91-1.874c0.741-0.312,1.268-0.507,1.581-0.585
		c0.272-0.078,0.624-0.117,1.054-0.117c0.78,0,1.483,0.117,2.108,0.351c1.015,0.352,1.522,0.899,1.522,1.64
		c0,0.352-0.254,0.625-0.761,0.82c-0.468,0.234-2.069,0.586-4.802,1.054c-2.811,0.469-4.529,0.703-5.153,0.703
		c-0.547,0-1.367-0.234-2.459-0.703c0,3.787,0.039,7.75,0.117,11.888c0.703-0.078,2.577-0.41,5.622-0.995
		c3.708-0.624,5.739-0.937,6.09-0.937c1.093,0,2.146,0.664,3.162,1.991l0.469,0.234c0.195-0.312,0.292-0.624,0.292-0.937
		c0-0.117,0-1.015,0-2.694v-1.991c0-7.534-0.058-13.313-0.175-17.334c-0.04-1.522-0.04-2.303,0-2.342
		c0-0.546-0.079-0.917-0.234-1.113c-0.196-0.234-0.527-0.352-0.996-0.352c-1.874,0-5.935,0.723-12.181,2.167
		C6.461,13.215,5.563,13.333,4.509,13.41z"/>
	<path d="M56.394,37.713c0.117-0.741,0.176-1.385,0.176-1.933c0-1.561-0.273-3.083-0.82-4.567c-0.079-0.195-0.391-0.781-0.937-1.757
		c-0.196-0.312-0.293-0.703-0.293-1.171c0-0.429,0.234-1.874,0.703-4.333c-1.757,1.054-2.928,1.581-3.514,1.581
		c-0.625,0-1.543-0.331-2.752-0.996c1.209-0.39,2.674-1.151,4.392-2.284c0.858-0.624,1.444-1.132,1.757-1.522
		c0.468-0.586,0.82-1.054,1.054-1.406c0.195-0.272,0.429-0.41,0.703-0.41c0.351,0,1.112,0.449,2.284,1.347
		c1.405,1.094,2.108,1.796,2.108,2.108c0,0.117-0.138,0.332-0.41,0.644c-0.859,0.937-2.362,2.655-4.509,5.153
		c1.21,1.367,2.069,2.401,2.577,3.104c0.586,0.82,0.878,1.582,0.878,2.284c0,1.016-0.508,2.382-1.522,4.099
		c1.561,0.04,4.431,0.566,8.608,1.581c4.646,1.21,9.487,2.147,14.523,2.811c1.561,0.196,3.474,0.332,5.739,0.41
		c7.339,0.313,11.946,0.45,13.82,0.41v0.352c-1.679,0.82-3.787,1.64-6.324,2.459c-1.562,0.547-3.163,1.074-4.802,1.581
		c-1.64,0.508-2.85,0.761-3.631,0.761c-0.82,0-2.049-0.273-3.689-0.82c-3.279-1.054-8.746-2.928-16.397-5.622
		c-3.592-1.249-6.247-1.874-7.964-1.874c-1.054,0-2.265,0.156-3.631,0.468c-1.484,0.352-2.714,0.801-3.689,1.347
		c-0.313,0.156-0.508,0.234-0.586,0.234c-0.508,0-0.995-0.644-1.464-1.933c-0.039,0-0.234-0.527-0.585-1.581
		c1.092,0,1.854-0.019,2.284-0.059C52.08,38.064,54.051,37.909,56.394,37.713z M53.641,7.671c0.858-0.117,1.757-0.176,2.694-0.176
		c1.523,0,2.811,0.137,3.865,0.41c1.092,0.273,1.933,0.898,2.518,1.874c0.272,0.43,0.41,0.917,0.41,1.464
		c0,0.547-0.156,0.957-0.468,1.229c-0.196,0.196-0.449,0.293-0.761,0.293c-1.016,0-2.44-0.683-4.275-2.05
		c-2.03-1.483-3.358-2.42-3.982-2.811V7.671z M70.683,14.757c0.741,0.859,1.209,1.542,1.405,2.049
		c0.272,0.586,0.41,1.309,0.41,2.167l-0.058,2.811c-0.079,5.778-0.157,9.819-0.234,12.122c2.186-0.39,4.509-0.858,6.969-1.405
		l-0.117-4.743c-0.742,0.156-1.367,0.234-1.874,0.234c-0.742,0-1.367-0.155-1.874-0.468c-0.234-0.117-0.547-0.352-0.937-0.703
		c1.952-0.469,3.533-0.878,4.744-1.23v-3.806c-0.352,0.079-0.586,0.117-0.703,0.117c-0.625,0.079-1.054,0.117-1.289,0.117
		c-0.859,0-1.835-0.331-2.928-0.996c1.718-0.507,3.338-0.975,4.861-1.405v-4.216c-0.469,0.079-0.782,0.117-0.937,0.117
		c-1.016,0.196-1.64,0.293-1.874,0.293c-0.703,0-1.64-0.352-2.811-1.054c2.03-0.507,4.001-1.034,5.915-1.581
		c0.312-1.406,0.507-2.381,0.586-2.928c0.468-3.045,0.703-4.606,0.703-4.685c0-0.703-0.468-1.542-1.405-2.518
		c0.663-0.703,1.209-1.054,1.64-1.054c0.39,0,1.249,0.488,2.577,1.464c0.82,0.585,1.464,1.229,1.932,1.933
		c0.156,0.196,0.234,0.391,0.234,0.585c0,0.234-0.098,0.489-0.292,0.761l-1.171,1.522c-0.157,0.196-0.898,1.386-2.226,3.572
		c-0.079,0.157-0.234,0.41-0.468,0.761c1.249-0.351,2.342-0.703,3.279-1.054c0.586-0.234,1.015-0.351,1.289-0.351
		c0.585,0,1.268,0.234,2.049,0.703c0.624,0.352,0.937,0.742,0.937,1.171c0,0.585-0.605,0.898-1.815,0.937
		c-0.43,0-1.64,0.156-3.63,0.468c-0.391,0.079-0.878,0.196-1.464,0.352c0.352,0.508,0.546,0.976,0.586,1.405
		c0,0.156,0,0.606,0,1.347v0.82c0.937-0.273,1.522-0.41,1.757-0.41c0.468,0,0.995,0.137,1.581,0.41
		c0.624,0.273,0.937,0.605,0.937,0.995c0,0.352-0.254,0.606-0.762,0.761c-0.117,0.079-1.25,0.372-3.396,0.878
		c-0.079,0.04-0.215,0.079-0.41,0.117l-0.059,3.338c0.624-0.234,1.132-0.351,1.522-0.351c0.741,0,1.425,0.215,2.05,0.644
		c0.468,0.313,0.703,0.606,0.703,0.878c0,0.508-0.684,0.859-2.05,1.054c-1.367,0.273-2.147,0.43-2.342,0.468l-0.117,4.861
		c0.39-0.078,0.645-0.137,0.761-0.176c2.069-0.429,3.28-0.644,3.631-0.644c0.429,0,1.113,0.175,2.05,0.527
		c1.444,0.468,2.167,1.035,2.167,1.698c0,0.273-0.108,0.508-0.322,0.703c-0.215,0.196-0.498,0.293-0.849,0.293l-6.735-0.234
		c-0.196,0-0.957,0.059-2.284,0.176c-2.108,0.156-3.787,0.372-5.036,0.644c-1.367,0.273-2.342,0.41-2.928,0.41
		c-0.039,0-0.175-0.02-0.41-0.059c-0.234,1.874-0.82,2.811-1.757,2.811c-0.391,0-0.801-0.351-1.23-1.054
		c-0.625-1.054-0.937-2.381-0.937-3.982c0-0.585,0.039-1.073,0.117-1.464l0.703-4.041c0.078-0.234,0.195-2.069,0.352-5.505
		c0.078-1.132,0.117-2.186,0.117-3.162c0-0.898-0.156-1.757-0.469-2.577c-1.718,1.601-2.967,2.733-3.748,3.396
		c-1.093,0.859-2.323,1.698-3.689,2.518l-0.234-0.176c0.937-1.054,1.854-2.225,2.752-3.514c1.64-2.342,3.163-4.665,4.568-6.969
		c1.015-1.64,1.893-3.181,2.635-4.626c0.468-0.858,0.703-1.62,0.703-2.284c0-0.155-0.079-0.585-0.234-1.288
		c0.586-0.585,1.015-0.878,1.289-0.878c0.234,0,1.19,0.585,2.869,1.757c0.469,0.313,0.858,0.761,1.171,1.347
		c0.156,0.234,0.234,0.41,0.234,0.527c0,0.351-0.157,0.723-0.469,1.112l-1.405,1.698C72.985,12.063,71.385,13.977,70.683,14.757z"/>
	<path d="M107.517,14.289c0.468-0.468,0.858-0.703,1.171-0.703c0.078,0,0.272,0.059,0.585,0.176
		c0.234,0.079,0.585,0.196,1.054,0.351c3.045-2.146,5.66-4.333,7.847-6.559c0.897-0.897,1.483-1.444,1.756-1.64
		c0.507-0.468,0.762-0.917,0.762-1.347c0-0.469-0.138-1.015-0.41-1.64c0.429-0.312,0.741-0.469,0.937-0.469
		c0.117,0,0.917,0.293,2.401,0.878c0.352,0.117,1.132,0.527,2.342,1.23c0.664,0.43,0.996,0.82,0.996,1.171
		c0,0.391-0.41,0.782-1.229,1.171c-0.196,0.079-0.606,0.313-1.23,0.703c-3.865,2.187-8.219,4.49-13.059,6.91
		c0.741,0.391,1.269,0.723,1.582,0.996c0.312,0.313,0.487,0.82,0.527,1.522c0.117,1.289,0.253,2.459,0.41,3.514
		c0.156,0,0.273,0,0.352,0c0.507,0,1.23-0.214,2.167-0.644c2.42-1.093,4.041-2.05,4.861-2.87c0.507-0.468,0.878-0.761,1.113-0.878
		c0.117-0.039,0.312-0.059,0.585-0.059c0.78,0,1.62,0.157,2.518,0.469c0.858,0.313,1.288,0.703,1.288,1.171
		c0,0.313-0.215,0.586-0.644,0.82c-0.079,0.04-1.269,0.527-3.572,1.464c-2.499,0.976-3.923,1.522-4.275,1.64
		c-0.82,0.273-1.503,0.41-2.049,0.41c-0.508,0-1.23-0.117-2.167-0.351c0.273,1.953,0.448,3.241,0.527,3.865
		c0.351,2.499,0.604,4.178,0.761,5.036c3.318-1.678,5.777-2.986,7.378-3.923c0.546-0.273,2.284-1.289,5.212-3.045l0.059,0.117
		c-1.093,1.562-2.246,3.007-3.455,4.333c-1.21,1.289-2.206,2.246-2.987,2.87c-0.742,0.664-1.503,1.309-2.284,1.933
		c-0.703,0.625-1.309,1.171-1.815,1.64c-0.156,0.156-0.449,0.585-0.878,1.288c-0.273,0.391-0.605,0.585-0.996,0.585
		c-0.625,0-1.405-0.487-2.342-1.464c-1.484-1.444-2.225-2.439-2.225-2.986c0-0.078,0.038-0.234,0.117-0.469
		c0.195-0.585,0.292-1.171,0.292-1.757c0-0.897-0.313-3.123-0.937-6.676c-0.547-3.318-0.957-5.367-1.229-6.149
		c-0.157-0.507-0.527-1.092-1.113-1.757C107.946,14.855,107.712,14.563,107.517,14.289z M129.653,13.879
		c0.429-0.741,0.937-1.113,1.522-1.113c0.312,0,0.957,0.234,1.933,0.703c2.108-0.546,3.552-0.937,4.333-1.171
		c1.991-0.546,3.24-0.878,3.748-0.996c1.171-0.273,2.029-0.527,2.577-0.761c0.429-0.156,0.878-0.39,1.347-0.703
		c0.781-0.507,1.327-0.761,1.64-0.761c0.312,0,0.897,0.293,1.757,0.878c0.273,0.157,1.132,0.84,2.577,2.05
		c0.39,0.313,0.585,0.664,0.585,1.054c0,0.234-0.196,0.585-0.585,1.054c-0.391,0.43-0.644,0.84-0.761,1.23
		c-0.156,0.469-0.273,1.191-0.352,2.167c-0.273,4.333-0.761,7.691-1.464,10.072c-0.468,1.679-1.191,3.065-2.167,4.158
		c-0.547,0.585-0.977,0.878-1.289,0.878c-0.313,0-0.664-0.214-1.054-0.644c-0.313-0.273-0.957-0.976-1.932-2.108
		c-0.82-0.897-2.147-2.167-3.982-3.806v-0.117c1.874,0.273,3.611,0.41,5.212,0.41c0.624,0,1.034-0.136,1.23-0.41
		c0.234-0.39,0.488-1.718,0.761-3.982c0.195-1.444,0.351-3.63,0.468-6.559l0.059-1.815c-0.039-0.195-0.117-0.488-0.234-0.878
		c-0.313-0.039-0.527-0.059-0.645-0.059c-1.016,0-4.295,0.742-9.838,2.226c0.468,0.43,0.703,0.84,0.703,1.229
		c0,0.157-0.02,0.352-0.059,0.585c-0.196,1.602-0.293,3.104-0.293,4.509l0.059,8.667c0,7.691-0.059,12.162-0.176,13.41
		c-0.351,2.89-0.566,4.617-0.644,5.183c-0.079,0.566-0.196,1.083-0.351,1.552c-0.352,1.132-0.801,1.698-1.347,1.698
		c-0.585,0-0.976-0.723-1.171-2.167c-0.43-2.732-0.645-5.739-0.645-9.018c0-1.132,0.039-3.104,0.117-5.915
		c0.117-6.325,0.176-10.775,0.176-13.352c0-2.811-0.117-4.606-0.352-5.388C130.921,15.324,130.434,14.66,129.653,13.879z"/>
	<path d="M161.51,40.992l-0.059-0.059c2.811-3.514,5.212-7.554,7.203-12.122c1.561-3.552,2.732-7.046,3.514-10.482
		c0.507-2.186,0.761-3.884,0.761-5.095c0-1.406-0.449-2.752-1.347-4.041c0.507-0.195,0.878-0.292,1.112-0.292
		s0.546,0.059,0.937,0.175c5.973-1.561,9.682-2.752,11.126-3.572c0.703-0.469,1.19-0.703,1.464-0.703
		c0.39,0,1.601,0.586,3.631,1.757c0.858,0.508,1.385,0.918,1.581,1.23c0.234,0.351,0.352,0.664,0.352,0.937
		c0,0.273-0.059,0.468-0.176,0.585c-0.196,0.234-0.585,0.566-1.171,0.996c-0.469,0.352-0.977,0.917-1.523,1.698
		c-0.313,0.468-0.585,0.859-0.82,1.171c-0.156,0.273-0.313,0.527-0.468,0.761c0.351,0.391,0.527,0.703,0.527,0.937
		c0,0.313-0.215,0.547-0.644,0.703c-0.157,0.039-1.133,0.117-2.928,0.234c-3.514,0.547-6.403,1.171-8.667,1.874
		c-0.351,1.445-0.664,2.635-0.937,3.572c-0.352,1.21-0.958,2.909-1.815,5.095c0.546,0.196,0.917,0.293,1.112,0.293
		c0.312,0,0.741-0.078,1.289-0.234c1.757-0.468,3.104-0.82,4.041-1.054c0.039-1.171,0.059-2.127,0.059-2.869
		c0-0.937-0.039-1.718-0.117-2.343c-0.079-0.507-0.254-1.092-0.527-1.756c0.351-0.234,0.624-0.352,0.82-0.352
		c0.195,0,0.605,0.176,1.229,0.527c0.937,0.547,1.523,1.074,1.757,1.581c0.039,0.117,0.059,0.391,0.059,0.82
		c0,0.742-0.02,1.932-0.059,3.572c1.406-0.351,2.362-0.663,2.87-0.937c0.781-0.468,1.23-0.703,1.347-0.703
		c0.741,0,1.795,0.41,3.163,1.23c0.897,0.508,1.347,0.917,1.347,1.229c0,0.04-0.039,0.157-0.117,0.352
		c-0.156,0.468-0.391,2.284-0.703,5.446c-0.117,1.328-0.205,2.147-0.264,2.459c-0.058,0.313-0.167,0.684-0.322,1.112
		c-0.43,1.171-0.918,2.07-1.464,2.694c-0.313,0.352-0.625,0.527-0.937,0.527c-0.469,0-1.016-0.488-1.64-1.464
		c-0.899-1.366-1.777-2.498-2.635-3.396v-0.117c1.483-0.117,2.361-0.214,2.635-0.292c0.39-0.078,0.624-0.312,0.703-0.703
		c0.117-0.39,0.214-1.425,0.292-3.104c0.039-0.937,0.059-1.678,0.059-2.225c0-0.937-0.254-1.405-0.761-1.405
		c-0.273,0-1.016,0.137-2.225,0.41c-0.508,0.117-0.957,0.234-1.347,0.352v2.167l-0.059,11.771l0.059,3.748
		c0,1.679-0.02,2.674-0.059,2.987c-0.039,0.313-0.137,0.644-0.292,0.995c-0.196,0.429-0.508,0.645-0.937,0.645
		c-0.43,0-0.898-0.313-1.405-0.937c-0.352-0.469-0.674-1.073-0.966-1.815c-0.293-0.741-0.439-1.347-0.439-1.815
		c0-0.078,0.136-0.839,0.41-2.284c0.078-0.546,0.214-2.147,0.41-4.802c0.078-1.132,0.117-2.966,0.117-5.504l0.059-3.455
		c0-0.078-0.02-0.371-0.059-0.878c-1.21,0.273-2.44,0.625-3.689,1.054c0.195,0.937,0.39,1.933,0.586,2.987
		c0.39,2.577,0.585,4.431,0.585,5.563c0,0.547-0.137,0.937-0.41,1.171c-0.196,0.196-0.41,0.293-0.645,0.293
		c-0.703,0-1.25-0.429-1.64-1.289c-0.156-0.351-0.273-0.722-0.351-1.112c-0.04-0.078-0.313-1.971-0.82-5.681
		c-0.117-0.663-0.352-1.366-0.703-2.108c-1.171,2.069-2.011,3.534-2.518,4.392C167.834,35.722,164.984,38.689,161.51,40.992z
		 M174.745,10.072c0.624,0.665,1.034,1.191,1.229,1.581c0.352,0.625,0.527,1.23,0.527,1.815c0,0.43-0.117,1.191-0.352,2.284
		c2.811-0.664,5.602-1.289,8.374-1.874c0.312-0.898,0.507-1.601,0.586-2.108c0.312-1.795,0.468-2.791,0.468-2.986
		c0-0.195-0.079-0.371-0.234-0.527c-0.156-0.155-0.332-0.234-0.527-0.234c-0.352,0-2.342,0.468-5.973,1.405l-1.23,0.41
		c-0.585,0.157-0.976,0.234-1.171,0.234c-0.117,0-0.273,0-0.469,0H174.745z M193.425,15.343c0.429-0.468,0.78-0.703,1.054-0.703
		c0.39,0,1.113,0.468,2.167,1.405c0.664,0.547,1.073,1.035,1.23,1.464c0.078,0.196,0.117,0.468,0.117,0.82c0,0.234,0,0.547,0,0.937
		c-0.04,0.469-0.079,1.621-0.117,3.455c-0.079,2.772-0.157,4.432-0.234,4.978c-0.196,1.367-0.664,2.049-1.405,2.049
		c-0.665,0-1.152-0.351-1.464-1.054c-0.43-0.975-0.644-2.244-0.644-3.806c0-0.273,0.02-0.761,0.059-1.464
		c0.078-1.757,0.117-3.201,0.117-4.333c0-0.976-0.137-1.854-0.41-2.635L193.425,15.343z M201.741,4.041
		c0.741-0.585,1.308-0.878,1.698-0.878c0.469,0,1.308,0.372,2.518,1.113c1.327,0.859,2.147,1.445,2.46,1.757
		c0.312,0.352,0.468,0.664,0.468,0.937c0,0.273-0.098,0.684-0.293,1.229c-0.508,1.445-0.761,4.412-0.761,8.901
		c0,13.431,0.078,21.277,0.234,23.542c0.117,1.328,0.176,2.284,0.176,2.869c0,1.602-0.372,3.163-1.113,4.685
		c-0.313,0.663-0.684,0.996-1.113,0.996c-0.468,0-0.898-0.215-1.288-0.645l-3.982-4.392c-0.43-0.468-1.308-1.307-2.635-2.518v-0.059
		c1.678,0.234,3.181,0.352,4.509,0.352c0.507,0,0.839-0.078,0.996-0.234c0.156-0.155,0.234-0.565,0.234-1.229l0.176-7.847
		l-0.117-6.383l0.059-5.915c-0.04-6.324-0.059-9.838-0.059-10.541c-0.079-1.991-0.293-3.299-0.644-3.924
		C203.029,5.388,202.521,4.783,201.741,4.041z"/>
	<path d="M221.476,36.015c2.849-3.24,5.231-6.325,7.144-9.252c2.303-3.475,3.845-6.07,4.626-7.789
		c-4.256,1.601-6.657,2.401-7.203,2.401c-0.585,0-1.484-0.234-2.694-0.703c-0.468-0.195-0.976-0.507-1.522-0.937
		c1.991-0.234,3.494-0.469,4.509-0.703c2.577-0.664,4.978-1.385,7.203-2.167c0-2.849,0-4.646,0-5.387
		c0.038-2.303,0.059-4.138,0.059-5.505c0-0.507-0.079-0.917-0.234-1.23c-0.196-0.351-0.605-0.839-1.229-1.464
		c0.624-0.82,1.19-1.229,1.698-1.229c0.272,0,1.092,0.391,2.459,1.171c0.741,0.469,1.347,0.996,1.815,1.581
		c0.155,0.234,0.234,0.449,0.234,0.645c0,0.273-0.138,0.742-0.41,1.405c-0.273,0.703-0.488,2.089-0.644,4.158
		c-0.04,0.625-0.117,2.167-0.234,4.626c1.054-0.546,1.795-0.82,2.225-0.82s0.938,0.117,1.523,0.351
		c0.546,0.234,0.819,0.508,0.819,0.82c0,0.43-0.586,0.782-1.757,1.054c-0.195,0.04-0.723,0.176-1.581,0.41
		c-0.234,0.079-0.684,0.196-1.347,0.351c-0.079,1.602-0.156,3.104-0.234,4.509c3.514,0.937,5.271,2.284,5.271,4.041
		c0,1.054-0.372,1.581-1.112,1.581c-0.625,0-1.309-0.429-2.05-1.288c-0.431-0.469-1.152-1.366-2.167-2.694
		c-0.079,2.577-0.196,6.345-0.352,11.302c-0.039,0.859-0.059,2.538-0.059,5.036c-0.039,3.241-0.117,5.134-0.234,5.68
		c-0.078,0.508-0.254,0.899-0.526,1.171c-0.234,0.196-0.469,0.293-0.703,0.293c-0.664,0-1.27-0.488-1.815-1.464
		c-0.352-0.663-0.625-1.366-0.819-2.108c-0.196-0.741-0.293-1.289-0.293-1.64c0-0.586,0.176-1.776,0.526-3.572
		c0.195-1.015,0.449-3.318,0.762-6.91c0.155-1.561,0.272-3.689,0.352-6.383c-3.396,4.998-7.32,8.608-11.771,10.834L221.476,36.015z
		 M238.576,39.353c2.186-1.6,4.606-3.845,7.262-6.734c1.443-1.601,2.498-2.87,3.162-3.807c1.443-1.952,2.342-3.259,2.693-3.923
		c-2.108,0.468-3.924,0.917-5.446,1.347c-0.468,0.157-0.878,0.234-1.229,0.234c-0.781,0-1.815-0.488-3.104-1.464
		c2.029-0.352,4.255-0.781,6.676-1.289c1.64-0.351,3.064-0.644,4.275-0.878c0.038-2.108,0.058-3.689,0.058-4.743
		c0-0.352,0-0.858,0-1.522l-0.937,0.175c-1.367,0.274-2.343,0.41-2.928,0.41c-0.391,0-0.84-0.078-1.347-0.234
		c-0.117-0.038-0.234-0.078-0.352-0.117c-0.196-0.078-0.489-0.175-0.879-0.292c-0.937,1.093-1.854,1.972-2.752,2.635
		c-0.625,0.43-1.66,1.016-3.104,1.757l-0.352-0.234c1.405-1.561,2.537-3.104,3.396-4.626c0.741-1.288,1.326-2.401,1.757-3.338
		c0.39-0.858,0.585-1.561,0.585-2.108c0-0.507-0.215-1.074-0.644-1.698c0.429-0.312,0.761-0.469,0.995-0.469
		c0.195,0,0.879,0.196,2.05,0.585c1.366,0.508,2.05,1.113,2.05,1.815c0,0.274-0.293,0.84-0.879,1.698
		c-0.819,1.211-1.542,2.167-2.166,2.87c0.272,0.04,0.468,0.059,0.585,0.059c0.195,0,1.308-0.234,3.338-0.703
		c0.469-0.078,1.015-0.214,1.64-0.41v-1.933V9.896V7.32c0-2.264-0.039-3.552-0.116-3.865c-0.157-0.39-0.665-1.093-1.523-2.108
		c0.703-0.624,1.289-0.937,1.757-0.937c0.234,0,0.723,0.176,1.465,0.527c1.092,0.508,1.951,1.074,2.576,1.698
		c0.469,0.468,0.703,0.878,0.703,1.229c0,0.196-0.117,0.566-0.352,1.113c-0.273,0.625-0.548,2.421-0.82,5.388
		c-0.078,0.937-0.156,1.933-0.234,2.986c0.352-0.117,0.762-0.253,1.23-0.41c1.288-0.469,2.01-0.761,2.166-0.878
		c0.898-0.39,1.503-0.585,1.815-0.585c0.352,0,1.093,0.175,2.226,0.527c0.78,0.273,1.171,0.684,1.171,1.23
		c0,0.43-0.371,0.781-1.112,1.054c-0.234,0.117-1.386,0.352-3.455,0.703c-2.108,0.508-3.476,0.82-4.1,0.937
		c-0.116,1.991-0.175,4.139-0.175,6.442c2.731-0.429,4.743-0.897,6.031-1.405c0.78-0.313,1.347-0.469,1.698-0.469
		c0.39,0,1.503,0.372,3.338,1.113c1.288,0.468,1.933,1.054,1.933,1.757c0,0.313-0.117,0.566-0.352,0.761
		c-0.234,0.156-0.469,0.234-0.702,0.234c-0.313,0-1.698-0.156-4.158-0.469c-0.508-0.039-1.191-0.059-2.05-0.059
		c-2.108,0-4.021,0.117-5.738,0.352v2.108c3.396,3.007,5.563,4.861,6.5,5.563c1.757,1.405,3.61,2.597,5.563,3.572
		c0.937,0.508,2.537,1.288,4.802,2.342c1.991,0.898,3.532,1.64,4.626,2.225v0.293c-2.616,0.468-5.134,0.703-7.555,0.703
		c-1.601,0-2.752-0.195-3.455-0.585c-0.898-0.507-2.518-2.245-4.86-5.212c-2.225-2.811-4.119-5.153-5.68-7.027
		c0,1.367,0.019,4.002,0.059,7.906c0.038,4.958,0.059,7.535,0.059,7.73c0,1.562-0.274,3.124-0.82,4.685
		c-0.43,1.093-0.898,1.64-1.405,1.64c-0.431,0-0.801-0.196-1.113-0.585l-2.459-3.104c-0.625-0.781-1.737-1.893-3.338-3.338
		l0.059-0.234c0.702,0.117,1.132,0.176,1.288,0.176c1.132,0.156,2.108,0.234,2.928,0.234c0.469,0,0.8-0.097,0.996-0.292
		c0.117-0.156,0.176-0.488,0.176-0.996c-0.04-0.624-0.021-1.854,0.059-3.689c0.077-1.171,0.155-3.533,0.234-7.085V29.28
		c-1.602,2.108-2.968,3.709-4.1,4.802c-2.577,2.538-5.915,4.354-10.014,5.446L238.576,39.353z"/>
	<path d="M282.906,42.983c3.162-0.586,7.086-1.854,11.771-3.807c0.272-3.24,0.41-5.992,0.41-8.257c0-1.015-0.117-1.854-0.352-2.518
		c-1.796,0.313-2.967,0.547-3.514,0.703c-0.702,0.156-1.229,0.234-1.581,0.234c-0.702,0-1.503-0.214-2.4-0.645
		c-0.431-0.234-0.977-0.644-1.64-1.229c0.624-0.117,1.736-0.214,3.338-0.293c0.585-0.078,1.698-0.331,3.338-0.761
		c2.107-0.546,3.845-1.132,5.212-1.757c0.468-0.195,1.249-0.585,2.342-1.171c0.624-0.312,1.113-0.469,1.464-0.469
		c0.391,0,0.976,0.137,1.757,0.41c0.938,0.351,1.406,0.8,1.406,1.347c0,0.469-0.469,0.84-1.406,1.113
		c-2.498,0.781-4.099,1.288-4.802,1.522c0.469,1.054,0.703,2.206,0.703,3.455c0,1.874-0.138,4.139-0.41,6.793
		c1.952-0.703,3.24-1.19,3.865-1.464c3.669-1.444,6.07-2.343,7.203-2.694l0.116,0.234c-0.976,0.859-2.069,1.679-3.279,2.459
		c-4.646,2.928-9.507,5.642-14.581,8.14c-1.25,0.665-2.108,1.133-2.577,1.406c-0.625,0.391-1.093,0.585-1.405,0.585
		c-0.156,0-0.995-0.331-2.518-0.996c-0.469-0.195-0.977-0.468-1.522-0.82c-0.665-0.429-0.996-0.839-0.996-1.23
		C282.847,43.238,282.867,43.14,282.906,42.983z M300.24,2.811c0.469-1.015,1.015-1.523,1.64-1.523c0.272,0,0.624,0.098,1.054,0.293
		c0.664,0.234,1.269,0.43,1.815,0.585c1.249,0.391,2.011,0.782,2.284,1.171c0.234,0.273,0.352,0.781,0.352,1.522
		c-0.079,0.937,0.234,3.495,0.937,7.671c3.046-0.429,5.251-0.897,6.617-1.405c0.624-0.234,1.055-0.352,1.289-0.352
		s1.19,0.333,2.869,0.996c1.366,0.547,2.05,1.21,2.05,1.991c0,0.547-0.391,0.82-1.171,0.82c-0.509,0-1.309-0.039-2.401-0.117
		c-1.016-0.078-2.012-0.117-2.986-0.117c-1.563,0-3.495,0.137-5.798,0.41c1.483,7.964,4.118,14.836,7.905,20.613
		c2.069,3.202,4.255,5.739,6.56,7.613c0.937,0.781,1.561,1.171,1.874,1.171c0.312,0,0.604-0.272,0.878-0.82
		c1.171-2.459,2.05-4.47,2.635-6.032h0.234l0.117,1.933c0.313,6.676,0.469,10.189,0.469,10.541c0,1.171-0.371,1.757-1.112,1.757
		c-1.328,0-3.183-0.937-5.563-2.811c-4.178-3.279-7.887-8.12-11.127-14.523c-2.655-5.192-4.821-11.497-6.5-18.915
		c-5.7,1.25-9.721,2.226-12.063,2.928c-0.585,0.156-1.016,0.234-1.288,0.234c-0.703,0-1.815-0.371-3.338-1.112
		c-0.547-0.273-1.191-0.683-1.933-1.23c0.703-0.078,2.381-0.272,5.036-0.585c3.709-0.469,8.022-1.23,12.942-2.284
		c-0.625-2.694-1.035-4.431-1.23-5.212c-0.313-1.21-0.508-1.952-0.585-2.226c-0.196-0.897-0.391-1.405-0.586-1.522
		C301.917,4.041,301.293,3.553,300.24,2.811z M312.069,3.807c0.586,0,1.034,0,1.347,0c3.084,0,5.134,0.371,6.149,1.112
		c1.171,0.859,1.757,1.855,1.757,2.987c0,0.313-0.099,0.605-0.293,0.878c-0.273,0.313-0.586,0.468-0.938,0.468
		c-0.781,0-1.932-0.507-3.455-1.522c-0.624-0.429-1.679-1.249-3.162-2.459c-0.391-0.352-0.878-0.741-1.464-1.171L312.069,3.807z"/>
	<path d="M336.665,32.208l-0.176-0.234c3.045-1.991,5.758-4.177,8.14-6.559c4.138-4.216,8.296-9.447,12.474-15.694
		c2.186-3.318,3.279-5.661,3.279-7.027c0-0.429-0.234-1.034-0.702-1.815C360.147,0.293,360.577,0,360.967,0
		c0.312,0,0.897,0.196,1.757,0.585c1.326,0.665,2.244,1.152,2.752,1.464c0.586,0.391,0.879,0.723,0.879,0.995
		c0,0.196-0.157,0.469-0.469,0.82c-0.43,0.547-0.977,1.27-1.64,2.167c0.586,0.391,0.976,0.664,1.171,0.82
		c0.313,0.196,1.055,0.898,2.226,2.108c1.171,1.21,3.376,3.201,6.617,5.973c2.537,2.225,4.782,3.943,6.734,5.153
		c1.366,0.859,4.431,2.616,9.194,5.27c1.795,0.977,3.298,1.757,4.509,2.343v0.41c-1.602,0.196-2.909,0.332-3.924,0.41
		c-1.405,0.117-3.396,0.175-5.973,0.175c-0.938,0-1.669-0.048-2.196-0.146c-0.527-0.097-0.947-0.283-1.259-0.557
		c-0.664-0.507-2.851-2.947-6.559-7.32c-4.295-5.075-7.224-8.647-8.784-10.717c-0.742-1.015-1.288-1.659-1.64-1.932
		c-0.156-0.117-0.469-0.332-0.938-0.645c-2.538,3.944-4.489,6.813-5.855,8.608c-3.241,4.1-6.208,7.282-8.901,9.545
		C345.117,28.539,341.115,30.764,336.665,32.208z M345.214,34.434c0.741-0.078,2.167-0.234,4.274-0.469
		c1.249-0.117,6.246-0.917,14.992-2.401c2.889-0.507,4.353-0.741,4.392-0.703c2.029-0.312,3.396-0.527,4.1-0.644
		c0.585-0.078,1.229-0.253,1.933-0.527c0.546-0.155,0.916-0.234,1.112-0.234c0.586,0,1.619,0.468,3.104,1.405
		c0.663,0.43,0.996,0.878,0.996,1.347c0,0.625-0.431,0.937-1.289,0.937c-0.547,0-1.309-0.038-2.283-0.117
		c-1.602-0.078-3.221-0.117-4.86-0.117c-2.305,0-4.413,0.117-6.325,0.351c-1.405,0.196-2.362,0.313-2.869,0.352
		c1.093,0.781,1.64,1.347,1.64,1.698c0,0.156-0.605,0.996-1.815,2.518l-1.698,2.049c-1.522,1.953-2.577,3.26-3.162,3.924
		c2.186-0.273,6.559-0.956,13.117-2.05c-0.469-0.858-1.444-2.284-2.928-4.275l0.234-0.234c2.654,0.937,4.781,1.952,6.383,3.045
		c1.093,0.781,1.912,1.64,2.46,2.577c0.585,1.016,0.878,2.05,0.878,3.104c0,0.665-0.176,1.25-0.527,1.757
		c-0.391,0.546-0.858,0.82-1.405,0.82c-0.859,0-1.62-0.663-2.283-1.991c-0.859-1.757-1.465-2.889-1.815-3.396
		c-2.07,0.742-3.28,1.152-3.631,1.229l-11.888,3.514c-0.898,0.273-1.66,0.527-2.284,0.761c-0.547,0.234-0.995,0.352-1.347,0.352
		c-0.625,0-1.347-0.644-2.167-1.933c-0.43-0.703-0.762-1.209-0.995-1.522c-0.196-0.273-0.293-0.488-0.293-0.644
		c0-0.078,0.077-0.234,0.234-0.469c1.366-0.039,2.811-0.097,4.333-0.176c0.663-0.703,1.103-1.19,1.317-1.464
		c0.215-0.272,0.576-0.839,1.084-1.698c1.288-2.108,2.107-3.514,2.459-4.216s0.527-1.249,0.527-1.64c0-0.195-0.039-0.469-0.117-0.82
		c-2.655,0.43-5.407,1.035-8.257,1.815c-0.625,0.156-1.113,0.234-1.464,0.234c-0.586,0-1.367-0.312-2.343-0.937
		C346.424,35.351,345.917,34.98,345.214,34.434z M353.471,25.532c2.615-0.351,4.978-0.82,7.086-1.405
		c1.757-0.469,3.123-0.956,4.1-1.464c0.351-0.156,0.956-0.469,1.815-0.937c0.585-0.312,1.033-0.469,1.347-0.469
		c0.194,0,0.976,0.254,2.342,0.761c1.055,0.43,1.581,0.898,1.581,1.406c0,0.391-0.391,0.723-1.171,0.995
		c-0.234,0.079-1.229,0.274-2.986,0.586c-2.772,0.508-5.974,1.191-9.604,2.049c-0.548,0.157-1.017,0.234-1.406,0.234
		c-0.585,0-1.191-0.214-1.815-0.644C354.603,26.489,354.174,26.118,353.471,25.532z"/>
	<path d="M396.103,38.591c1.64-1.289,3.006-2.518,4.1-3.689c2.577-2.771,5.056-6.07,7.438-9.896
		c1.209-1.952,2.205-3.728,2.986-5.329c-0.977,0.43-3.514,1.679-7.613,3.748c-0.468,0.234-0.84,0.351-1.112,0.351
		c-0.195,0-0.664-0.155-1.405-0.468c-0.82-0.312-1.543-0.722-2.167-1.23c-0.195-0.195-0.293-0.351-0.293-0.468
		c0-0.078,0.039-0.195,0.117-0.352l0.703-0.059c1.326-0.117,2.342-0.272,3.045-0.468c0.352-0.078,2.186-0.683,5.505-1.815
		c2.186-0.703,3.338-1.171,3.455-1.405c0.194-0.156,0.604-0.645,1.229-1.464c0.352-0.507,0.645-0.761,0.879-0.761
		c0.117,0,0.331,0.117,0.644,0.352c0.352,0.234,0.897,0.585,1.64,1.054c1.366,0.899,2.05,1.582,2.05,2.05
		c0,0.157-0.098,0.313-0.293,0.469l-1.347,0.995c-0.234,0.079-0.664,0.586-1.288,1.523c-1.405,1.953-2.44,3.377-3.104,4.275
		c1.482,0.117,2.869,0.351,4.157,0.703c0.507,0.156,0.858,0.391,1.055,0.703c0.429,0.585,0.644,1.21,0.644,1.874
		c0,0.937-0.352,1.405-1.054,1.405c-0.548,0-1.016-0.176-1.405-0.527c-1.289-1.21-2.226-2.03-2.812-2.459l-0.059,2.752
		c-0.117,9.214-0.215,14.387-0.293,15.519c-0.195,2.108-0.761,3.163-1.698,3.163c-0.702,0-1.308-0.723-1.815-2.167
		c-0.43-1.132-0.644-2.069-0.644-2.811c0-0.312,0.097-0.917,0.293-1.815c0.312-1.289,0.546-2.772,0.702-4.451
		c0.156-1.483,0.273-4.333,0.352-8.55c-2.069,2.811-4.45,5.115-7.145,6.91c-1.991,1.288-3.768,2.108-5.329,2.459L396.103,38.591z
		 M407.347,6.149l0.059-0.41l0.819-0.117c1.015-0.117,1.718-0.175,2.108-0.175c0.78,0,1.815,0.098,3.104,0.292
		c1.249,0.157,2.245,0.684,2.987,1.581c0.663,0.782,0.995,1.602,0.995,2.46c0,0.351-0.098,0.683-0.293,0.995
		c-0.352,0.547-0.801,0.82-1.347,0.82c-0.391,0-0.781-0.117-1.171-0.351c-0.469-0.312-1.094-0.761-1.874-1.347
		c-1.211-0.975-2.323-1.776-3.338-2.401C408.459,6.872,407.776,6.422,407.347,6.149z M414.433,41.52
		c1.288-0.273,6.148-0.957,14.581-2.05c-0.117-4.489-0.176-8.843-0.176-13.059c-2.459,0.391-4.08,0.585-4.86,0.585
		c-1.679,0-2.89-0.703-3.631-2.108c0.547,0,0.938,0,1.172,0c1.874,0,4.274-0.352,7.202-1.054c0.039-1.522,0.137-4.997,0.293-10.424
		c0-0.546,0-1.19,0-1.932c0-1.289-0.117-2.226-0.352-2.811c-0.273-0.703-0.898-1.444-1.873-2.226
		c0.468-0.858,1.033-1.288,1.698-1.288c0.546,0,1.288,0.254,2.225,0.761c1.172,0.625,2.011,1.152,2.519,1.581
		c0.585,0.508,0.878,1.016,0.878,1.522c0,0.234-0.098,0.586-0.293,1.054c-0.351,0.898-0.547,1.757-0.585,2.577
		c-0.04,0.234-0.108,1.591-0.205,4.07c-0.098,2.48-0.146,3.817-0.146,4.012c0,0.351,0,0.937,0,1.757
		c1.21-0.312,2.284-0.703,3.221-1.171c0.741-0.351,1.308-0.527,1.698-0.527c0.39,0,1.073,0.196,2.05,0.585
		c1.093,0.43,1.64,1.016,1.64,1.757c0,0.547-0.566,0.918-1.698,1.113c-1.679,0.351-3.963,0.859-6.852,1.522
		c-0.039,3.162-0.079,5.251-0.117,6.266c-0.039,1.133-0.215,3.534-0.527,7.203c1.835-0.117,3.416-0.272,4.744-0.468
		c2.107-0.312,3.513-0.605,4.216-0.878c0.78-0.312,1.269-0.469,1.464-0.469c0.313,0,1.503,0.508,3.572,1.523
		c1.522,0.742,2.284,1.503,2.284,2.284c0,0.273-0.098,0.489-0.293,0.644c-0.273,0.234-0.586,0.352-0.937,0.352
		c-0.782,0-1.777-0.117-2.987-0.352c-2.03-0.429-4.685-0.644-7.964-0.644c-5.7,0-11.264,0.664-16.689,1.991
		c-0.548,0.156-0.957,0.234-1.23,0.234c-0.742,0-1.659-0.331-2.752-0.996C415.331,42.261,414.901,41.949,414.433,41.52z"/>
</g>
</svg>
